<?xml version="1.0" encoding="us-ascii" standalone="no"?><svg xmlns="http://www.w3.org/2000/svg" xmlns:xlink="http://www.w3.org/1999/xlink" contentStyleType="text/css" height="1033.125px" preserveAspectRatio="none" style="width:1755px;height:1033px;background:#FFFFFF;" version="1.1" viewBox="0 0 1755 1033" width="1755px" zoomAndPan="magnify"><defs/><g><!--cluster Generierungs- und\nLeitplanken-Komponente--><g id="cluster_Generierungs- und\nLeitplanken-Komponente"><rect fill="none" height="1008.75" rx="4.6875" ry="4.6875" style="stroke:#000000;stroke-width:2.8125;" width="1730.625" x="13.125" y="13.125"/><text fill="#000000" font-family="sans-serif" font-size="24.375" font-weight="bold" lengthAdjust="spacing" textLength="221.25" x="767.8125" y="42.1783">Generierungs- und</text><text fill="#000000" font-family="sans-serif" font-size="24.375" font-weight="bold" lengthAdjust="spacing" textLength="300" x="728.4375" y="72.8375">Leitplanken-Komponente</text></g><!--class GenerationRequest--><g id="elem_GenerationRequest"><rect codeLine="13" fill="#F1F1F1" height="171.3867" id="GenerationRequest" rx="4.6875" ry="4.6875" style="stroke:#181818;stroke-width:0.9375;" width="264.375" x="185.625" y="109.6875"/><ellipse cx="211.875" cy="149.7217" fill="#ADD1B2" rx="18.75" ry="18.75" style="stroke:#181818;stroke-width:1.875;"/><path d="M213.6328,143.4229 Q213.8672,143.1006 214.1309,142.9541 Q214.3945,142.8076 214.7168,142.8076 Q215.2441,142.8076 215.5811,143.1738 Q215.918,143.54 215.918,144.4189 L215.918,146.499 Q215.918,147.3779 215.5811,147.7441 Q215.2441,148.1104 214.7168,148.1104 Q214.2188,148.1104 213.9258,147.8467 Q213.6328,147.583 213.4863,146.8213 Q213.3984,146.3232 213.1641,146.0596 Q212.666,145.5029 211.7871,145.1807 Q210.9082,144.8584 210.0293,144.8584 Q208.9453,144.8584 208.0225,145.3418 Q207.0996,145.8252 206.3965,146.8945 Q205.6934,147.9639 205.6934,149.4287 L205.6934,151.0107 Q205.6934,152.7686 206.9824,153.9551 Q208.2715,155.1416 210.5273,155.1416 Q211.9043,155.1416 212.8418,154.7607 Q213.3691,154.5557 213.9844,153.9111 Q214.3652,153.5303 214.585,153.4277 Q214.8047,153.3252 215.0684,153.3252 Q215.5664,153.3252 215.9326,153.6914 Q216.2988,154.0576 216.2988,154.5557 Q216.2988,155.0537 215.8008,155.6396 Q215.0684,156.46 213.9258,156.9287 Q212.4023,157.5732 210.5566,157.5732 Q208.3887,157.5732 206.6309,156.6943 Q205.2246,155.9619 204.2432,154.4238 Q203.2617,152.8857 203.2617,151.0693 L203.2617,149.3994 Q203.2617,147.4951 204.1553,145.8545 Q205.0488,144.2139 206.6162,143.3203 Q208.1836,142.4268 209.9414,142.4268 Q210.9961,142.4268 211.9189,142.6758 Q212.8418,142.9248 213.6328,143.4229 Z " fill="#000000"/><text fill="#000000" font-family="sans-serif" font-size="24.375" font-style="italic" lengthAdjust="spacing" textLength="131.25" x="274.6875" y="144.3658">&#171;dataclass&#187;</text><text fill="#000000" font-family="sans-serif" font-size="24.375" lengthAdjust="spacing" textLength="208.125" x="236.25" y="175.025">GenerationRequest</text><line style="stroke:#181818;stroke-width:0.9375;" x1="187.5" x2="448.125" y1="189.7559" y2="189.7559"/><text fill="#000000" font-family="sans-serif" font-size="24.375" lengthAdjust="spacing" textLength="150" x="196.875" y="222.5592">+question: str</text><text fill="#000000" font-family="sans-serif" font-size="24.375" lengthAdjust="spacing" textLength="206.25" x="196.875" y="253.2184">+extra_context: str</text><line style="stroke:#181818;stroke-width:0.9375;" x1="187.5" x2="448.125" y1="266.0742" y2="266.0742"/></g><!--class GroundedContextBundle--><g id="elem_GroundedContextBundle"><rect codeLine="18" fill="#F1F1F1" height="202.0459" id="GroundedContextBundle" rx="4.6875" ry="4.6875" style="stroke:#181818;stroke-width:0.9375;" width="549.375" x="43.125" y="789.375"/><ellipse cx="215.625" cy="844.7388" fill="#ADD1B2" rx="18.75" ry="18.75" style="stroke:#181818;stroke-width:1.875;"/><path d="M217.3828,838.4399 Q217.6172,838.1177 217.8809,837.9712 Q218.1445,837.8247 218.4668,837.8247 Q218.9941,837.8247 219.3311,838.1909 Q219.668,838.5571 219.668,839.436 L219.668,841.5161 Q219.668,842.395 219.3311,842.7612 Q218.9941,843.1274 218.4668,843.1274 Q217.9688,843.1274 217.6758,842.8638 Q217.3828,842.6001 217.2363,841.8384 Q217.1484,841.3403 216.9141,841.0767 Q216.416,840.52 215.5371,840.1978 Q214.6582,839.8755 213.7793,839.8755 Q212.6953,839.8755 211.7725,840.3589 Q210.8496,840.8423 210.1465,841.9116 Q209.4434,842.981 209.4434,844.4458 L209.4434,846.0278 Q209.4434,847.7856 210.7324,848.9722 Q212.0215,850.1587 214.2773,850.1587 Q215.6543,850.1587 216.5918,849.7778 Q217.1191,849.5728 217.7344,848.9282 Q218.1152,848.5474 218.335,848.4448 Q218.5547,848.3423 218.8184,848.3423 Q219.3164,848.3423 219.6826,848.7085 Q220.0488,849.0747 220.0488,849.5728 Q220.0488,850.0708 219.5508,850.6567 Q218.8184,851.4771 217.6758,851.9458 Q216.1523,852.5903 214.3066,852.5903 Q212.1387,852.5903 210.3809,851.7114 Q208.9746,850.979 207.9932,849.4409 Q207.0117,847.9028 207.0117,846.0864 L207.0117,844.4165 Q207.0117,842.5122 207.9053,840.8716 Q208.7988,839.231 210.3662,838.3374 Q211.9336,837.4438 213.6914,837.4438 Q214.7461,837.4438 215.6689,837.6929 Q216.5918,837.9419 217.3828,838.4399 Z " fill="#000000"/><text fill="#000000" font-family="sans-serif" font-size="24.375" font-style="italic" lengthAdjust="spacing" textLength="131.25" x="280.3125" y="824.0533">&#171;dataclass&#187;</text><text fill="#000000" font-family="sans-serif" font-size="24.375" lengthAdjust="spacing" textLength="189.375" x="251.25" y="854.7125">GroundedContext</text><text fill="#000000" font-family="sans-serif" font-size="24.375" lengthAdjust="spacing" textLength="75" x="308.4375" y="885.3717">Bundle</text><line style="stroke:#181818;stroke-width:0.9375;" x1="45" x2="590.625" y1="900.1025" y2="900.1025"/><text fill="#000000" font-family="sans-serif" font-size="24.375" lengthAdjust="spacing" textLength="208.125" x="54.375" y="932.9059">+event_context: str</text><text fill="#000000" font-family="sans-serif" font-size="24.375" lengthAdjust="spacing" textLength="526.875" x="54.375" y="963.5651">+retrieved_chunks: List&lt;RetrievedContextBlock&gt;</text><line style="stroke:#181818;stroke-width:0.9375;" x1="45" x2="590.625" y1="976.4209" y2="976.4209"/></g><!--class RetrievedContextBlock--><g id="elem_RetrievedContextBlock"><rect codeLine="23" fill="#F1F1F1" height="294.0234" id="RetrievedContextBlock" rx="4.6875" ry="4.6875" style="stroke:#181818;stroke-width:0.9375;" width="240" x="862.5" y="696.5625"/><ellipse cx="888.75" cy="751.9263" fill="#ADD1B2" rx="18.75" ry="18.75" style="stroke:#181818;stroke-width:1.875;"/><path d="M890.5078,745.6274 Q890.7422,745.3052 891.0059,745.1587 Q891.2695,745.0122 891.5918,745.0122 Q892.1191,745.0122 892.4561,745.3784 Q892.793,745.7446 892.793,746.6235 L892.793,748.7036 Q892.793,749.5825 892.4561,749.9487 Q892.1191,750.3149 891.5918,750.3149 Q891.0938,750.3149 890.8008,750.0513 Q890.5078,749.7876 890.3613,749.0259 Q890.2734,748.5278 890.0391,748.2642 Q889.541,747.7075 888.6621,747.3853 Q887.7832,747.063 886.9043,747.063 Q885.8203,747.063 884.8975,747.5464 Q883.9746,748.0298 883.2715,749.0991 Q882.5684,750.1685 882.5684,751.6333 L882.5684,753.2153 Q882.5684,754.9731 883.8574,756.1597 Q885.1465,757.3462 887.4023,757.3462 Q888.7793,757.3462 889.7168,756.9653 Q890.2441,756.7603 890.8594,756.1157 Q891.2402,755.7349 891.46,755.6323 Q891.6797,755.5298 891.9434,755.5298 Q892.4414,755.5298 892.8076,755.896 Q893.1738,756.2622 893.1738,756.7603 Q893.1738,757.2583 892.6758,757.8442 Q891.9434,758.6646 890.8008,759.1333 Q889.2773,759.7778 887.4316,759.7778 Q885.2637,759.7778 883.5059,758.8989 Q882.0996,758.1665 881.1182,756.6284 Q880.1367,755.0903 880.1367,753.2739 L880.1367,751.604 Q880.1367,749.6997 881.0303,748.0591 Q881.9238,746.4185 883.4912,745.5249 Q885.0586,744.6313 886.8164,744.6313 Q887.8711,744.6313 888.7939,744.8804 Q889.7168,745.1294 890.5078,745.6274 Z " fill="#000000"/><text fill="#000000" font-family="sans-serif" font-size="24.375" font-style="italic" lengthAdjust="spacing" textLength="131.25" x="939.375" y="731.2408">&#171;dataclass&#187;</text><text fill="#000000" font-family="sans-serif" font-size="24.375" lengthAdjust="spacing" textLength="183.75" x="913.125" y="761.9">RetrievedContext</text><text fill="#000000" font-family="sans-serif" font-size="24.375" lengthAdjust="spacing" textLength="61.875" x="974.0625" y="792.5592">Block</text><line style="stroke:#181818;stroke-width:0.9375;" x1="864.375" x2="1100.625" y1="807.29" y2="807.29"/><text fill="#000000" font-family="sans-serif" font-size="24.375" lengthAdjust="spacing" textLength="103.125" x="873.75" y="840.0934">+rank: int</text><text fill="#000000" font-family="sans-serif" font-size="24.375" lengthAdjust="spacing" textLength="103.125" x="873.75" y="870.7526">+kind: str</text><text fill="#000000" font-family="sans-serif" font-size="24.375" lengthAdjust="spacing" textLength="118.125" x="873.75" y="901.4117">+name: str</text><text fill="#000000" font-family="sans-serif" font-size="24.375" lengthAdjust="spacing" textLength="135" x="873.75" y="932.0709">+score: float</text><text fill="#000000" font-family="sans-serif" font-size="24.375" lengthAdjust="spacing" textLength="99.375" x="873.75" y="962.7301">+text: str</text><line style="stroke:#181818;stroke-width:0.9375;" x1="864.375" x2="1100.625" y1="975.5859" y2="975.5859"/></g><!--class GuardrailPolicy--><g id="elem_GuardrailPolicy"><rect codeLine="31" fill="#F1F1F1" height="147.5684" id="GuardrailPolicy" rx="4.6875" ry="4.6875" style="stroke:#181818;stroke-width:0.9375;" width="611.25" x="676.875" y="482.8125"/><ellipse cx="892.5" cy="510.9375" fill="#ADD1B2" rx="18.75" ry="18.75" style="stroke:#181818;stroke-width:1.875;"/><path d="M894.2578,504.6387 Q894.4922,504.3164 894.7559,504.1699 Q895.0195,504.0234 895.3418,504.0234 Q895.8691,504.0234 896.2061,504.3896 Q896.543,504.7559 896.543,505.6348 L896.543,507.7148 Q896.543,508.5938 896.2061,508.96 Q895.8691,509.3262 895.3418,509.3262 Q894.8438,509.3262 894.5508,509.0625 Q894.2578,508.7988 894.1113,508.0371 Q894.0234,507.5391 893.7891,507.2754 Q893.291,506.7188 892.4121,506.3965 Q891.5332,506.0742 890.6543,506.0742 Q889.5703,506.0742 888.6475,506.5576 Q887.7246,507.041 887.0215,508.1104 Q886.3184,509.1797 886.3184,510.6445 L886.3184,512.2266 Q886.3184,513.9844 887.6074,515.1709 Q888.8965,516.3574 891.1523,516.3574 Q892.5293,516.3574 893.4668,515.9766 Q893.9941,515.7715 894.6094,515.127 Q894.9902,514.7461 895.21,514.6436 Q895.4297,514.541 895.6934,514.541 Q896.1914,514.541 896.5576,514.9072 Q896.9238,515.2734 896.9238,515.7715 Q896.9238,516.2695 896.4258,516.8555 Q895.6934,517.6758 894.5508,518.1445 Q893.0273,518.7891 891.1816,518.7891 Q889.0137,518.7891 887.2559,517.9102 Q885.8496,517.1777 884.8682,515.6396 Q883.8867,514.1016 883.8867,512.2852 L883.8867,510.6152 Q883.8867,508.7109 884.7803,507.0703 Q885.6738,505.4297 887.2412,504.5361 Q888.8086,503.6426 890.5664,503.6426 Q891.6211,503.6426 892.5439,503.8916 Q893.4668,504.1406 894.2578,504.6387 Z " fill="#000000"/><text fill="#000000" font-family="sans-serif" font-size="24.375" lengthAdjust="spacing" textLength="165" x="928.125" y="520.9113">GuardrailPolicy</text><line style="stroke:#181818;stroke-width:0.9375;" x1="678.75" x2="1286.25" y1="539.0625" y2="539.0625"/><line style="stroke:#181818;stroke-width:0.9375;" x1="678.75" x2="1286.25" y1="554.0625" y2="554.0625"/><text fill="#000000" font-family="sans-serif" font-size="24.375" lengthAdjust="spacing" textLength="588.75" x="688.125" y="586.8658">+enforce(req: GenerationRequest): GenerationRequest</text><text fill="#000000" font-family="sans-serif" font-size="24.375" lengthAdjust="spacing" textLength="444.375" x="688.125" y="617.525">+validate(result: GenerationResult): None</text></g><!--class AnswerContract--><g id="elem_AnswerContract"><rect codeLine="36" fill="#F1F1F1" height="116.9092" id="AnswerContract" rx="4.6875" ry="4.6875" style="stroke:#181818;stroke-width:0.9375;" width="341.25" x="1372.5" y="427.5"/><ellipse cx="1449.375" cy="455.625" fill="#ADD1B2" rx="18.75" ry="18.75" style="stroke:#181818;stroke-width:1.875;"/><path d="M1451.1328,449.3262 Q1451.3672,449.0039 1451.6309,448.8574 Q1451.8945,448.7109 1452.2168,448.7109 Q1452.7441,448.7109 1453.0811,449.0771 Q1453.418,449.4434 1453.418,450.3223 L1453.418,452.4023 Q1453.418,453.2813 1453.0811,453.6475 Q1452.7441,454.0137 1452.2168,454.0137 Q1451.7188,454.0137 1451.4258,453.75 Q1451.1328,453.4863 1450.9863,452.7246 Q1450.8984,452.2266 1450.6641,451.9629 Q1450.166,451.4063 1449.2871,451.084 Q1448.4082,450.7617 1447.5293,450.7617 Q1446.4453,450.7617 1445.5225,451.2451 Q1444.5996,451.7285 1443.8965,452.7979 Q1443.1934,453.8672 1443.1934,455.332 L1443.1934,456.9141 Q1443.1934,458.6719 1444.4824,459.8584 Q1445.7715,461.0449 1448.0273,461.0449 Q1449.4043,461.0449 1450.3418,460.6641 Q1450.8691,460.459 1451.4844,459.8145 Q1451.8652,459.4336 1452.085,459.3311 Q1452.3047,459.2285 1452.5684,459.2285 Q1453.0664,459.2285 1453.4326,459.5947 Q1453.7988,459.9609 1453.7988,460.459 Q1453.7988,460.957 1453.3008,461.543 Q1452.5684,462.3633 1451.4258,462.832 Q1449.9023,463.4766 1448.0566,463.4766 Q1445.8887,463.4766 1444.1309,462.5977 Q1442.7246,461.8652 1441.7432,460.3271 Q1440.7617,458.7891 1440.7617,456.9727 L1440.7617,455.3027 Q1440.7617,453.3984 1441.6553,451.7578 Q1442.5488,450.1172 1444.1162,449.2236 Q1445.6836,448.3301 1447.4414,448.3301 Q1448.4961,448.3301 1449.4189,448.5791 Q1450.3418,448.8281 1451.1328,449.3262 Z " fill="#000000"/><text fill="#000000" font-family="sans-serif" font-size="24.375" lengthAdjust="spacing" textLength="172.5" x="1485" y="465.5988">AnswerContract</text><line style="stroke:#181818;stroke-width:0.9375;" x1="1374.375" x2="1711.875" y1="483.75" y2="483.75"/><text fill="#000000" font-family="sans-serif" font-size="24.375" lengthAdjust="spacing" textLength="318.75" x="1383.75" y="516.5533">+required_sections: List&lt;str&gt;</text><line style="stroke:#181818;stroke-width:0.9375;" x1="1374.375" x2="1711.875" y1="529.4092" y2="529.4092"/></g><!--class GroundedAnswerGenerator--><g id="elem_GroundedAnswerGenerator"><rect codeLine="40" fill="#F1F1F1" height="140.7275" id="GroundedAnswerGenerator" rx="4.6875" ry="4.6875" style="stroke:#181818;stroke-width:0.9375;" width="431.25" x="102.1875" y="582.1875"/><ellipse cx="217.5" cy="622.2217" fill="#ADD1B2" rx="18.75" ry="18.75" style="stroke:#181818;stroke-width:1.875;"/><path d="M219.2578,615.9229 Q219.4922,615.6006 219.7559,615.4541 Q220.0195,615.3076 220.3418,615.3076 Q220.8691,615.3076 221.2061,615.6738 Q221.543,616.04 221.543,616.9189 L221.543,618.999 Q221.543,619.8779 221.2061,620.2441 Q220.8691,620.6104 220.3418,620.6104 Q219.8438,620.6104 219.5508,620.3467 Q219.2578,620.083 219.1113,619.3213 Q219.0234,618.8232 218.7891,618.5596 Q218.291,618.0029 217.4121,617.6807 Q216.5332,617.3584 215.6543,617.3584 Q214.5703,617.3584 213.6475,617.8418 Q212.7246,618.3252 212.0215,619.3945 Q211.3184,620.4639 211.3184,621.9287 L211.3184,623.5107 Q211.3184,625.2686 212.6074,626.4551 Q213.8965,627.6416 216.1523,627.6416 Q217.5293,627.6416 218.4668,627.2607 Q218.9941,627.0557 219.6094,626.4111 Q219.9902,626.0303 220.21,625.9277 Q220.4297,625.8252 220.6934,625.8252 Q221.1914,625.8252 221.5576,626.1914 Q221.9238,626.5576 221.9238,627.0557 Q221.9238,627.5537 221.4258,628.1396 Q220.6934,628.96 219.5508,629.4287 Q218.0273,630.0732 216.1816,630.0732 Q214.0137,630.0732 212.2559,629.1943 Q210.8496,628.4619 209.8682,626.9238 Q208.8867,625.3857 208.8867,623.5693 L208.8867,621.8994 Q208.8867,619.9951 209.7803,618.3545 Q210.6738,616.7139 212.2412,615.8203 Q213.8086,614.9268 215.5664,614.9268 Q216.6211,614.9268 217.5439,615.1758 Q218.4668,615.4248 219.2578,615.9229 Z " fill="#000000"/><text fill="#000000" font-family="sans-serif" font-size="24.375" lengthAdjust="spacing" textLength="185.625" x="253.125" y="616.8658">GroundedAnswer</text><text fill="#000000" font-family="sans-serif" font-size="24.375" lengthAdjust="spacing" textLength="106.875" x="292.5" y="647.525">Generator</text><line style="stroke:#181818;stroke-width:0.9375;" x1="104.0625" x2="531.5625" y1="662.2559" y2="662.2559"/><line style="stroke:#181818;stroke-width:0.9375;" x1="104.0625" x2="531.5625" y1="677.2559" y2="677.2559"/><text fill="#000000" font-family="sans-serif" font-size="24.375" lengthAdjust="spacing" textLength="408.75" x="113.4375" y="710.0592">+generate(req, ctx): GenerationResult</text></g><!--class GenerationResult--><g id="elem_GenerationResult"><rect codeLine="44" fill="#F1F1F1" height="171.3867" id="GenerationResult" rx="4.6875" ry="4.6875" style="stroke:#181818;stroke-width:0.9375;" width="343.125" x="146.25" y="345.9375"/><ellipse cx="217.2188" cy="385.9717" fill="#ADD1B2" rx="18.75" ry="18.75" style="stroke:#181818;stroke-width:1.875;"/><path d="M218.9766,379.6729 Q219.2109,379.3506 219.4746,379.2041 Q219.7383,379.0576 220.0605,379.0576 Q220.5879,379.0576 220.9248,379.4238 Q221.2617,379.79 221.2617,380.6689 L221.2617,382.749 Q221.2617,383.6279 220.9248,383.9941 Q220.5879,384.3604 220.0605,384.3604 Q219.5625,384.3604 219.2695,384.0967 Q218.9766,383.833 218.8301,383.0713 Q218.7422,382.5732 218.5078,382.3096 Q218.0098,381.7529 217.1309,381.4307 Q216.252,381.1084 215.373,381.1084 Q214.2891,381.1084 213.3662,381.5918 Q212.4434,382.0752 211.7402,383.1445 Q211.0371,384.2139 211.0371,385.6787 L211.0371,387.2607 Q211.0371,389.0186 212.3262,390.2051 Q213.6152,391.3916 215.8711,391.3916 Q217.248,391.3916 218.1855,391.0107 Q218.7129,390.8057 219.3281,390.1611 Q219.709,389.7803 219.9287,389.6777 Q220.1484,389.5752 220.4121,389.5752 Q220.9102,389.5752 221.2764,389.9414 Q221.6426,390.3076 221.6426,390.8057 Q221.6426,391.3037 221.1445,391.8896 Q220.4121,392.71 219.2695,393.1787 Q217.7461,393.8232 215.9004,393.8232 Q213.7324,393.8232 211.9746,392.9443 Q210.5684,392.2119 209.5869,390.6738 Q208.6055,389.1357 208.6055,387.3193 L208.6055,385.6494 Q208.6055,383.7451 209.499,382.1045 Q210.3926,380.4639 211.96,379.5703 Q213.5273,378.6768 215.2852,378.6768 Q216.3398,378.6768 217.2627,378.9258 Q218.1855,379.1748 218.9766,379.6729 Z " fill="#000000"/><text fill="#000000" font-family="sans-serif" font-size="24.375" font-style="italic" lengthAdjust="spacing" textLength="131.25" x="279.6562" y="380.6158">&#171;dataclass&#187;</text><text fill="#000000" font-family="sans-serif" font-size="24.375" lengthAdjust="spacing" textLength="187.5" x="251.5313" y="411.275">GenerationResult</text><line style="stroke:#181818;stroke-width:0.9375;" x1="148.125" x2="487.5" y1="426.0059" y2="426.0059"/><text fill="#000000" font-family="sans-serif" font-size="24.375" lengthAdjust="spacing" textLength="135" x="157.5" y="458.8092">+answer: str</text><text fill="#000000" font-family="sans-serif" font-size="24.375" lengthAdjust="spacing" textLength="320.625" x="157.5" y="489.4684">+uncertainty_notes: List&lt;str&gt;</text><line style="stroke:#181818;stroke-width:0.9375;" x1="148.125" x2="487.5" y1="502.3242" y2="502.3242"/></g><!--reverse link GroundedContextBundle to RetrievedContextBlock--><g id="link_GroundedContextBundle_RetrievedContextBlock"><path codeLine="49" d="M615.4688,923.7563 C709.3875,923.7563 787.1063,923.7563 862.3688,923.7563 " fill="none" id="GroundedContextBundle-backto-RetrievedContextBlock" style="stroke:#181818;stroke-width:1.875;"/><polygon fill="#181818" points="592.9688,923.7563,604.2188,931.2563,615.4688,923.7563,604.2188,916.2563,592.9688,923.7563" style="stroke:#181818;stroke-width:1.875;"/></g><!--link GroundedContextBundle to RetrievedContextBlock--><!--link GroundedAnswerGenerator to GuardrailPolicy--><g id="link_GroundedAnswerGenerator_GuardrailPolicy"><path codeLine="50" d="M533.625,606.5625 C579.3,606.5625 617.0813,606.5625 665.3813,606.5625 " fill="none" id="GroundedAnswerGenerator-to-GuardrailPolicy" style="stroke:#181818;stroke-width:1.875;"/><polygon fill="#181818" points="676.6313,606.5625,659.7563,599.0625,667.2563,606.5625,659.7563,614.0625,676.6313,606.5625" style="stroke:#181818;stroke-width:1.875;"/><text fill="#000000" font-family="sans-serif" font-size="24.375" lengthAdjust="spacing" textLength="93.75" x="606.9938" y="633.7408">beachtet</text></g><!--link GroundedAnswerGenerator to AnswerContract--><g id="link_GroundedAnswerGenerator_AnswerContract"><path codeLine="51" d="M523.125,581.8125 C523.125,525.1875 523.125,455.1563 523.125,455.1563 C523.125,455.1563 1070.775,455.1563 1361.1563,455.1563 " fill="none" id="GroundedAnswerGenerator-to-AnswerContract" style="stroke:#181818;stroke-width:1.875;"/><polygon fill="#181818" points="1372.4063,455.1563,1355.5313,447.6563,1363.0313,455.1563,1355.5313,462.6563,1372.4063,455.1563" style="stroke:#181818;stroke-width:1.875;"/><text fill="#000000" font-family="sans-serif" font-size="24.375" lengthAdjust="spacing" textLength="161.25" x="721.3125" y="448.5846">formatiert nach</text></g><!--link GroundedAnswerGenerator to GenerationRequest--><g id="link_GroundedAnswerGenerator_GenerationRequest"><path codeLine="52" d="M511.875,581.8313 C511.875,447.075 511.875,166.5562 511.875,166.5562 C511.875,166.5562 495.8438,166.5562 461.7188,166.5562 " fill="none" id="GroundedAnswerGenerator-to-GenerationRequest" style="stroke:#181818;stroke-width:1.875;"/><polygon fill="#181818" points="450.4688,166.5562,467.3438,174.0562,459.8438,166.5562,467.3438,159.0562,450.4688,166.5562" style="stroke:#181818;stroke-width:1.875;"/><text fill="#000000" font-family="sans-serif" font-size="24.375" lengthAdjust="spacing" textLength="110.625" x="513.75" y="370.6783">verarbeitet</text></g><!--link GenerationRequest to GroundedAnswerGenerator--><!--link GroundedAnswerGenerator to GroundedContextBundle--><g id="link_GroundedAnswerGenerator_GroundedContextBundle"><path codeLine="53" d="M247.5,723.3 C247.5,743.8688 247.5,755.4938 247.5,777.5625 " fill="none" id="GroundedAnswerGenerator-to-GroundedContextBundle" style="stroke:#181818;stroke-width:1.875;"/><polygon fill="#181818" points="247.5,788.8125,255,771.9375,247.5,779.4375,240,771.9375,247.5,788.8125" style="stroke:#181818;stroke-width:1.875;"/><text fill="#000000" font-family="sans-serif" font-size="24.375" lengthAdjust="spacing" textLength="54.375" x="191.25" y="749.4846">nutzt</text></g><!--link GroundedContextBundle to GroundedAnswerGenerator--><!--link GroundedAnswerGenerator to GenerationResult--><g id="link_GroundedAnswerGenerator_GenerationResult"><path codeLine="54" d="M260.625,581.8875 C260.625,561.15 260.625,549.4875 260.625,527.925 " fill="none" id="GroundedAnswerGenerator-to-GenerationResult" style="stroke:#181818;stroke-width:1.875;"/><polygon fill="#181818" points="260.625,516.675,253.125,533.55,260.625,526.05,268.125,533.55,260.625,516.675" style="stroke:#181818;stroke-width:1.875;"/><text fill="#000000" font-family="sans-serif" font-size="24.375" lengthAdjust="spacing" textLength="80.625" x="178.125" y="576.4596">erzeugt</text></g><!--link GroundedAnswerGenerator to GenerationResult--><!--link GuardrailPolicy to AnswerContract--><!--SRC=[bLHTQzj047pNhrZorBGLDAI58e8XRMae3QKaZt4nbxkrVFYyfzojdDWb_xqhoHQofDJapRSVCxCxQyMbfK85jOAuKCO_MifXhbp49BOPxLICbyp1tfUCFxIdMxj5-D0fAPHUgXnlUUCG0cfMbBikXhE4l2aGVE25xoHCOU7iSnShA5f6BE3ZfqwGlC4gUDuDViEvAXr_zyIrehFpnE6SWJq4coyOZAsqM4z9ibC89rT862o6alAOGabcIjTekN12YvJ-zAl24nBZ2VnDe1aUwYPL8TtWGucHuUB2A5PrTZAfAm7UrIafoY1oQ4Bun47DP6Sil_RnvwH5FhaANaIW-TgKJEcBF9smAw4zp3MPSMfSY-O-ZyG3Yc-ID3EzA6Mn6LpRo1St-_0UsdczdFIazOj4MrLMIni569TM6Pg19MwUOf_f22IrmiupQX_aFNTUxUfVMDnLgO89ohhVtbczQVT0SnyqlWdua0rjEns9DNrhvQnehngZtDHXNHMHrbzo68SYBYa-OgXM49JcTc01biipizXSttxfCiFa1VSRe2djM7quyB_9jhazJzu4wc7VW-Qdqw7itj9wsN73L4tNCQKaZO6LMBYPaMSS6sZyLj-cyb6XTFnSEbtz2TDqCd0uWtjKUi78HnfxhiWr-R2IgMK6844unZluisUmbaYub-_4KVBnFMH09M_v5SorFHbWs6APSxtXWQxqRc6DGVfJV-uwv3tm5-rv3K3FZRQrDhY_zFyDEk0SdkmHjJlAyQDwJlu1]--></g></svg>