<?xml version="1.0" encoding="us-ascii" standalone="no"?><svg xmlns="http://www.w3.org/2000/svg" xmlns:xlink="http://www.w3.org/1999/xlink" contentStyleType="text/css" height="918px" preserveAspectRatio="none" style="width:842px;height:918px;background:#FFFFFF;" version="1.1" viewBox="0 0 842 918" width="842px" zoomAndPan="magnify"><defs/><g><text fill="#000000" font-family="sans-serif" font-size="14" font-weight="bold" lengthAdjust="spacing" textLength="235" x="305" y="29.5332">ExcH-RAG-Agent - Initiale Anfrage</text><text fill="#000000" font-family="sans-serif" font-size="14" font-weight="bold" lengthAdjust="spacing" textLength="84" x="380.5" y="47.1426">Teil 1 von 6:</text><text fill="#000000" font-family="sans-serif" font-size="14" font-weight="bold" lengthAdjust="spacing" textLength="203" x="321" y="64.752">Sitzungs- und Kontextaufbau</text><rect fill="#FFFFFF" height="670.3594" style="stroke:#181818;stroke-width:1.0;" width="10" x="277" y="222.75"/><rect fill="#FFFFFF" height="340.0859" style="stroke:#181818;stroke-width:1.0;" width="10" x="412" y="553.0234"/><rect fill="#FFFFFF" height="185.8125" style="stroke:#181818;stroke-width:1.0;" width="10" x="518" y="599.7266"/><rect fill="none" height="157.4609" style="stroke:#000000;stroke-width:1.5;" width="320" x="70" y="268.1016"/><line style="stroke:#181818;stroke-width:0.5;stroke-dasharray:5.0,5.0;" x1="37" x2="37" y1="174.0469" y2="911.1094"/><line style="stroke:#181818;stroke-width:0.5;stroke-dasharray:5.0,5.0;" x1="133" x2="133" y1="174.0469" y2="911.1094"/><line style="stroke:#181818;stroke-width:0.5;stroke-dasharray:5.0,5.0;" x1="281.5" x2="281.5" y1="174.0469" y2="911.1094"/><line style="stroke:#181818;stroke-width:0.5;stroke-dasharray:5.0,5.0;" x1="417" x2="417" y1="174.0469" y2="911.1094"/><line style="stroke:#181818;stroke-width:0.5;stroke-dasharray:5.0,5.0;" x1="523" x2="523" y1="174.0469" y2="911.1094"/><line style="stroke:#181818;stroke-width:0.5;stroke-dasharray:5.0,5.0;" x1="716" x2="716" y1="733.4844" y2="911.1094"/><line style="stroke:#181818;stroke-width:0.5;stroke-dasharray:5.0,5.0;" x1="804" x2="804" y1="842.1484" y2="911.1094"/><text fill="#000000" font-family="sans-serif" font-size="14" lengthAdjust="spacing" textLength="59" x="5" y="153.3613">Nutzende</text><text fill="#000000" font-family="sans-serif" font-size="14" lengthAdjust="spacing" textLength="44" x="12.5" y="170.9707">Instanz</text><ellipse cx="37.5" cy="87.3281" fill="#E2E2F0" rx="8" ry="8" style="stroke:#181818;stroke-width:0.5;"/><path d="M37.5,95.3281 L37.5,122.3281 M24.5,103.3281 L50.5,103.3281 M37.5,122.3281 L24.5,137.3281 M37.5,122.3281 L50.5,137.3281 " fill="none" style="stroke:#181818;stroke-width:0.5;"/><rect fill="#E2E2F0" height="31.6094" style="stroke:#181818;stroke-width:0.5;" width="102" x="84" y="137.4375"/><rect fill="#E2E2F0" height="31.6094" style="stroke:#181818;stroke-width:0.5;" width="102" x="80" y="141.4375"/><text fill="#000000" font-family="sans-serif" font-size="14" lengthAdjust="spacing" textLength="88" x="87" y="162.9707">RuntimeEvent</text><text fill="#000000" font-family="sans-serif" font-size="14" lengthAdjust="spacing" textLength="63" x="247.5" y="153.3613">RagAgent</text><text fill="#000000" font-family="sans-serif" font-size="14" lengthAdjust="spacing" textLength="12" x="273" y="170.9707">UI</text><path d="M261.5,110.8281 L261.5,134.8281 M261.5,122.8281 L278.5,122.8281 " fill="none" style="stroke:#181818;stroke-width:0.5;"/><ellipse cx="290.5" cy="122.8281" fill="#E2E2F0" rx="12" ry="12" style="stroke:#181818;stroke-width:0.5;"/><text fill="#000000" font-family="sans-serif" font-size="14" lengthAdjust="spacing" textLength="76" x="376" y="153.3613">RagSession</text><text fill="#000000" font-family="sans-serif" font-size="14" lengthAdjust="spacing" textLength="44" x="392" y="170.9707">Builder</text><ellipse cx="417" cy="122.8281" fill="#E2E2F0" rx="12" ry="12" style="stroke:#181818;stroke-width:0.5;"/><polygon fill="#181818" points="413,110.8281,419,105.8281,417,110.8281,419,115.8281,413,110.8281" style="stroke:#181818;stroke-width:1.0;"/><text fill="#000000" font-family="sans-serif" font-size="14" lengthAdjust="spacing" textLength="48" x="496" y="153.3613">Context</text><text fill="#000000" font-family="sans-serif" font-size="14" lengthAdjust="spacing" textLength="66" x="487" y="170.9707">Interpreter</text><ellipse cx="523" cy="122.8281" fill="#E2E2F0" rx="12" ry="12" style="stroke:#181818;stroke-width:0.5;"/><polygon fill="#181818" points="519,110.8281,525,105.8281,523,110.8281,525,115.8281,519,110.8281" style="stroke:#181818;stroke-width:1.0;"/><rect fill="#FFFFFF" height="670.3594" style="stroke:#181818;stroke-width:1.0;" width="10" x="277" y="222.75"/><rect fill="#FFFFFF" height="340.0859" style="stroke:#181818;stroke-width:1.0;" width="10" x="412" y="553.0234"/><rect fill="#FFFFFF" height="185.8125" style="stroke:#181818;stroke-width:1.0;" width="10" x="518" y="599.7266"/><polygon fill="#181818" points="265,218.75,275,222.75,265,226.75,269,222.75" style="stroke:#181818;stroke-width:1.0;"/><line style="stroke:#181818;stroke-width:1.0;" x1="37.5" x2="271" y1="222.75" y2="222.75"/><text fill="#000000" font-family="sans-serif" font-size="13" font-weight="bold" lengthAdjust="spacing" textLength="7" x="109.25" y="209.7178">1</text><text fill="#000000" font-family="sans-serif" font-size="13" lengthAdjust="spacing" textLength="85" x="120.25" y="201.542">start_analysis(</text><text fill="#000000" font-family="sans-serif" font-size="13" lengthAdjust="spacing" textLength="34" x="145.75" y="217.8936">event)</text><polygon fill="#181818" points="144,249.1016,134,253.1016,144,257.1016,140,253.1016" style="stroke:#181818;stroke-width:1.0;"/><line style="stroke:#181818;stroke-width:1.0;" x1="138" x2="276" y1="253.1016" y2="253.1016"/><text fill="#000000" font-family="sans-serif" font-size="13" font-weight="bold" lengthAdjust="spacing" textLength="7" x="145" y="248.2451">2</text><text fill="#000000" font-family="sans-serif" font-size="13" lengthAdjust="spacing" textLength="109" x="156" y="248.2451">lese Fehlerereignis</text><path d="M70,268.1016 L135,268.1016 L135,276.4531 L125,286.4531 L70,286.4531 L70,268.1016 " fill="#EEEEEE" style="stroke:#000000;stroke-width:1.5;"/><rect fill="none" height="157.4609" style="stroke:#000000;stroke-width:1.5;" width="320" x="70" y="268.1016"/><text fill="#000000" font-family="sans-serif" font-size="13" font-weight="bold" lengthAdjust="spacing" textLength="20" x="85" y="282.5967">opt</text><text fill="#000000" font-family="sans-serif" font-size="11" font-weight="bold" lengthAdjust="spacing" textLength="135" x="150" y="281.5205">[PipelineConfig.enabled]</text><line style="stroke:#181818;stroke-width:1.0;" x1="287" x2="329" y1="341.5078" y2="341.5078"/><line style="stroke:#181818;stroke-width:1.0;" x1="329" x2="329" y1="341.5078" y2="354.5078"/><line style="stroke:#181818;stroke-width:1.0;" x1="288" x2="329" y1="354.5078" y2="354.5078"/><polygon fill="#181818" points="298,350.5078,288,354.5078,298,358.5078,294,354.5078" style="stroke:#181818;stroke-width:1.0;"/><text fill="#000000" font-family="sans-serif" font-size="13" font-weight="bold" lengthAdjust="spacing" textLength="7" x="294" y="320.2998">3</text><text fill="#000000" font-family="sans-serif" font-size="13" lengthAdjust="spacing" textLength="73" x="305" y="303.9482">run_pipeline(</text><text fill="#000000" font-family="sans-serif" font-size="13" lengthAdjust="spacing" textLength="69" x="307" y="320.2998">cfg.pipeline,</text><text fill="#000000" font-family="sans-serif" font-size="13" lengthAdjust="spacing" textLength="34" x="324.5" y="336.6514">event)</text><polygon fill="#181818" points="144,413.5625,134,417.5625,144,421.5625,140,417.5625" style="stroke:#181818;stroke-width:1.0;"/><line style="stroke:#181818;stroke-width:1.0;" x1="138" x2="276" y1="417.5625" y2="417.5625"/><text fill="#000000" font-family="sans-serif" font-size="13" font-weight="bold" lengthAdjust="spacing" textLength="7" x="149" y="396.3545">4</text><text fill="#000000" font-family="sans-serif" font-size="13" lengthAdjust="spacing" textLength="101" x="160" y="380.0029">payload.plcopen_</text><text fill="#000000" font-family="sans-serif" font-size="13" lengthAdjust="spacing" textLength="53" x="184" y="396.3545">xml_path</text><text fill="#000000" font-family="sans-serif" font-size="13" lengthAdjust="spacing" textLength="73" x="174" y="412.7061">aktualisieren</text><polygon fill="#181818" points="400,549.0234,410,553.0234,400,557.0234,404,553.0234" style="stroke:#181818;stroke-width:1.0;"/><line style="stroke:#181818;stroke-width:1.0;" x1="287" x2="406" y1="553.0234" y2="553.0234"/><text fill="#000000" font-family="sans-serif" font-size="13" font-weight="bold" lengthAdjust="spacing" textLength="7" x="301" y="499.1123">5</text><text fill="#000000" font-family="sans-serif" font-size="13" lengthAdjust="spacing" textLength="86" x="312" y="450.0576">build_session_</text><text fill="#000000" font-family="sans-serif" font-size="13" lengthAdjust="spacing" textLength="64" x="323" y="466.4092">from_input(</text><text fill="#000000" font-family="sans-serif" font-size="13" lengthAdjust="spacing" textLength="34" x="338" y="482.7607">event,</text><text fill="#000000" font-family="sans-serif" font-size="13" lengthAdjust="spacing" textLength="57" x="326.5" y="499.1123">xml_path,</text><text fill="#000000" font-family="sans-serif" font-size="13" lengthAdjust="spacing" textLength="39" x="335.5" y="515.4639">model,</text><text fill="#000000" font-family="sans-serif" font-size="13" lengthAdjust="spacing" textLength="73" x="318.5" y="531.8154">temperature,</text><text fill="#000000" font-family="sans-serif" font-size="13" lengthAdjust="spacing" textLength="36" x="337" y="548.167">top_k)</text><polygon fill="#181818" points="506,595.7266,516,599.7266,506,603.7266,510,599.7266" style="stroke:#181818;stroke-width:1.0;"/><line style="stroke:#181818;stroke-width:1.0;" x1="422" x2="512" y1="599.7266" y2="599.7266"/><text fill="#000000" font-family="sans-serif" font-size="13" font-weight="bold" lengthAdjust="spacing" textLength="7" x="431.5" y="586.6943">6</text><text fill="#000000" font-family="sans-serif" font-size="13" lengthAdjust="spacing" textLength="66" x="442.5" y="578.5186">from_event(</text><text fill="#000000" font-family="sans-serif" font-size="13" lengthAdjust="spacing" textLength="34" x="458.5" y="594.8701">event)</text><line style="stroke:#181818;stroke-width:1.0;" x1="528" x2="570" y1="662.7813" y2="662.7813"/><line style="stroke:#181818;stroke-width:1.0;" x1="570" x2="570" y1="662.7813" y2="675.7813"/><line style="stroke:#181818;stroke-width:1.0;" x1="529" x2="570" y1="675.7813" y2="675.7813"/><polygon fill="#181818" points="539,671.7813,529,675.7813,539,679.7813,535,675.7813" style="stroke:#181818;stroke-width:1.0;"/><text fill="#000000" font-family="sans-serif" font-size="13" font-weight="bold" lengthAdjust="spacing" textLength="7" x="535" y="641.5732">7</text><text fill="#000000" font-family="sans-serif" font-size="13" lengthAdjust="spacing" textLength="47" x="551" y="625.2217">extract_</text><text fill="#000000" font-family="sans-serif" font-size="13" lengthAdjust="spacing" textLength="57" x="546" y="641.5732">snapshot(</text><text fill="#000000" font-family="sans-serif" font-size="13" lengthAdjust="spacing" textLength="34" x="557.5" y="657.9248">event)</text><polygon fill="#181818" points="664,751.1875,674,755.1875,664,759.1875,668,755.1875" style="stroke:#181818;stroke-width:1.0;"/><line style="stroke:#181818;stroke-width:1.0;" x1="528" x2="670" y1="755.1875" y2="755.1875"/><text fill="#000000" font-family="sans-serif" font-size="13" font-weight="bold" lengthAdjust="spacing" textLength="7" x="540" y="725.8037">8</text><text fill="#000000" font-family="sans-serif" font-size="13" lengthAdjust="spacing" textLength="36" x="589.5" y="701.2764">create</text><text fill="#000000" font-family="sans-serif" font-size="13" lengthAdjust="spacing" textLength="113" x="551" y="717.6279">RagIncidentContext</text><text fill="#000000" font-family="sans-serif" font-size="13" lengthAdjust="spacing" textLength="8" x="603.5" y="733.9795">+</text><text fill="#000000" font-family="sans-serif" font-size="13" lengthAdjust="spacing" textLength="103" x="556" y="750.3311">RuntimeSnapshot</text><text fill="#000000" font-family="sans-serif" font-size="14" lengthAdjust="spacing" textLength="75" x="676" y="732.502">RagIncident</text><text fill="#000000" font-family="sans-serif" font-size="14" lengthAdjust="spacing" textLength="48" x="689.5" y="750.1113">Context</text><ellipse cx="716.5" cy="701.9688" fill="#E2E2F0" rx="12" ry="12" style="stroke:#181818;stroke-width:0.5;"/><line style="stroke:#181818;stroke-width:0.5;" x1="704.5" x2="728.5" y1="715.9688" y2="715.9688"/><polygon fill="#181818" points="433,781.5391,423,785.5391,433,789.5391,429,785.5391" style="stroke:#181818;stroke-width:1.0;"/><line style="stroke:#181818;stroke-width:1.0;stroke-dasharray:2.0,2.0;" x1="427" x2="522" y1="785.5391" y2="785.5391"/><text fill="#000000" font-family="sans-serif" font-size="13" font-weight="bold" lengthAdjust="spacing" textLength="7" x="458" y="780.6826">9</text><text fill="#000000" font-family="sans-serif" font-size="13" lengthAdjust="spacing" textLength="18" x="469" y="780.6826">ctx</text><polygon fill="#181818" points="755,844.5938,765,848.5938,755,852.5938,759,848.5938" style="stroke:#181818;stroke-width:1.0;"/><line style="stroke:#181818;stroke-width:1.0;" x1="422" x2="761" y1="848.5938" y2="848.5938"/><text fill="#000000" font-family="sans-serif" font-size="13" font-weight="bold" lengthAdjust="spacing" textLength="14" x="565.5" y="827.3857">10</text><text fill="#000000" font-family="sans-serif" font-size="13" lengthAdjust="spacing" textLength="40" x="583.5" y="811.0342">create(</text><text fill="#000000" font-family="sans-serif" font-size="13" lengthAdjust="spacing" textLength="22" x="592.5" y="827.3857">ctx,</text><text fill="#000000" font-family="sans-serif" font-size="13" lengthAdjust="spacing" textLength="38" x="584.5" y="843.7373">config)</text><text fill="#000000" font-family="sans-serif" font-size="14" lengthAdjust="spacing" textLength="68" x="767" y="840.0723">SimpleRag</text><text fill="#000000" font-family="sans-serif" font-size="14" lengthAdjust="spacing" textLength="50" x="776" y="857.6816">Session</text><ellipse cx="804" cy="809.5391" fill="#E2E2F0" rx="12" ry="12" style="stroke:#181818;stroke-width:0.5;"/><polygon fill="#181818" points="800,797.5391,806,792.5391,804,797.5391,806,802.5391,800,797.5391" style="stroke:#181818;stroke-width:1.0;"/><polygon fill="#181818" points="293,889.1094,283,893.1094,293,897.1094,289,893.1094" style="stroke:#181818;stroke-width:1.0;"/><line style="stroke:#181818;stroke-width:1.0;stroke-dasharray:2.0,2.0;" x1="287" x2="416" y1="893.1094" y2="893.1094"/><text fill="#000000" font-family="sans-serif" font-size="13" font-weight="bold" lengthAdjust="spacing" textLength="14" x="299" y="888.2529">11</text><text fill="#000000" font-family="sans-serif" font-size="13" lengthAdjust="spacing" textLength="83" x="317" y="888.2529">Session bereit</text><!--SRC=[RL9DRzim3BthLmWzhLWJO9STUXYG5jqM31k6PhqPC6YRTeJ8b2PHQTfVF_f3YLiCEOIctkCZ7naFXZm4w7NSG-EU3NMw1HjHnVDBmEWTHVo9CKA7TsZTyoO4zwmvf2Kmuj-4L6VWnfgET8t46DJUDAXRvxXo9mM97QM-ahnYmnRrmwd-ldhSV5jjEi7hbTwIOGFoig4sIB62_g2n-fC-EjAVRmlQ6NvDrCMLJjJe7qvKJWofhI0f1JMxeAz-9Nv5QeIyfSX0hrSQedwAebixQx5c8uFfgyT4R7fyE8hs21aZLJaf3U550D2DZHNqj9rgRAK2SN1sVDp9n5AgeBjaR8DXnCpn1NW_DJbq8vRuW3mZx_aaAIK2XYUrBTLYs20uapBkKcrdUczHiEB593zYvbYfOKoz-YAjwbijqmSkWS2-H1C_58J3XDU3KUO8ZCD00XJuEBemB4RKNt5lCSXFDccYKiwp_cqyMaCeZRMcMoD1PR5HMa_yKIuaAlsC4x6wxTRvy-QidHbPqSEBTT2ilQsTHoeBElMszC3xWk302Qo9HdeXCQfHSxkpoKAlXgYCq_X2ReFhIpdDn7dScqj52NlNe9L_njvZ04vXw8sTBmyBN_8Iiuv8JjiInL5XhFmVG-UTpk0bJROP12OjHW8Vzsv1hmFEvBTCeKrF1IskutnG7oKztV1kBdccl_6ebheDlkyng-RJMSmwfyxompBv93xLu_QlBzYy-ioeXglXfLgsSf6Ig_i7]--></g></svg>