<?xml version="1.0" encoding="us-ascii" standalone="no"?><svg xmlns="http://www.w3.org/2000/svg" xmlns:xlink="http://www.w3.org/1999/xlink" contentStyleType="text/css" height="434px" preserveAspectRatio="none" style="width:584px;height:434px;background:#FFFFFF;" version="1.1" viewBox="0 0 584 434" width="584px" zoomAndPan="magnify"><defs/><g><text fill="#000000" font-family="sans-serif" font-size="14" font-weight="bold" lengthAdjust="spacing" textLength="226" x="180.5" y="29.5332">ExcH-KG-Agent - Initiale Anfrage</text><text fill="#000000" font-family="sans-serif" font-size="14" font-weight="bold" lengthAdjust="spacing" textLength="84" x="251.5" y="47.1426">Teil 4 von 6:</text><text fill="#000000" font-family="sans-serif" font-size="14" font-weight="bold" lengthAdjust="spacing" textLength="131" x="228" y="64.752">Bootstrap-Planung</text><rect fill="#FFFFFF" height="214.9766" style="stroke:#181818;stroke-width:1.0;" width="10" x="229" y="194.75"/><rect fill="#FFFFFF" height="107.5703" style="stroke:#181818;stroke-width:1.0;" width="10" x="350" y="241.4531"/><line style="stroke:#181818;stroke-width:0.5;stroke-dasharray:5.0,5.0;" x1="42" x2="42" y1="146.0469" y2="427.7266"/><line style="stroke:#181818;stroke-width:0.5;stroke-dasharray:5.0,5.0;" x1="234" x2="234" y1="146.0469" y2="427.7266"/><line style="stroke:#181818;stroke-width:0.5;stroke-dasharray:5.0,5.0;" x1="354.5" x2="354.5" y1="146.0469" y2="427.7266"/><line style="stroke:#181818;stroke-width:0.5;stroke-dasharray:5.0,5.0;" x1="488" x2="488" y1="298.0625" y2="427.7266"/><line style="stroke:#181818;stroke-width:0.5;stroke-dasharray:5.0,5.0;" x1="555" x2="555" y1="146.0469" y2="427.7266"/><text fill="#000000" font-family="sans-serif" font-size="14" lengthAdjust="spacing" textLength="68" x="5" y="125.3613">ExcHAgent</text><text fill="#000000" font-family="sans-serif" font-size="14" lengthAdjust="spacing" textLength="12" x="33" y="142.9707">UI</text><path d="M21.5,82.8281 L21.5,106.8281 M21.5,94.8281 L38.5,94.8281 " fill="none" style="stroke:#181818;stroke-width:0.5;"/><ellipse cx="50.5" cy="94.8281" fill="#E2E2F0" rx="12" ry="12" style="stroke:#181818;stroke-width:0.5;"/><text fill="#000000" font-family="sans-serif" font-size="14" lengthAdjust="spacing" textLength="82" x="190" y="125.3613">ExcHChatBot</text><text fill="#000000" font-family="sans-serif" font-size="14" lengthAdjust="spacing" textLength="50" x="206" y="142.9707">Session</text><ellipse cx="234" cy="94.8281" fill="#E2E2F0" rx="12" ry="12" style="stroke:#181818;stroke-width:0.5;"/><polygon fill="#181818" points="230,82.8281,236,77.8281,234,82.8281,236,87.8281,230,82.8281" style="stroke:#181818;stroke-width:1.0;"/><text fill="#000000" font-family="sans-serif" font-size="14" lengthAdjust="spacing" textLength="49" x="327.5" y="142.9707">Planner</text><ellipse cx="355" cy="112.4375" fill="#E2E2F0" rx="12" ry="12" style="stroke:#181818;stroke-width:0.5;"/><polygon fill="#181818" points="351,100.4375,357,95.4375,355,100.4375,357,105.4375,351,100.4375" style="stroke:#181818;stroke-width:1.0;"/><text fill="#000000" font-family="sans-serif" font-size="14" lengthAdjust="spacing" textLength="50" x="527" y="125.3613">Session</text><text fill="#000000" font-family="sans-serif" font-size="14" lengthAdjust="spacing" textLength="50" x="527" y="142.9707">Memory</text><ellipse cx="555" cy="94.8281" fill="#E2E2F0" rx="12" ry="12" style="stroke:#181818;stroke-width:0.5;"/><line style="stroke:#181818;stroke-width:0.5;" x1="543" x2="567" y1="108.8281" y2="108.8281"/><rect fill="#FFFFFF" height="214.9766" style="stroke:#181818;stroke-width:1.0;" width="10" x="229" y="194.75"/><rect fill="#FFFFFF" height="107.5703" style="stroke:#181818;stroke-width:1.0;" width="10" x="350" y="241.4531"/><polygon fill="#181818" points="217,190.75,227,194.75,217,198.75,221,194.75" style="stroke:#181818;stroke-width:1.0;"/><line style="stroke:#181818;stroke-width:1.0;" x1="42" x2="223" y1="194.75" y2="194.75"/><text fill="#000000" font-family="sans-serif" font-size="13" font-weight="bold" lengthAdjust="spacing" textLength="7" x="76.5" y="181.7178">1</text><text fill="#000000" font-family="sans-serif" font-size="13" lengthAdjust="spacing" textLength="107" x="87.5" y="173.542">ensure_bootstrap_</text><text fill="#000000" font-family="sans-serif" font-size="13" lengthAdjust="spacing" textLength="32" x="125" y="189.8936">plan()</text><polygon fill="#181818" points="338,237.4531,348,241.4531,338,245.4531,342,241.4531" style="stroke:#181818;stroke-width:1.0;"/><line style="stroke:#181818;stroke-width:1.0;" x1="239" x2="344" y1="241.4531" y2="241.4531"/><text fill="#000000" font-family="sans-serif" font-size="13" font-weight="bold" lengthAdjust="spacing" textLength="7" x="275" y="228.4209">2</text><text fill="#000000" font-family="sans-serif" font-size="13" lengthAdjust="spacing" textLength="28" x="286" y="220.2451">plan(</text><text fill="#000000" font-family="sans-serif" font-size="13" lengthAdjust="spacing" textLength="22" x="289" y="236.5967">ctx)</text><polygon fill="#181818" points="447,300.5078,457,304.5078,447,308.5078,451,304.5078" style="stroke:#181818;stroke-width:1.0;"/><line style="stroke:#181818;stroke-width:1.0;" x1="360" x2="453" y1="304.5078" y2="304.5078"/><text fill="#000000" font-family="sans-serif" font-size="13" font-weight="bold" lengthAdjust="spacing" textLength="7" x="372" y="283.2998">3</text><text fill="#000000" font-family="sans-serif" font-size="13" lengthAdjust="spacing" textLength="64" x="383" y="266.9482">create goal</text><text fill="#000000" font-family="sans-serif" font-size="13" lengthAdjust="spacing" textLength="8" x="411" y="283.2998">+</text><text fill="#000000" font-family="sans-serif" font-size="13" lengthAdjust="spacing" textLength="61" x="384.5" y="299.6514">PlanStep[]</text><text fill="#000000" font-family="sans-serif" font-size="14" lengthAdjust="spacing" textLength="52" x="459" y="295.9863">Analysis</text><text fill="#000000" font-family="sans-serif" font-size="14" lengthAdjust="spacing" textLength="28" x="471" y="313.5957">Plan</text><ellipse cx="488" cy="265.4531" fill="#E2E2F0" rx="12" ry="12" style="stroke:#181818;stroke-width:0.5;"/><line style="stroke:#181818;stroke-width:0.5;" x1="476" x2="500" y1="279.4531" y2="279.4531"/><polygon fill="#181818" points="250,345.0234,240,349.0234,250,353.0234,246,349.0234" style="stroke:#181818;stroke-width:1.0;"/><line style="stroke:#181818;stroke-width:1.0;stroke-dasharray:2.0,2.0;" x1="244" x2="354" y1="349.0234" y2="349.0234"/><text fill="#000000" font-family="sans-serif" font-size="13" font-weight="bold" lengthAdjust="spacing" textLength="7" x="253.5" y="344.167">4</text><text fill="#000000" font-family="sans-serif" font-size="13" lengthAdjust="spacing" textLength="76" x="264.5" y="344.167">AnalysisPlan</text><polygon fill="#181818" points="543,375.375,553,379.375,543,383.375,547,379.375" style="stroke:#181818;stroke-width:1.0;"/><line style="stroke:#181818;stroke-width:1.0;" x1="239" x2="549" y1="379.375" y2="379.375"/><text fill="#000000" font-family="sans-serif" font-size="13" font-weight="bold" lengthAdjust="spacing" textLength="7" x="319" y="374.5186">5</text><text fill="#000000" font-family="sans-serif" font-size="13" lengthAdjust="spacing" textLength="145" x="330" y="374.5186">speichere bootstrap_plan</text><polygon fill="#181818" points="53,405.7266,43,409.7266,53,413.7266,49,409.7266" style="stroke:#181818;stroke-width:1.0;"/><line style="stroke:#181818;stroke-width:1.0;stroke-dasharray:2.0,2.0;" x1="47" x2="233" y1="409.7266" y2="409.7266"/><text fill="#000000" font-family="sans-serif" font-size="13" font-weight="bold" lengthAdjust="spacing" textLength="7" x="56.5" y="404.8701">6</text><text fill="#000000" font-family="sans-serif" font-size="13" lengthAdjust="spacing" textLength="152" x="67.5" y="404.8701">initialer Analyseplan bereit</text><!--SRC=[PP9BJyCm48Jl_XMhda0eDyIX1wGK8OXG9QJI4qQLasuJ2tSTRAUFVy_cuII8cvFvPdRMYV_ML2kdZk0hjRTdJIKSbF4e_AWuzBKbZslqNfMuGcFFgNFs3C4rSz3ZJuDKH30rkYGea08wKUazmi7QaDkBK4smr1npVY-23WRX-LAy9cylILeo3Wbaf8DMBAHqS9mbwGErWNiuMOA7fQGLH_dWL9sy6qKDbKBajg6zSbTOj6bTagHjjW3bOPk9mb9mrlJgKwN2ohA-uQxQKWSDvubiembT9mvdmQawy8oKbBbwxIMroeYC-X0cQOr7wwuTq1-5s6QGFCPni0GatpZSvN6ddQIQisvkXIg2Fgc0OxTeOl_GYFqTBAa8bvaZ5YuSnaSHBOERhODQMcKatVNBR0BMdryJ_AThtBlBs-E_SVE6_RviyZNgeaA7CEtObfvWflbMbg273- -6GTXYm7yAwZ0V5-_Z5m00]--></g></svg>