<?xml version="1.0" encoding="us-ascii" standalone="no"?><svg xmlns="http://www.w3.org/2000/svg" xmlns:xlink="http://www.w3.org/1999/xlink" contentStyleType="text/css" height="522px" preserveAspectRatio="none" style="width:551px;height:522px;background:#FFFFFF;" version="1.1" viewBox="0 0 551 522" width="551px" zoomAndPan="magnify"><defs/><g><!--cluster Exception-Handling-Agent--><g id="cluster_Exception-Handling-Agent"><rect fill="none" height="441" rx="2.5" ry="2.5" style="stroke:#181818;stroke-width:1.0;" width="284" x="261" y="7"/><text fill="#000000" font-family="sans-serif" font-size="14" font-weight="bold" lengthAdjust="spacing" textLength="183" x="311.5" y="23.5332">Exception-Handling-Agent</text></g><g id="elem_UC4"><ellipse cx="402.93" cy="282.8551" fill="#F1F1F1" rx="115.43" ry="40.3551" style="stroke:#181818;stroke-width:0.5;"/><text fill="#000000" font-family="sans-serif" font-size="14" lengthAdjust="spacing" textLength="104" x="350.93" y="268.9743">Fragen aus dem</text><text fill="#000000" font-family="sans-serif" font-size="14" lengthAdjust="spacing" textLength="147" x="329.43" y="286.5836">FMEA-Wissensbestand</text><text fill="#000000" font-family="sans-serif" font-size="14" lengthAdjust="spacing" textLength="78" x="363.93" y="304.193">beantworten</text></g><g id="elem_UC4a"><ellipse cx="402.8295" cy="70.9034" fill="#F1F1F1" rx="125.3295" ry="27.9034" style="stroke:#181818;stroke-width:0.5;"/><text fill="#000000" font-family="sans-serif" font-size="14" lengthAdjust="spacing" textLength="117" x="344.3295" y="65.8272">Nat&#252;rlichsprachige</text><text fill="#000000" font-family="sans-serif" font-size="14" lengthAdjust="spacing" textLength="161" x="322.3295" y="83.4366">Fragen entgegennehmen</text></g><g id="elem_UC4b"><ellipse cx="403.0366" cy="403.9034" fill="#F1F1F1" rx="126.0366" ry="27.9034" style="stroke:#181818;stroke-width:0.5;"/><text fill="#000000" font-family="sans-serif" font-size="14" lengthAdjust="spacing" textLength="98" x="354.0366" y="398.8272">Fragen auf den</text><text fill="#000000" font-family="sans-serif" font-size="14" lengthAdjust="spacing" textLength="162" x="322.0366" y="416.4366">Wissensbestand abbilden</text></g><g id="elem_UC4c"><ellipse cx="402.9655" cy="161.9034" fill="#F1F1F1" rx="118.9655" ry="27.9034" style="stroke:#181818;stroke-width:0.5;"/><text fill="#000000" font-family="sans-serif" font-size="14" lengthAdjust="spacing" textLength="123" x="341.4655" y="156.8272">Ergebnisse fachlich</text><text fill="#000000" font-family="sans-serif" font-size="14" lengthAdjust="spacing" textLength="152" x="326.9655" y="174.4366">verst&#228;ndlich aufbereiten</text></g><!--entity FMEA--><g id="elem_FMEA"><ellipse cx="82.5" cy="144.5" fill="#F1F1F1" rx="8" ry="8" style="stroke:#181818;stroke-width:0.5;"/><path d="M82.5,152.5 L82.5,179.5 M69.5,160.5 L95.5,160.5 M82.5,179.5 L69.5,194.5 M82.5,179.5 L95.5,194.5 " fill="none" style="stroke:#181818;stroke-width:0.5;"/><text fill="#000000" font-family="sans-serif" font-size="14" lengthAdjust="spacing" textLength="79" x="43" y="210.5332">FMEA-Team</text></g><!--entity PE--><g id="elem_PE"><ellipse cx="82.5" cy="257.5" fill="#F1F1F1" rx="8" ry="8" style="stroke:#181818;stroke-width:0.5;"/><path d="M82.5,265.5 L82.5,292.5 M69.5,273.5 L95.5,273.5 M82.5,292.5 L69.5,307.5 M82.5,292.5 L95.5,307.5 " fill="none" style="stroke:#181818;stroke-width:0.5;"/><text fill="#000000" font-family="sans-serif" font-size="14" lengthAdjust="spacing" textLength="109" x="28" y="323.5332">Prozessingenieur</text></g><!--entity KG--><g id="elem_KG"><rect fill="#F1F1F1" height="55.2188" rx="2.5" ry="2.5" style="stroke:#181818;stroke-width:0.5;" width="110" x="27.5" y="371.5"/><text fill="#000000" font-family="sans-serif" font-size="14" font-style="italic" lengthAdjust="spacing" textLength="62" x="51.5" y="396.0332">&#171;System&#187;</text><text fill="#000000" font-family="sans-serif" font-size="14" lengthAdjust="spacing" textLength="90" x="37.5" y="413.6426">Wissensgraph</text></g><!--entity DOC--><g id="elem_DOC"><rect fill="#F1F1F1" height="55.2188" rx="2.5" ry="2.5" style="stroke:#181818;stroke-width:0.5;" width="151" x="7" y="461.5"/><text fill="#000000" font-family="sans-serif" font-size="14" font-style="italic" lengthAdjust="spacing" textLength="62" x="51.5" y="486.0332">&#171;System&#187;</text><text fill="#000000" font-family="sans-serif" font-size="14" lengthAdjust="spacing" textLength="131" x="17" y="503.6426">Dokumentenbestand</text></g><!--link FMEA to UC4--><g id="link_FMEA_UC4"><path d="M122.24,188.13 C170.89,204.63 250.0178,231.4631 313.5378,253.0031 " fill="none" id="FMEA-to-UC4" style="stroke:#181818;stroke-width:1.0;"/><polygon fill="#181818" points="319.22,254.93,311.9813,248.2516,314.4848,253.3243,309.4122,255.8278,319.22,254.93" style="stroke:#181818;stroke-width:1.0;"/></g><!--link PE to UC4--><g id="link_PE_UC4"><path d="M137.17,287.16 C178.21,286.51 230.2807,285.6935 281.5907,284.8935 " fill="none" id="PE-to-UC4" style="stroke:#181818;stroke-width:1.0;"/><polygon fill="#181818" points="287.59,284.8,278.5287,280.9408,282.5906,284.8779,278.6535,288.9398,287.59,284.8" style="stroke:#181818;stroke-width:1.0;"/></g><!--link KG to UC4b--><g id="link_KG_UC4b"><path d="M137.53,399.85 C175.78,400.45 222.6807,401.1859 271.1307,401.9459 " fill="none" id="KG-to-UC4b" style="stroke:#181818;stroke-width:1.0;"/><polygon fill="#181818" points="277.13,402.04,268.1938,397.8993,272.1306,401.9616,268.0684,405.8983,277.13,402.04" style="stroke:#181818;stroke-width:1.0;"/></g><!--link DOC to UC4b--><g id="link_DOC_UC4b"><path d="M158.17,469.07 C207.27,455.97 265.663,440.3874 315.863,426.9874 " fill="none" id="DOC-to-UC4b" style="stroke:#181818;stroke-width:1.0;"/><polygon fill="#181818" points="321.66,425.44,311.9329,423.8964,316.8291,426.7295,313.9961,431.6258,321.66,425.44" style="stroke:#181818;stroke-width:1.0;"/></g><!--link UC4 to UC4a--><g id="link_UC4_UC4a"><path d="M326.59,252.46 C258.53,220.79 175.87,168.37 219,114 C234.19,94.85 250.3631,84.9007 273.8231,78.0107 " fill="none" id="UC4-to-UC4a" style="stroke:#181818;stroke-width:1.0;stroke-dasharray:7.0,7.0;"/><polygon fill="#181818" points="279.58,76.32,269.8176,75.0182,274.7826,77.7289,272.0719,82.694,279.58,76.32" style="stroke:#181818;stroke-width:1.0;"/><text fill="#000000" font-family="sans-serif" font-size="13" lengthAdjust="spacing" textLength="55" x="189" y="128.4951">&#171;include&#187;</text></g><!--link UC4 to UC4b--><g id="link_UC4_UC4b"><path d="M403,323.75 C403,340.91 403,354.44 403,369.94 " fill="none" id="UC4-to-UC4b" style="stroke:#181818;stroke-width:1.0;stroke-dasharray:7.0,7.0;"/><polygon fill="#181818" points="403,375.94,407,366.94,403,370.94,399,366.94,403,375.94" style="stroke:#181818;stroke-width:1.0;"/><text fill="#000000" font-family="sans-serif" font-size="13" lengthAdjust="spacing" textLength="55" x="363.5" y="355.2451">&#171;include&#187;</text></g><!--link UC4 to UC4c--><g id="link_UC4_UC4c"><path d="M403,242.37 C403,225.21 403,211.64 403,196.12 " fill="none" id="UC4-to-UC4c" style="stroke:#181818;stroke-width:1.0;stroke-dasharray:7.0,7.0;"/><polygon fill="#181818" points="403,190.12,399,199.12,403,195.12,407,199.12,403,190.12" style="stroke:#181818;stroke-width:1.0;"/><text fill="#000000" font-family="sans-serif" font-size="13" lengthAdjust="spacing" textLength="55" x="363.5" y="221.7451">&#171;include&#187;</text></g><!--SRC=[TL51JiCm4Bpx5QlSmuaJgY9LRLga2gXK49TUDiusiPfi8jkX5CHlU0QtVenrA3H5SB5slJEpCtP56m- -0MkAqaDkB6bl6bPkQxX5YpMqgBTOqChlAu8mHYug6W1SYNcpCrp01Yj7Ig7sZOLeTfEEutl2EW9q4BhloT8sB-ISK8WDTRO7B5FremxHet6Es1KMspA2qMYrTvxg90d8nNo8d3RRhYRsn1avkSn_mwTt4pKafC-QsX0olXPq9IxYiHZn4RmgWCwHHYUmcPNK3DWvoAbUSn_dQEkuQIqhaVskiRAz3_4mkHngtA8_VDZAwDAr5dLf2XAXBs7PM90KJ6LzOkEV5ZPYWTTylXqmoqoLdxZPa9lQWZ8E1FaMNGOFQtuYw_pXFQJMPT3Do98PcDVgJQcG5E8uwTCiqvzoCVykCoMFUcgKd73HDmXNylo6TTNbb2I3IVRlH9zFFW40]--></g></svg>