<?xml version="1.0" encoding="us-ascii" standalone="no"?><svg xmlns="http://www.w3.org/2000/svg" xmlns:xlink="http://www.w3.org/1999/xlink" contentStyleType="text/css" height="652px" preserveAspectRatio="none" style="width:872px;height:652px;background:#FFFFFF;" version="1.1" viewBox="0 0 872 652" width="872px" zoomAndPan="magnify"><defs/><g><text fill="#000000" font-family="sans-serif" font-size="14" font-weight="bold" lengthAdjust="spacing" textLength="226" x="324.5" y="29.5332">ExcH-KG-Agent - Initiale Anfrage</text><text fill="#000000" font-family="sans-serif" font-size="14" font-weight="bold" lengthAdjust="spacing" textLength="84" x="395.5" y="47.1426">Teil 3 von 6:</text><text fill="#000000" font-family="sans-serif" font-size="14" font-weight="bold" lengthAdjust="spacing" textLength="203" x="336" y="64.752">Kontext- und Sitzungsaufbau</text><rect fill="#FFFFFF" height="404.3047" style="stroke:#181818;stroke-width:1.0;" width="10" x="277" y="222.75"/><rect fill="#FFFFFF" height="142.4609" style="stroke:#181818;stroke-width:1.0;" width="10" x="383" y="299.8047"/><rect fill="#FFFFFF" height="111.7344" style="stroke:#181818;stroke-width:1.0;" width="10" x="635" y="515.3203"/><line style="stroke:#181818;stroke-width:0.5;stroke-dasharray:5.0,5.0;" x1="37" x2="37" y1="174.0469" y2="645.0547"/><line style="stroke:#181818;stroke-width:0.5;stroke-dasharray:5.0,5.0;" x1="133" x2="133" y1="174.0469" y2="645.0547"/><line style="stroke:#181818;stroke-width:0.5;stroke-dasharray:5.0,5.0;" x1="282" x2="282" y1="174.0469" y2="645.0547"/><line style="stroke:#181818;stroke-width:0.5;stroke-dasharray:5.0,5.0;" x1="388" x2="388" y1="174.0469" y2="645.0547"/><line style="stroke:#181818;stroke-width:0.5;stroke-dasharray:5.0,5.0;" x1="558" x2="558" y1="373.8594" y2="645.0547"/><line style="stroke:#181818;stroke-width:0.5;stroke-dasharray:5.0,5.0;" x1="640" x2="640" y1="498.875" y2="645.0547"/><line style="stroke:#181818;stroke-width:0.5;stroke-dasharray:5.0,5.0;" x1="843" x2="843" y1="576.0938" y2="645.0547"/><text fill="#000000" font-family="sans-serif" font-size="14" lengthAdjust="spacing" textLength="59" x="5" y="153.3613">Nutzende</text><text fill="#000000" font-family="sans-serif" font-size="14" lengthAdjust="spacing" textLength="44" x="12.5" y="170.9707">Instanz</text><ellipse cx="37.5" cy="87.3281" fill="#E2E2F0" rx="8" ry="8" style="stroke:#181818;stroke-width:0.5;"/><path d="M37.5,95.3281 L37.5,122.3281 M24.5,103.3281 L50.5,103.3281 M37.5,122.3281 L24.5,137.3281 M37.5,122.3281 L50.5,137.3281 " fill="none" style="stroke:#181818;stroke-width:0.5;"/><rect fill="#E2E2F0" height="31.6094" style="stroke:#181818;stroke-width:0.5;" width="102" x="84" y="137.4375"/><rect fill="#E2E2F0" height="31.6094" style="stroke:#181818;stroke-width:0.5;" width="102" x="80" y="141.4375"/><text fill="#000000" font-family="sans-serif" font-size="14" lengthAdjust="spacing" textLength="88" x="87" y="162.9707">RuntimeEvent</text><text fill="#000000" font-family="sans-serif" font-size="14" lengthAdjust="spacing" textLength="68" x="245" y="153.3613">ExcHAgent</text><text fill="#000000" font-family="sans-serif" font-size="14" lengthAdjust="spacing" textLength="12" x="273" y="170.9707">UI</text><path d="M261.5,110.8281 L261.5,134.8281 M261.5,122.8281 L278.5,122.8281 " fill="none" style="stroke:#181818;stroke-width:0.5;"/><ellipse cx="290.5" cy="122.8281" fill="#E2E2F0" rx="12" ry="12" style="stroke:#181818;stroke-width:0.5;"/><text fill="#000000" font-family="sans-serif" font-size="14" lengthAdjust="spacing" textLength="48" x="361" y="153.3613">Context</text><text fill="#000000" font-family="sans-serif" font-size="14" lengthAdjust="spacing" textLength="66" x="352" y="170.9707">Assembler</text><ellipse cx="388" cy="122.8281" fill="#E2E2F0" rx="12" ry="12" style="stroke:#181818;stroke-width:0.5;"/><polygon fill="#181818" points="384,110.8281,390,105.8281,388,110.8281,390,115.8281,384,110.8281" style="stroke:#181818;stroke-width:1.0;"/><rect fill="#FFFFFF" height="404.3047" style="stroke:#181818;stroke-width:1.0;" width="10" x="277" y="222.75"/><rect fill="#FFFFFF" height="142.4609" style="stroke:#181818;stroke-width:1.0;" width="10" x="383" y="299.8047"/><rect fill="#FFFFFF" height="111.7344" style="stroke:#181818;stroke-width:1.0;" width="10" x="635" y="515.3203"/><polygon fill="#181818" points="265,218.75,275,222.75,265,226.75,269,222.75" style="stroke:#181818;stroke-width:1.0;"/><line style="stroke:#181818;stroke-width:1.0;" x1="37.5" x2="271" y1="222.75" y2="222.75"/><text fill="#000000" font-family="sans-serif" font-size="13" font-weight="bold" lengthAdjust="spacing" textLength="7" x="109.25" y="209.7178">1</text><text fill="#000000" font-family="sans-serif" font-size="13" lengthAdjust="spacing" textLength="85" x="120.25" y="201.542">start_analysis(</text><text fill="#000000" font-family="sans-serif" font-size="13" lengthAdjust="spacing" textLength="34" x="145.75" y="217.8936">event)</text><polygon fill="#181818" points="144,249.1016,134,253.1016,144,257.1016,140,253.1016" style="stroke:#181818;stroke-width:1.0;"/><line style="stroke:#181818;stroke-width:1.0;" x1="138" x2="276" y1="253.1016" y2="253.1016"/><text fill="#000000" font-family="sans-serif" font-size="13" font-weight="bold" lengthAdjust="spacing" textLength="7" x="145" y="248.2451">2</text><text fill="#000000" font-family="sans-serif" font-size="13" lengthAdjust="spacing" textLength="109" x="156" y="248.2451">lese Fehlerereignis</text><polygon fill="#181818" points="371,295.8047,381,299.8047,371,303.8047,375,299.8047" style="stroke:#181818;stroke-width:1.0;"/><line style="stroke:#181818;stroke-width:1.0;" x1="287" x2="377" y1="299.8047" y2="299.8047"/><text fill="#000000" font-family="sans-serif" font-size="13" font-weight="bold" lengthAdjust="spacing" textLength="7" x="296.5" y="286.7725">3</text><text fill="#000000" font-family="sans-serif" font-size="13" lengthAdjust="spacing" textLength="66" x="307.5" y="278.5967">from_event(</text><text fill="#000000" font-family="sans-serif" font-size="13" lengthAdjust="spacing" textLength="34" x="323.5" y="294.9482">event)</text><polygon fill="#181818" points="519,407.9141,529,411.9141,519,415.9141,523,411.9141" style="stroke:#181818;stroke-width:1.0;"/><line style="stroke:#181818;stroke-width:1.0;" x1="393" x2="525" y1="411.9141" y2="411.9141"/><text fill="#000000" font-family="sans-serif" font-size="13" font-weight="bold" lengthAdjust="spacing" textLength="7" x="405" y="366.1787">4</text><text fill="#000000" font-family="sans-serif" font-size="13" lengthAdjust="spacing" textLength="36" x="449.5" y="325.2998">create</text><text fill="#000000" font-family="sans-serif" font-size="13" lengthAdjust="spacing" textLength="90" x="422.5" y="341.6514">IncidentContext</text><text fill="#000000" font-family="sans-serif" font-size="13" lengthAdjust="spacing" textLength="8" x="463.5" y="358.0029">+</text><text fill="#000000" font-family="sans-serif" font-size="13" lengthAdjust="spacing" textLength="103" x="416" y="374.3545">RuntimeSnapshot</text><text fill="#000000" font-family="sans-serif" font-size="13" lengthAdjust="spacing" textLength="8" x="463.5" y="390.7061">+</text><text fill="#000000" font-family="sans-serif" font-size="13" lengthAdjust="spacing" textLength="99" x="418" y="407.0576">GraphContextRef</text><text fill="#000000" font-family="sans-serif" font-size="14" lengthAdjust="spacing" textLength="49" x="531" y="389.2285">Incident</text><text fill="#000000" font-family="sans-serif" font-size="14" lengthAdjust="spacing" textLength="48" x="531.5" y="406.8379">Context</text><ellipse cx="558.5" cy="358.6953" fill="#E2E2F0" rx="12" ry="12" style="stroke:#181818;stroke-width:0.5;"/><line style="stroke:#181818;stroke-width:0.5;" x1="546.5" x2="570.5" y1="372.6953" y2="372.6953"/><polygon fill="#181818" points="298,438.2656,288,442.2656,298,446.2656,294,442.2656" style="stroke:#181818;stroke-width:1.0;"/><line style="stroke:#181818;stroke-width:1.0;stroke-dasharray:2.0,2.0;" x1="292" x2="387" y1="442.2656" y2="442.2656"/><text fill="#000000" font-family="sans-serif" font-size="13" font-weight="bold" lengthAdjust="spacing" textLength="7" x="323" y="437.4092">5</text><text fill="#000000" font-family="sans-serif" font-size="13" lengthAdjust="spacing" textLength="18" x="334" y="437.4092">ctx</text><polygon fill="#181818" points="584,501.3203,594,505.3203,584,509.3203,588,505.3203" style="stroke:#181818;stroke-width:1.0;"/><line style="stroke:#181818;stroke-width:1.0;" x1="287" x2="590" y1="505.3203" y2="505.3203"/><text fill="#000000" font-family="sans-serif" font-size="13" font-weight="bold" lengthAdjust="spacing" textLength="7" x="416" y="484.1123">6</text><text fill="#000000" font-family="sans-serif" font-size="13" lengthAdjust="spacing" textLength="40" x="427" y="467.7607">create(</text><text fill="#000000" font-family="sans-serif" font-size="13" lengthAdjust="spacing" textLength="22" x="436" y="484.1123">bot,</text><text fill="#000000" font-family="sans-serif" font-size="13" lengthAdjust="spacing" textLength="22" x="436" y="500.4639">ctx)</text><text fill="#000000" font-family="sans-serif" font-size="14" lengthAdjust="spacing" textLength="82" x="596" y="496.7988">ExcHChatBot</text><text fill="#000000" font-family="sans-serif" font-size="14" lengthAdjust="spacing" textLength="50" x="612" y="514.4082">Session</text><ellipse cx="640" cy="466.2656" fill="#E2E2F0" rx="12" ry="12" style="stroke:#181818;stroke-width:0.5;"/><polygon fill="#181818" points="636,454.2656,642,449.2656,640,454.2656,642,459.2656,636,454.2656" style="stroke:#181818;stroke-width:1.0;"/><polygon fill="#181818" points="803,578.5391,813,582.5391,803,586.5391,807,582.5391" style="stroke:#181818;stroke-width:1.0;"/><line style="stroke:#181818;stroke-width:1.0;" x1="645" x2="809" y1="582.5391" y2="582.5391"/><text fill="#000000" font-family="sans-serif" font-size="13" font-weight="bold" lengthAdjust="spacing" textLength="7" x="657" y="561.3311">7</text><text fill="#000000" font-family="sans-serif" font-size="13" lengthAdjust="spacing" textLength="36" x="717.5" y="544.9795">create</text><text fill="#000000" font-family="sans-serif" font-size="13" lengthAdjust="spacing" textLength="135" x="668" y="561.3311">bootstrap_plan = None,</text><text fill="#000000" font-family="sans-serif" font-size="13" lengthAdjust="spacing" textLength="53" x="709" y="577.6826">turns = []</text><text fill="#000000" font-family="sans-serif" font-size="14" lengthAdjust="spacing" textLength="50" x="815" y="574.0176">Session</text><text fill="#000000" font-family="sans-serif" font-size="14" lengthAdjust="spacing" textLength="50" x="815" y="591.627">Memory</text><ellipse cx="843" cy="543.4844" fill="#E2E2F0" rx="12" ry="12" style="stroke:#181818;stroke-width:0.5;"/><line style="stroke:#181818;stroke-width:0.5;" x1="831" x2="855" y1="557.4844" y2="557.4844"/><polygon fill="#181818" points="293,623.0547,283,627.0547,293,631.0547,289,627.0547" style="stroke:#181818;stroke-width:1.0;"/><line style="stroke:#181818;stroke-width:1.0;stroke-dasharray:2.0,2.0;" x1="287" x2="639" y1="627.0547" y2="627.0547"/><text fill="#000000" font-family="sans-serif" font-size="13" font-weight="bold" lengthAdjust="spacing" textLength="7" x="415.5" y="622.1982">8</text><text fill="#000000" font-family="sans-serif" font-size="13" lengthAdjust="spacing" textLength="80" x="426.5" y="622.1982">Sitzung bereit</text><!--SRC=[RPBBRjim44Nt_8g1LorQhmfq4I0572CF8KWMSREg2eEIHn8HQkYIGx- -laEzh4MW3JMyStZlaE73q5vxtK9ezCuT3TLGQHjGXMd7OzWx2lY28UWQxz2wuyfxTmJsSIuC-2yYbQDmPKrDK28nUjMO7KBb71Vkf7HaHx4jfAxOi4MuFvLFo-V7vQeMEImX8yD6oyQAAY-id7wZiV033exWvqrEpqwm9rv2f1ri35yYrK77gj1HALsoyx1uZNn1sabpHe4rNHQW0xm7ERPqrcB9HdB1uYqIcnRl3t9s9-bMgd32rluCY-IkSvRJUzP3Ca4GUsTXiUwjvBGA0Tl2ekyaqv-IHiE2oQYKAIJAqDBfrdowij99wqRpdHFLHkOe3ZlLi9vOmtzEBzWwV-uq_LAfb12MlyGat804zxpLfEqvcF0b9qpXlgOPcODcJ554AF8kjNHO30WFs8Xr-UGEJL23PCeaiigxTjl1Fe5UmvSUKo6bl7OBIWe2wNVJ1VMZcMRvBQVXMZQazw5nVUtHwtqpYDwmcYF7mAMSjCDFd8nMnb7saOQ_oOk4AHn_pqauiq1Zqy0OHZqs2wUlp28LyjW3Yz_jtcg2MtXrXCBbwENHtSAVlzVsqVlmaA58W-TvZF7yMKakxZy0]--></g></svg>