<?xml version="1.0" encoding="us-ascii" standalone="no"?><svg xmlns="http://www.w3.org/2000/svg" xmlns:xlink="http://www.w3.org/1999/xlink" contentStyleType="text/css" height="735px" preserveAspectRatio="none" style="width:1043px;height:735px;background:#FFFFFF;" version="1.1" viewBox="0 0 1043 735" width="1043px" zoomAndPan="magnify"><defs/><g><!--cluster Artefakt- und Ingestion-Komponente--><g id="cluster_Artefakt- und Ingestion-Komponente"><rect fill="none" height="722" rx="2.5" ry="2.5" style="stroke:#000000;stroke-width:1.5;" width="1030" x="7" y="7"/><text fill="#000000" font-family="sans-serif" font-size="14" font-weight="bold" lengthAdjust="spacing" textLength="256" x="394" y="23.5332">Artefakt- und Ingestion-Komponente</text></g><!--class PipelineConfig--><g id="elem_PipelineConfig"><rect codeLine="9" fill="#F1F1F1" height="146.75" id="PipelineConfig" rx="2.5" ry="2.5" style="stroke:#181818;stroke-width:0.5;" width="193" x="23.5" y="376"/><ellipse cx="70.25" cy="397.3516" fill="#ADD1B2" rx="11" ry="11" style="stroke:#181818;stroke-width:1.0;"/><path d="M73.0156,393.2266 Q73.1719,393.0078 73.3594,392.8984 Q73.5469,392.7891 73.7656,392.7891 Q74.1406,392.7891 74.375,393.0469 Q74.6094,393.3047 74.6094,393.9141 L74.6094,395.3672 Q74.6094,395.9766 74.375,396.2422 Q74.1406,396.5078 73.7656,396.5078 Q73.4219,396.5078 73.2188,396.3047 Q73.0156,396.1172 72.9063,395.6016 Q72.8594,395.2422 72.6719,395.0547 Q72.3438,394.6797 71.7344,394.4609 Q71.125,394.2422 70.5,394.2422 Q69.7344,394.2422 69.1016,394.5703 Q68.4688,394.8984 67.9766,395.6484 Q67.4844,396.3984 67.4844,397.4297 L67.4844,398.5234 Q67.4844,399.7578 68.375,400.5781 Q69.2656,401.3984 70.8594,401.3984 Q71.7969,401.3984 72.4531,401.1484 Q72.8438,400.9922 73.2656,400.5547 Q73.5313,400.2891 73.6797,400.2109 Q73.8281,400.1328 74.0313,400.1328 Q74.3594,400.1328 74.6172,400.3906 Q74.875,400.6484 74.875,400.9922 Q74.875,401.3359 74.5313,401.7422 Q74.0313,402.3203 73.2344,402.6484 Q72.1563,403.1016 70.8594,403.1016 Q69.3438,403.1016 68.1406,402.4766 Q67.1563,401.9766 66.4688,400.9063 Q65.7813,399.8359 65.7813,398.5547 L65.7813,397.3984 Q65.7813,396.0703 66.3984,394.9219 Q67.0156,393.7734 68.1094,393.1563 Q69.2031,392.5391 70.4375,392.5391 Q71.1719,392.5391 71.8203,392.7031 Q72.4688,392.8672 73.0156,393.2266 Z " fill="#000000"/><text fill="#000000" font-family="sans-serif" font-size="12" font-style="italic" lengthAdjust="spacing" textLength="66" x="103.25" y="393.457">&#171;dataclass&#187;</text><text fill="#000000" font-family="sans-serif" font-size="14" lengthAdjust="spacing" textLength="91" x="90.75" y="410.627">PipelineConfig</text><line style="stroke:#181818;stroke-width:0.5;" x1="24.5" x2="215.5" y1="418.7031" y2="418.7031"/><text fill="#000000" font-family="sans-serif" font-size="14" lengthAdjust="spacing" textLength="112" x="29.5" y="437.2363">+project_dir: Path</text><text fill="#000000" font-family="sans-serif" font-size="14" lengthAdjust="spacing" textLength="99" x="29.5" y="454.8457">+sln_path: Path</text><text fill="#000000" font-family="sans-serif" font-size="14" lengthAdjust="spacing" textLength="154" x="29.5" y="472.4551">+kg_cleaned_path: Path</text><text fill="#000000" font-family="sans-serif" font-size="14" lengthAdjust="spacing" textLength="181" x="29.5" y="490.0645">+kg_after_loader_path: Path</text><text fill="#000000" font-family="sans-serif" font-size="14" lengthAdjust="spacing" textLength="130" x="29.5" y="507.6738">+kg_final_path: Path</text><line style="stroke:#181818;stroke-width:0.5;" x1="24.5" x2="215.5" y1="514.75" y2="514.75"/></g><!--class PipelineContext--><g id="elem_PipelineContext"><rect codeLine="17" fill="#F1F1F1" height="129.1406" id="PipelineContext" rx="2.5" ry="2.5" style="stroke:#181818;stroke-width:0.5;" width="210" x="220" y="186"/><ellipse cx="271.75" cy="207.3516" fill="#ADD1B2" rx="11" ry="11" style="stroke:#181818;stroke-width:1.0;"/><path d="M274.5156,203.2266 Q274.6719,203.0078 274.8594,202.8984 Q275.0469,202.7891 275.2656,202.7891 Q275.6406,202.7891 275.875,203.0469 Q276.1094,203.3047 276.1094,203.9141 L276.1094,205.3672 Q276.1094,205.9766 275.875,206.2422 Q275.6406,206.5078 275.2656,206.5078 Q274.9219,206.5078 274.7188,206.3047 Q274.5156,206.1172 274.4063,205.6016 Q274.3594,205.2422 274.1719,205.0547 Q273.8438,204.6797 273.2344,204.4609 Q272.625,204.2422 272,204.2422 Q271.2344,204.2422 270.6016,204.5703 Q269.9688,204.8984 269.4766,205.6484 Q268.9844,206.3984 268.9844,207.4297 L268.9844,208.5234 Q268.9844,209.7578 269.875,210.5781 Q270.7656,211.3984 272.3594,211.3984 Q273.2969,211.3984 273.9531,211.1484 Q274.3438,210.9922 274.7656,210.5547 Q275.0313,210.2891 275.1797,210.2109 Q275.3281,210.1328 275.5313,210.1328 Q275.8594,210.1328 276.1172,210.3906 Q276.375,210.6484 276.375,210.9922 Q276.375,211.3359 276.0313,211.7422 Q275.5313,212.3203 274.7344,212.6484 Q273.6563,213.1016 272.3594,213.1016 Q270.8438,213.1016 269.6406,212.4766 Q268.6563,211.9766 267.9688,210.9063 Q267.2813,209.8359 267.2813,208.5547 L267.2813,207.3984 Q267.2813,206.0703 267.8984,204.9219 Q268.5156,203.7734 269.6094,203.1563 Q270.7031,202.5391 271.9375,202.5391 Q272.6719,202.5391 273.3203,202.7031 Q273.9688,202.8672 274.5156,203.2266 Z " fill="#000000"/><text fill="#000000" font-family="sans-serif" font-size="12" font-style="italic" lengthAdjust="spacing" textLength="66" x="308.25" y="203.457">&#171;dataclass&#187;</text><text fill="#000000" font-family="sans-serif" font-size="14" lengthAdjust="spacing" textLength="98" x="292.25" y="220.627">PipelineContext</text><line style="stroke:#181818;stroke-width:0.5;" x1="221" x2="429" y1="228.7031" y2="228.7031"/><text fill="#000000" font-family="sans-serif" font-size="14" lengthAdjust="spacing" textLength="126" x="226" y="247.2363">+cfg: PipelineConfig</text><text fill="#000000" font-family="sans-serif" font-size="14" lengthAdjust="spacing" textLength="154" x="226" y="264.8457">+artifacts: Dict&lt;str, Any&gt;</text><line style="stroke:#181818;stroke-width:0.5;" x1="221" x2="429" y1="271.9219" y2="271.9219"/><text fill="#000000" font-family="sans-serif" font-size="14" lengthAdjust="spacing" textLength="198" x="226" y="290.4551">+set(key: str, value: Any): None</text><text fill="#000000" font-family="sans-serif" font-size="14" lengthAdjust="spacing" textLength="116" x="226" y="308.0645">+get(key: str): Any</text></g><!--class Pipeline--><g id="elem_Pipeline"><rect codeLine="24" fill="#F1F1F1" height="83.2188" id="Pipeline" rx="2.5" ry="2.5" style="stroke:#181818;stroke-width:0.5;" width="215" x="499.5" y="43"/><ellipse cx="577.75" cy="59" fill="#ADD1B2" rx="11" ry="11" style="stroke:#181818;stroke-width:1.0;"/><path d="M580.5156,54.875 Q580.6719,54.6563 580.8594,54.5469 Q581.0469,54.4375 581.2656,54.4375 Q581.6406,54.4375 581.875,54.6953 Q582.1094,54.9531 582.1094,55.5625 L582.1094,57.0156 Q582.1094,57.625 581.875,57.8906 Q581.6406,58.1563 581.2656,58.1563 Q580.9219,58.1563 580.7188,57.9531 Q580.5156,57.7656 580.4063,57.25 Q580.3594,56.8906 580.1719,56.7031 Q579.8438,56.3281 579.2344,56.1094 Q578.625,55.8906 578,55.8906 Q577.2344,55.8906 576.6016,56.2188 Q575.9688,56.5469 575.4766,57.2969 Q574.9844,58.0469 574.9844,59.0781 L574.9844,60.1719 Q574.9844,61.4063 575.875,62.2266 Q576.7656,63.0469 578.3594,63.0469 Q579.2969,63.0469 579.9531,62.7969 Q580.3438,62.6406 580.7656,62.2031 Q581.0313,61.9375 581.1797,61.8594 Q581.3281,61.7813 581.5313,61.7813 Q581.8594,61.7813 582.1172,62.0391 Q582.375,62.2969 582.375,62.6406 Q582.375,62.9844 582.0313,63.3906 Q581.5313,63.9688 580.7344,64.2969 Q579.6563,64.75 578.3594,64.75 Q576.8438,64.75 575.6406,64.125 Q574.6563,63.625 573.9688,62.5547 Q573.2813,61.4844 573.2813,60.2031 L573.2813,59.0469 Q573.2813,57.7188 573.8984,56.5703 Q574.5156,55.4219 575.6094,54.8047 Q576.7031,54.1875 577.9375,54.1875 Q578.6719,54.1875 579.3203,54.3516 Q579.9688,54.5156 580.5156,54.875 Z " fill="#000000"/><text fill="#000000" font-family="sans-serif" font-size="14" lengthAdjust="spacing" textLength="50" x="598.25" y="64.7285">Pipeline</text><line style="stroke:#181818;stroke-width:0.5;" x1="500.5" x2="713.5" y1="75" y2="75"/><text fill="#000000" font-family="sans-serif" font-size="14" lengthAdjust="spacing" textLength="117" x="505.5" y="93.5332">+steps: List&lt;Step&gt;</text><line style="stroke:#181818;stroke-width:0.5;" x1="500.5" x2="713.5" y1="100.6094" y2="100.6094"/><text fill="#000000" font-family="sans-serif" font-size="14" lengthAdjust="spacing" textLength="203" x="505.5" y="119.1426">+run(ctx: PipelineContext): None</text></g><!--class Step--><g id="elem_Step"><rect codeLine="29" fill="#F1F1F1" height="118.4375" id="Step" rx="2.5" ry="2.5" style="stroke:#181818;stroke-width:0.5;" width="283" x="465.5" y="191.5"/><ellipse cx="588.25" cy="207.5" fill="#A9DCDF" rx="11" ry="11" style="stroke:#181818;stroke-width:1.0;"/><path d="M590.4375,209.2656 L586.2969,209.2656 L585.875,210.2969 L586.2969,210.2969 Q586.9063,210.2969 587.1719,210.5313 Q587.4375,210.7656 587.4375,211.1563 Q587.4375,211.5313 587.1719,211.7656 Q586.9063,212 586.2969,212 L584,212 Q583.3906,212 583.1328,211.7656 Q582.875,211.5313 582.875,211.1406 Q582.875,210.7656 583.1484,210.5234 Q583.4219,210.2813 584.0469,210.2969 L586.7188,203.6406 L585.6094,203.6406 Q585,203.6406 584.7344,203.4063 Q584.4688,203.1719 584.4688,202.7813 Q584.4688,202.4063 584.7344,202.1719 Q585,201.9375 585.6094,201.9375 L589.2813,201.9375 L592.6719,210.2969 Q593.2656,210.2969 593.4531,210.4375 Q593.8438,210.7031 593.8438,211.1563 Q593.8438,211.5313 593.5859,211.7656 Q593.3281,212 592.7188,212 L590.4219,212 Q589.8125,212 589.5469,211.7656 Q589.2813,211.5313 589.2813,211.1406 Q589.2813,210.7656 589.5469,210.5313 Q589.8125,210.2969 590.4219,210.2969 L590.8438,210.2969 L590.4375,209.2656 Z M589.7188,207.5625 L588.3594,204.1875 L586.9844,207.5625 L589.7188,207.5625 Z " fill="#000000"/><text fill="#000000" font-family="sans-serif" font-size="14" font-style="italic" lengthAdjust="spacing" textLength="29" x="608.75" y="213.2285">Step</text><line style="stroke:#181818;stroke-width:0.5;" x1="466.5" x2="747.5" y1="223.5" y2="223.5"/><text fill="#000000" font-family="sans-serif" font-size="14" lengthAdjust="spacing" textLength="67" x="471.5" y="242.0332">+name: str</text><line style="stroke:#181818;stroke-width:0.5;" x1="466.5" x2="747.5" y1="249.1094" y2="249.1094"/><text fill="#000000" font-family="sans-serif" font-size="14" lengthAdjust="spacing" textLength="263" x="471.5" y="267.6426">+outputs(ctx: PipelineContext): List&lt;Path&gt;</text><text fill="#000000" font-family="sans-serif" font-size="14" lengthAdjust="spacing" textLength="271" x="471.5" y="285.252">+should_skip(ctx: PipelineContext, ...): bool</text><text fill="#000000" font-family="sans-serif" font-size="14" lengthAdjust="spacing" textLength="203" x="471.5" y="302.8613">+run(ctx: PipelineContext): None</text></g><!--class ExportPLCopenXMLStep--><g id="elem_ExportPLCopenXMLStep"><rect codeLine="36" fill="#F1F1F1" height="78.8281" id="ExportPLCopenXMLStep" rx="2.5" ry="2.5" style="stroke:#181818;stroke-width:0.5;" width="118" x="595" y="410"/><ellipse cx="610" cy="441.4141" fill="#ADD1B2" rx="11" ry="11" style="stroke:#181818;stroke-width:1.0;"/><path d="M612.7656,437.2891 Q612.9219,437.0703 613.1094,436.9609 Q613.2969,436.8516 613.5156,436.8516 Q613.8906,436.8516 614.125,437.1094 Q614.3594,437.3672 614.3594,437.9766 L614.3594,439.4297 Q614.3594,440.0391 614.125,440.3047 Q613.8906,440.5703 613.5156,440.5703 Q613.1719,440.5703 612.9688,440.3672 Q612.7656,440.1797 612.6563,439.6641 Q612.6094,439.3047 612.4219,439.1172 Q612.0938,438.7422 611.4844,438.5234 Q610.875,438.3047 610.25,438.3047 Q609.4844,438.3047 608.8516,438.6328 Q608.2188,438.9609 607.7266,439.7109 Q607.2344,440.4609 607.2344,441.4922 L607.2344,442.5859 Q607.2344,443.8203 608.125,444.6406 Q609.0156,445.4609 610.6094,445.4609 Q611.5469,445.4609 612.2031,445.2109 Q612.5938,445.0547 613.0156,444.6172 Q613.2813,444.3516 613.4297,444.2734 Q613.5781,444.1953 613.7813,444.1953 Q614.1094,444.1953 614.3672,444.4531 Q614.625,444.7109 614.625,445.0547 Q614.625,445.3984 614.2813,445.8047 Q613.7813,446.3828 612.9844,446.7109 Q611.9063,447.1641 610.6094,447.1641 Q609.0938,447.1641 607.8906,446.5391 Q606.9063,446.0391 606.2188,444.9688 Q605.5313,443.8984 605.5313,442.6172 L605.5313,441.4609 Q605.5313,440.1328 606.1484,438.9844 Q606.7656,437.8359 607.8594,437.2188 Q608.9531,436.6016 610.1875,436.6016 Q610.9219,436.6016 611.5703,436.7656 Q612.2188,436.9297 612.7656,437.2891 Z " fill="#000000"/><text fill="#000000" font-family="sans-serif" font-size="14" lengthAdjust="spacing" textLength="40" x="647" y="429.5332">Export</text><text fill="#000000" font-family="sans-serif" font-size="14" lengthAdjust="spacing" textLength="86" x="624" y="447.1426">PLCopenXML</text><text fill="#000000" font-family="sans-serif" font-size="14" lengthAdjust="spacing" textLength="29" x="652.5" y="464.752">Step</text><line style="stroke:#181818;stroke-width:0.5;" x1="596" x2="712" y1="472.8281" y2="472.8281"/><line style="stroke:#181818;stroke-width:0.5;" x1="596" x2="712" y1="480.8281" y2="480.8281"/></g><!--class BuildProgramIOMappingStep--><g id="elem_BuildProgramIOMappingStep"><rect codeLine="37" fill="#F1F1F1" height="78.8281" id="BuildProgramIOMappingStep" rx="2.5" ry="2.5" style="stroke:#181818;stroke-width:0.5;" width="115" x="748.5" y="410"/><ellipse cx="763.5" cy="441.4141" fill="#ADD1B2" rx="11" ry="11" style="stroke:#181818;stroke-width:1.0;"/><path d="M766.2656,437.2891 Q766.4219,437.0703 766.6094,436.9609 Q766.7969,436.8516 767.0156,436.8516 Q767.3906,436.8516 767.625,437.1094 Q767.8594,437.3672 767.8594,437.9766 L767.8594,439.4297 Q767.8594,440.0391 767.625,440.3047 Q767.3906,440.5703 767.0156,440.5703 Q766.6719,440.5703 766.4688,440.3672 Q766.2656,440.1797 766.1563,439.6641 Q766.1094,439.3047 765.9219,439.1172 Q765.5938,438.7422 764.9844,438.5234 Q764.375,438.3047 763.75,438.3047 Q762.9844,438.3047 762.3516,438.6328 Q761.7188,438.9609 761.2266,439.7109 Q760.7344,440.4609 760.7344,441.4922 L760.7344,442.5859 Q760.7344,443.8203 761.625,444.6406 Q762.5156,445.4609 764.1094,445.4609 Q765.0469,445.4609 765.7031,445.2109 Q766.0938,445.0547 766.5156,444.6172 Q766.7813,444.3516 766.9297,444.2734 Q767.0781,444.1953 767.2813,444.1953 Q767.6094,444.1953 767.8672,444.4531 Q768.125,444.7109 768.125,445.0547 Q768.125,445.3984 767.7813,445.8047 Q767.2813,446.3828 766.4844,446.7109 Q765.4063,447.1641 764.1094,447.1641 Q762.5938,447.1641 761.3906,446.5391 Q760.4063,446.0391 759.7188,444.9688 Q759.0313,443.8984 759.0313,442.6172 L759.0313,441.4609 Q759.0313,440.1328 759.6484,438.9844 Q760.2656,437.8359 761.3594,437.2188 Q762.4531,436.6016 763.6875,436.6016 Q764.4219,436.6016 765.0703,436.7656 Q765.7188,436.9297 766.2656,437.2891 Z " fill="#000000"/><text fill="#000000" font-family="sans-serif" font-size="14" lengthAdjust="spacing" textLength="31" x="803.5" y="429.5332">Build</text><text fill="#000000" font-family="sans-serif" font-size="14" lengthAdjust="spacing" textLength="68" x="785" y="447.1426">ProgramIO</text><text fill="#000000" font-family="sans-serif" font-size="14" lengthAdjust="spacing" textLength="83" x="777.5" y="464.752">MappingStep</text><line style="stroke:#181818;stroke-width:0.5;" x1="749.5" x2="862.5" y1="472.8281" y2="472.8281"/><line style="stroke:#181818;stroke-width:0.5;" x1="749.5" x2="862.5" y1="480.8281" y2="480.8281"/></g><!--class BuildIOMappingsStep--><g id="elem_BuildIOMappingsStep"><rect codeLine="38" fill="#F1F1F1" height="78.8281" id="BuildIOMappingsStep" rx="2.5" ry="2.5" style="stroke:#181818;stroke-width:0.5;" width="122" x="899" y="410"/><ellipse cx="914" cy="441.4141" fill="#ADD1B2" rx="11" ry="11" style="stroke:#181818;stroke-width:1.0;"/><path d="M916.7656,437.2891 Q916.9219,437.0703 917.1094,436.9609 Q917.2969,436.8516 917.5156,436.8516 Q917.8906,436.8516 918.125,437.1094 Q918.3594,437.3672 918.3594,437.9766 L918.3594,439.4297 Q918.3594,440.0391 918.125,440.3047 Q917.8906,440.5703 917.5156,440.5703 Q917.1719,440.5703 916.9688,440.3672 Q916.7656,440.1797 916.6563,439.6641 Q916.6094,439.3047 916.4219,439.1172 Q916.0938,438.7422 915.4844,438.5234 Q914.875,438.3047 914.25,438.3047 Q913.4844,438.3047 912.8516,438.6328 Q912.2188,438.9609 911.7266,439.7109 Q911.2344,440.4609 911.2344,441.4922 L911.2344,442.5859 Q911.2344,443.8203 912.125,444.6406 Q913.0156,445.4609 914.6094,445.4609 Q915.5469,445.4609 916.2031,445.2109 Q916.5938,445.0547 917.0156,444.6172 Q917.2813,444.3516 917.4297,444.2734 Q917.5781,444.1953 917.7813,444.1953 Q918.1094,444.1953 918.3672,444.4531 Q918.625,444.7109 918.625,445.0547 Q918.625,445.3984 918.2813,445.8047 Q917.7813,446.3828 916.9844,446.7109 Q915.9063,447.1641 914.6094,447.1641 Q913.0938,447.1641 911.8906,446.5391 Q910.9063,446.0391 910.2188,444.9688 Q909.5313,443.8984 909.5313,442.6172 L909.5313,441.4609 Q909.5313,440.1328 910.1484,438.9844 Q910.7656,437.8359 911.8594,437.2188 Q912.9531,436.6016 914.1875,436.6016 Q914.9219,436.6016 915.5703,436.7656 Q916.2188,436.9297 916.7656,437.2891 Z " fill="#000000"/><text fill="#000000" font-family="sans-serif" font-size="14" lengthAdjust="spacing" textLength="31" x="957.5" y="429.5332">Build</text><text fill="#000000" font-family="sans-serif" font-size="14" lengthAdjust="spacing" textLength="14" x="966" y="447.1426">IO</text><text fill="#000000" font-family="sans-serif" font-size="14" lengthAdjust="spacing" textLength="90" x="928" y="464.752">MappingsStep</text><line style="stroke:#181818;stroke-width:0.5;" x1="900" x2="1020" y1="472.8281" y2="472.8281"/><line style="stroke:#181818;stroke-width:0.5;" x1="900" x2="1020" y1="480.8281" y2="480.8281"/></g><!--class PLCOpenXMLParserWithHW--><g id="elem_PLCOpenXMLParserWithHW"><rect codeLine="40" fill="#F1F1F1" height="149.2656" id="PLCOpenXMLParserWithHW" rx="2.5" ry="2.5" style="stroke:#181818;stroke-width:0.5;" width="308" x="252" y="375"/><ellipse cx="336.25" cy="397.6094" fill="#ADD1B2" rx="11" ry="11" style="stroke:#181818;stroke-width:1.0;"/><path d="M339.0156,393.4844 Q339.1719,393.2656 339.3594,393.1563 Q339.5469,393.0469 339.7656,393.0469 Q340.1406,393.0469 340.375,393.3047 Q340.6094,393.5625 340.6094,394.1719 L340.6094,395.625 Q340.6094,396.2344 340.375,396.5 Q340.1406,396.7656 339.7656,396.7656 Q339.4219,396.7656 339.2188,396.5625 Q339.0156,396.375 338.9063,395.8594 Q338.8594,395.5 338.6719,395.3125 Q338.3438,394.9375 337.7344,394.7188 Q337.125,394.5 336.5,394.5 Q335.7344,394.5 335.1016,394.8281 Q334.4688,395.1563 333.9766,395.9063 Q333.4844,396.6563 333.4844,397.6875 L333.4844,398.7813 Q333.4844,400.0156 334.375,400.8359 Q335.2656,401.6563 336.8594,401.6563 Q337.7969,401.6563 338.4531,401.4063 Q338.8438,401.25 339.2656,400.8125 Q339.5313,400.5469 339.6797,400.4688 Q339.8281,400.3906 340.0313,400.3906 Q340.3594,400.3906 340.6172,400.6484 Q340.875,400.9063 340.875,401.25 Q340.875,401.5938 340.5313,402 Q340.0313,402.5781 339.2344,402.9063 Q338.1563,403.3594 336.8594,403.3594 Q335.3438,403.3594 334.1406,402.7344 Q333.1563,402.2344 332.4688,401.1641 Q331.7813,400.0938 331.7813,398.8125 L331.7813,397.6563 Q331.7813,396.3281 332.3984,395.1797 Q333.0156,394.0313 334.1094,393.4141 Q335.2031,392.7969 336.4375,392.7969 Q337.1719,392.7969 337.8203,392.9609 Q338.4688,393.125 339.0156,393.4844 Z " fill="#000000"/><text fill="#000000" font-family="sans-serif" font-size="14" lengthAdjust="spacing" textLength="131" x="356.75" y="394.5332">PLCOpenXMLParser</text><text fill="#000000" font-family="sans-serif" font-size="14" lengthAdjust="spacing" textLength="50" x="397.25" y="412.1426">WithHW</text><line style="stroke:#181818;stroke-width:0.5;" x1="253" x2="559" y1="420.2188" y2="420.2188"/><line style="stroke:#181818;stroke-width:0.5;" x1="253" x2="559" y1="428.2188" y2="428.2188"/><text fill="#000000" font-family="sans-serif" font-size="14" lengthAdjust="spacing" textLength="296" x="258" y="446.752">+scan_project_and_write_objects_json(): None</text><text fill="#000000" font-family="sans-serif" font-size="14" lengthAdjust="spacing" textLength="184" x="258" y="464.3613">+export_plcopen_xml(): None</text><text fill="#000000" font-family="sans-serif" font-size="14" lengthAdjust="spacing" textLength="231" x="258" y="481.9707">+build_program_io_mapping(): None</text><text fill="#000000" font-family="sans-serif" font-size="14" lengthAdjust="spacing" textLength="168" x="258" y="499.5801">+build_gvl_globals(): None</text><text fill="#000000" font-family="sans-serif" font-size="14" lengthAdjust="spacing" textLength="177" x="258" y="517.1895">+build_io_mappings(): None</text></g><!--class ProgramMapping--><g id="elem_ProgramMapping"><rect codeLine="48" fill="#F1F1F1" height="129.1406" id="ProgramMapping" rx="2.5" ry="2.5" style="stroke:#181818;stroke-width:0.5;" width="163" x="120.5" y="584"/><ellipse cx="145.85" cy="605.3516" fill="#ADD1B2" rx="11" ry="11" style="stroke:#181818;stroke-width:1.0;"/><path d="M148.6156,601.2266 Q148.7719,601.0078 148.9594,600.8984 Q149.1469,600.7891 149.3656,600.7891 Q149.7406,600.7891 149.975,601.0469 Q150.2094,601.3047 150.2094,601.9141 L150.2094,603.3672 Q150.2094,603.9766 149.975,604.2422 Q149.7406,604.5078 149.3656,604.5078 Q149.0219,604.5078 148.8188,604.3047 Q148.6156,604.1172 148.5063,603.6016 Q148.4594,603.2422 148.2719,603.0547 Q147.9438,602.6797 147.3344,602.4609 Q146.725,602.2422 146.1,602.2422 Q145.3344,602.2422 144.7016,602.5703 Q144.0688,602.8984 143.5766,603.6484 Q143.0844,604.3984 143.0844,605.4297 L143.0844,606.5234 Q143.0844,607.7578 143.975,608.5781 Q144.8656,609.3984 146.4594,609.3984 Q147.3969,609.3984 148.0531,609.1484 Q148.4438,608.9922 148.8656,608.5547 Q149.1313,608.2891 149.2797,608.2109 Q149.4281,608.1328 149.6313,608.1328 Q149.9594,608.1328 150.2172,608.3906 Q150.475,608.6484 150.475,608.9922 Q150.475,609.3359 150.1313,609.7422 Q149.6313,610.3203 148.8344,610.6484 Q147.7563,611.1016 146.4594,611.1016 Q144.9438,611.1016 143.7406,610.4766 Q142.7563,609.9766 142.0688,608.9063 Q141.3813,607.8359 141.3813,606.5547 L141.3813,605.3984 Q141.3813,604.0703 141.9984,602.9219 Q142.6156,601.7734 143.7094,601.1563 Q144.8031,600.5391 146.0375,600.5391 Q146.7719,600.5391 147.4203,600.7031 Q148.0688,600.8672 148.6156,601.2266 Z " fill="#000000"/><text fill="#000000" font-family="sans-serif" font-size="12" font-style="italic" lengthAdjust="spacing" textLength="66" x="183.15" y="601.457">&#171;dataclass&#187;</text><text fill="#000000" font-family="sans-serif" font-size="14" lengthAdjust="spacing" textLength="108" x="162.15" y="618.627">ProgramMapping</text><line style="stroke:#181818;stroke-width:0.5;" x1="121.5" x2="282.5" y1="626.7031" y2="626.7031"/><text fill="#000000" font-family="sans-serif" font-size="14" lengthAdjust="spacing" textLength="139" x="126.5" y="645.2363">+programm_name: str</text><text fill="#000000" font-family="sans-serif" font-size="14" lengthAdjust="spacing" textLength="139" x="126.5" y="662.8457">+inputs: List&lt;IOEntry&gt;</text><text fill="#000000" font-family="sans-serif" font-size="14" lengthAdjust="spacing" textLength="148" x="126.5" y="680.4551">+outputs: List&lt;IOEntry&gt;</text><text fill="#000000" font-family="sans-serif" font-size="14" lengthAdjust="spacing" textLength="151" x="126.5" y="698.0645">+subcalls: List&lt;Subcall&gt;</text><line style="stroke:#181818;stroke-width:0.5;" x1="121.5" x2="282.5" y1="705.1406" y2="705.1406"/></g><!--class GVL--><g id="elem_GVL"><rect codeLine="55" fill="#F1F1F1" height="93.9219" id="GVL" rx="2.5" ry="2.5" style="stroke:#181818;stroke-width:0.5;" width="174" x="319" y="601.5"/><ellipse cx="370.75" cy="622.8516" fill="#ADD1B2" rx="11" ry="11" style="stroke:#181818;stroke-width:1.0;"/><path d="M373.5156,618.7266 Q373.6719,618.5078 373.8594,618.3984 Q374.0469,618.2891 374.2656,618.2891 Q374.6406,618.2891 374.875,618.5469 Q375.1094,618.8047 375.1094,619.4141 L375.1094,620.8672 Q375.1094,621.4766 374.875,621.7422 Q374.6406,622.0078 374.2656,622.0078 Q373.9219,622.0078 373.7188,621.8047 Q373.5156,621.6172 373.4063,621.1016 Q373.3594,620.7422 373.1719,620.5547 Q372.8438,620.1797 372.2344,619.9609 Q371.625,619.7422 371,619.7422 Q370.2344,619.7422 369.6016,620.0703 Q368.9688,620.3984 368.4766,621.1484 Q367.9844,621.8984 367.9844,622.9297 L367.9844,624.0234 Q367.9844,625.2578 368.875,626.0781 Q369.7656,626.8984 371.3594,626.8984 Q372.2969,626.8984 372.9531,626.6484 Q373.3438,626.4922 373.7656,626.0547 Q374.0313,625.7891 374.1797,625.7109 Q374.3281,625.6328 374.5313,625.6328 Q374.8594,625.6328 375.1172,625.8906 Q375.375,626.1484 375.375,626.4922 Q375.375,626.8359 375.0313,627.2422 Q374.5313,627.8203 373.7344,628.1484 Q372.6563,628.6016 371.3594,628.6016 Q369.8438,628.6016 368.6406,627.9766 Q367.6563,627.4766 366.9688,626.4063 Q366.2813,625.3359 366.2813,624.0547 L366.2813,622.8984 Q366.2813,621.5703 366.8984,620.4219 Q367.5156,619.2734 368.6094,618.6563 Q369.7031,618.0391 370.9375,618.0391 Q371.6719,618.0391 372.3203,618.2031 Q372.9688,618.3672 373.5156,618.7266 Z " fill="#000000"/><text fill="#000000" font-family="sans-serif" font-size="12" font-style="italic" lengthAdjust="spacing" textLength="66" x="389.25" y="618.957">&#171;dataclass&#187;</text><text fill="#000000" font-family="sans-serif" font-size="14" lengthAdjust="spacing" textLength="28" x="408.25" y="636.127">GVL</text><line style="stroke:#181818;stroke-width:0.5;" x1="320" x2="492" y1="644.2031" y2="644.2031"/><text fill="#000000" font-family="sans-serif" font-size="14" lengthAdjust="spacing" textLength="67" x="325" y="662.7363">+name: str</text><text fill="#000000" font-family="sans-serif" font-size="14" lengthAdjust="spacing" textLength="162" x="325" y="680.3457">+globals: List&lt;GlobalVar&gt;</text><line style="stroke:#181818;stroke-width:0.5;" x1="320" x2="492" y1="687.4219" y2="687.4219"/></g><!--class IoHardwareAddress--><g id="elem_IoHardwareAddress"><rect codeLine="60" fill="#F1F1F1" height="129.1406" id="IoHardwareAddress" rx="2.5" ry="2.5" style="stroke:#181818;stroke-width:0.5;" width="132" x="528" y="584"/><ellipse cx="556.05" cy="614.1563" fill="#ADD1B2" rx="11" ry="11" style="stroke:#181818;stroke-width:1.0;"/><path d="M558.8156,610.0313 Q558.9719,609.8125 559.1594,609.7031 Q559.3469,609.5938 559.5656,609.5938 Q559.9406,609.5938 560.175,609.8516 Q560.4094,610.1094 560.4094,610.7188 L560.4094,612.1719 Q560.4094,612.7813 560.175,613.0469 Q559.9406,613.3125 559.5656,613.3125 Q559.2219,613.3125 559.0188,613.1094 Q558.8156,612.9219 558.7063,612.4063 Q558.6594,612.0469 558.4719,611.8594 Q558.1438,611.4844 557.5344,611.2656 Q556.925,611.0469 556.3,611.0469 Q555.5344,611.0469 554.9016,611.375 Q554.2688,611.7031 553.7766,612.4531 Q553.2844,613.2031 553.2844,614.2344 L553.2844,615.3281 Q553.2844,616.5625 554.175,617.3828 Q555.0656,618.2031 556.6594,618.2031 Q557.5969,618.2031 558.2531,617.9531 Q558.6438,617.7969 559.0656,617.3594 Q559.3313,617.0938 559.4797,617.0156 Q559.6281,616.9375 559.8313,616.9375 Q560.1594,616.9375 560.4172,617.1953 Q560.675,617.4531 560.675,617.7969 Q560.675,618.1406 560.3313,618.5469 Q559.8313,619.125 559.0344,619.4531 Q557.9563,619.9063 556.6594,619.9063 Q555.1438,619.9063 553.9406,619.2813 Q552.9563,618.7813 552.2688,617.7109 Q551.5813,616.6406 551.5813,615.3594 L551.5813,614.2031 Q551.5813,612.875 552.1984,611.7266 Q552.8156,610.5781 553.9094,609.9609 Q555.0031,609.3438 556.2375,609.3438 Q556.9719,609.3438 557.6203,609.5078 Q558.2688,609.6719 558.8156,610.0313 Z " fill="#000000"/><text fill="#000000" font-family="sans-serif" font-size="12" font-style="italic" lengthAdjust="spacing" textLength="66" x="575.45" y="601.457">&#171;dataclass&#187;</text><text fill="#000000" font-family="sans-serif" font-size="14" lengthAdjust="spacing" textLength="71" x="572.95" y="618.627">IoHardware</text><text fill="#000000" font-family="sans-serif" font-size="14" lengthAdjust="spacing" textLength="52" x="582.45" y="636.2363">Address</text><line style="stroke:#181818;stroke-width:0.5;" x1="529" x2="659" y1="644.3125" y2="644.3125"/><text fill="#000000" font-family="sans-serif" font-size="14" lengthAdjust="spacing" textLength="86" x="534" y="662.8457">+plc_path: str</text><text fill="#000000" font-family="sans-serif" font-size="14" lengthAdjust="spacing" textLength="120" x="534" y="680.4551">+channel_label: str</text><text fill="#000000" font-family="sans-serif" font-size="14" lengthAdjust="spacing" textLength="86" x="534" y="698.0645">+direction: str</text><line style="stroke:#181818;stroke-width:0.5;" x1="529" x2="659" y1="705.1406" y2="705.1406"/></g><!--class ArtifactQualityGate--><g id="elem_ArtifactQualityGate"><rect codeLine="66" fill="#F1F1F1" height="78.8281" id="ArtifactQualityGate" rx="2.5" ry="2.5" style="stroke:#181818;stroke-width:0.5;" width="237" x="783.5" y="211"/><ellipse cx="853.75" cy="233.6094" fill="#ADD1B2" rx="11" ry="11" style="stroke:#181818;stroke-width:1.0;"/><path d="M856.5156,229.4844 Q856.6719,229.2656 856.8594,229.1563 Q857.0469,229.0469 857.2656,229.0469 Q857.6406,229.0469 857.875,229.3047 Q858.1094,229.5625 858.1094,230.1719 L858.1094,231.625 Q858.1094,232.2344 857.875,232.5 Q857.6406,232.7656 857.2656,232.7656 Q856.9219,232.7656 856.7188,232.5625 Q856.5156,232.375 856.4063,231.8594 Q856.3594,231.5 856.1719,231.3125 Q855.8438,230.9375 855.2344,230.7188 Q854.625,230.5 854,230.5 Q853.2344,230.5 852.6016,230.8281 Q851.9688,231.1563 851.4766,231.9063 Q850.9844,232.6563 850.9844,233.6875 L850.9844,234.7813 Q850.9844,236.0156 851.875,236.8359 Q852.7656,237.6563 854.3594,237.6563 Q855.2969,237.6563 855.9531,237.4063 Q856.3438,237.25 856.7656,236.8125 Q857.0313,236.5469 857.1797,236.4688 Q857.3281,236.3906 857.5313,236.3906 Q857.8594,236.3906 858.1172,236.6484 Q858.375,236.9063 858.375,237.25 Q858.375,237.5938 858.0313,238 Q857.5313,238.5781 856.7344,238.9063 Q855.6563,239.3594 854.3594,239.3594 Q852.8438,239.3594 851.6406,238.7344 Q850.6563,238.2344 849.9688,237.1641 Q849.2813,236.0938 849.2813,234.8125 L849.2813,233.6563 Q849.2813,232.3281 849.8984,231.1797 Q850.5156,230.0313 851.6094,229.4141 Q852.7031,228.7969 853.9375,228.7969 Q854.6719,228.7969 855.3203,228.9609 Q855.9688,229.125 856.5156,229.4844 Z " fill="#000000"/><text fill="#000000" font-family="sans-serif" font-size="14" lengthAdjust="spacing" textLength="88" x="874.25" y="230.5332">ArtifactQuality</text><text fill="#000000" font-family="sans-serif" font-size="14" lengthAdjust="spacing" textLength="31" x="902.75" y="248.1426">Gate</text><line style="stroke:#181818;stroke-width:0.5;" x1="784.5" x2="1019.5" y1="256.2188" y2="256.2188"/><line style="stroke:#181818;stroke-width:0.5;" x1="784.5" x2="1019.5" y1="264.2188" y2="264.2188"/><text fill="#000000" font-family="sans-serif" font-size="14" lengthAdjust="spacing" textLength="225" x="789.5" y="282.752">+validate(ctx: PipelineContext): bool</text></g><!--reverse link Step to ExportPLCopenXMLStep--><g id="link_Step_ExportPLCopenXMLStep"><path codeLine="70" d="M654,327.67 C654,359.98 654,381.11 654,409.76 " fill="none" id="Step-backto-ExportPLCopenXMLStep" style="stroke:#181818;stroke-width:1.0;"/><polygon fill="none" points="654,309.67,648,327.67,660,327.67,654,309.67" style="stroke:#181818;stroke-width:1.0;"/></g><!--reverse link Step to BuildProgramIOMappingStep--><g id="link_Step_BuildProgramIOMappingStep"><path codeLine="71" d="M766.68,303 C766.68,303 766,366.47 766,409.85 " fill="none" id="Step-backto-BuildProgramIOMappingStep" style="stroke:#181818;stroke-width:1.0;"/><polygon fill="none" points="748.68,303,766.68,309,766.68,297,748.68,303" style="stroke:#181818;stroke-width:1.0;"/></g><!--reverse link Step to BuildIOMappingsStep--><g id="link_Step_BuildIOMappingsStep"><path codeLine="72" d="M766.7,297 C864.78,297 959.75,297 959.75,297 C959.75,297 959.75,364.65 959.75,409.83 " fill="none" id="Step-backto-BuildIOMappingsStep" style="stroke:#181818;stroke-width:1.0;"/><polygon fill="none" points="748.7,297,766.7,303,766.7,291,748.7,297" style="stroke:#181818;stroke-width:1.0;"/></g><!--reverse link Pipeline to Step--><g id="link_Pipeline_Step"><path codeLine="73" d="M607,138.39 C607,158.08 607,169.9 607,191.38 " fill="none" id="Pipeline-backto-Step" style="stroke:#181818;stroke-width:1.0;"/><polygon fill="#181818" points="607,126.39,603,132.39,607,138.39,611,132.39,607,126.39" style="stroke:#181818;stroke-width:1.0;"/></g><!--link Pipeline to PipelineContext--><g id="link_Pipeline_PipelineContext"><path codeLine="74" d="M499.18,85 C419.57,85 325,85 325,85 C325,85 325,133.2 325,179.57 " fill="none" id="Pipeline-to-PipelineContext" style="stroke:#181818;stroke-width:1.0;"/><polygon fill="#181818" points="325,185.57,329,176.57,325,180.57,321,176.57,325,185.57" style="stroke:#181818;stroke-width:1.0;"/><text fill="#000000" font-family="sans-serif" font-size="13" lengthAdjust="spacing" textLength="64" x="296.81" y="81.4951">arbeitet auf</text></g><!--link Pipeline to ArtifactQualityGate--><g id="link_Pipeline_ArtifactQualityGate"><path codeLine="75" d="M714.75,85 C799.02,85 902,85 902,85 C902,85 902,155.9 902,204.86 " fill="none" id="Pipeline-to-ArtifactQualityGate" style="stroke:#181818;stroke-width:1.0;"/><polygon fill="#181818" points="902,210.86,906,201.86,902,205.86,898,201.86,902,210.86" style="stroke:#181818;stroke-width:1.0;"/><text fill="#000000" font-family="sans-serif" font-size="13" lengthAdjust="spacing" textLength="72" x="798.31" y="81.4951">validiert &#252;ber</text></g><!--reverse link PipelineContext to PipelineConfig--><g id="link_PipelineContext_PipelineConfig"><path codeLine="76" d="M236,327.27 C236,385.52 236,450 236,450 C236,450 228.17,450 216.58,450 " fill="none" id="PipelineContext-backto-PipelineConfig" style="stroke:#181818;stroke-width:1.0;"/><polygon fill="#181818" points="236,315.27,232,321.27,236,327.27,240,321.27,236,315.27" style="stroke:#181818;stroke-width:1.0;"/><text fill="#000000" font-family="sans-serif" font-size="13" lengthAdjust="spacing" textLength="108" x="182" y="406.8351">nutzt Konfiguration</text></g><!--reverse link PipelineContext to PLCOpenXMLParserWithHW--><g id="link_PipelineContext_PLCOpenXMLParserWithHW"><path codeLine="77" d="M341,327.11 C341,346.18 341,355.2 341,374.84 " fill="none" id="PipelineContext-backto-PLCOpenXMLParserWithHW" style="stroke:#181818;stroke-width:1.0;"/><polygon fill="none" points="341,315.11,337,321.11,341,327.11,345,321.11,341,315.11" style="stroke:#181818;stroke-width:1.0;"/><text fill="#000000" font-family="sans-serif" font-size="13" lengthAdjust="spacing" textLength="63" x="277" y="341.4751">h&#228;lt Parser</text></g><!--link PLCOpenXMLParserWithHW to ProgramMapping--><g id="link_PLCOpenXMLParserWithHW_ProgramMapping"><path codeLine="78" d="M267.75,524.17 C267.75,543.8 267.75,558.81 267.75,577.86 " fill="none" id="PLCOpenXMLParserWithHW-to-ProgramMapping" style="stroke:#181818;stroke-width:1.0;"/><polygon fill="#181818" points="267.75,583.86,271.75,574.86,267.75,578.86,263.75,574.86,267.75,583.86" style="stroke:#181818;stroke-width:1.0;"/><text fill="#000000" font-family="sans-serif" font-size="13" lengthAdjust="spacing" textLength="43" x="223.75" y="550.5051">erzeugt</text></g><!--link PLCOpenXMLParserWithHW to GVL--><g id="link_PLCOpenXMLParserWithHW_GVL"><path codeLine="79" d="M406,524.17 C406,550.08 406,572.4 406,595.46 " fill="none" id="PLCOpenXMLParserWithHW-to-GVL" style="stroke:#181818;stroke-width:1.0;"/><polygon fill="#181818" points="406,601.46,410,592.46,406,596.46,402,592.46,406,601.46" style="stroke:#181818;stroke-width:1.0;"/><text fill="#000000" font-family="sans-serif" font-size="13" lengthAdjust="spacing" textLength="43" x="362" y="559.3051">erzeugt</text></g><!--link PLCOpenXMLParserWithHW to IoHardwareAddress--><g id="link_PLCOpenXMLParserWithHW_IoHardwareAddress"><path codeLine="80" d="M544,524.17 C544,543.8 544,558.81 544,577.86 " fill="none" id="PLCOpenXMLParserWithHW-to-IoHardwareAddress" style="stroke:#181818;stroke-width:1.0;"/><polygon fill="#181818" points="544,583.86,548,574.86,544,578.86,540,574.86,544,583.86" style="stroke:#181818;stroke-width:1.0;"/><text fill="#000000" font-family="sans-serif" font-size="13" lengthAdjust="spacing" textLength="43" x="500" y="550.5051">erzeugt</text></g><!--SRC=[bLN1Jjj04BtdAqOvGKjGprOKAQK88g1G8K4FaQonFN6MR7QjtJ4GslvDFwCtVgoxQoTnZ8FQaxtpvisyMS-CxKAe0WqkmSunqqz2vJ13QQbdDqWgqTenin59oJH9jReLBmIV6Yu5fWlCwPPNai1GogXosOmXXI9U5GJQy5ptM1V06XBDh9UG2KyHMlLwTI3eZmtJ31SyW59bC54vMUynkD3BGYjIJ7tuqODA7Do8WdoA4wrc8eVXC4F608r6mGtWOs7qWqiJksmHt23FAxELAYxSgMbRv74g2HLbNH3Ec4miDMRkqO7FX4Av2_pgTKbbUkPkhUaiZrf5LG0Q5ZDCsKRmHQGyj6oEOAnMexeOueC5hI88zaUK9KKUFepWgxkroYblE1q6k5lXMenbAbo-Is5vUElUwrocL0SfFqVjYhQvGanCN1gdk0xk0wm3ArnIK54TTSb5oNPVq93Vt-UwrhakPHQx7YiwAKTmV7piU8dMyhyKLqBxfy-5QzQfkhayqGMfxrUNK-NLzm4jLE0Myi2M-haKCdDCetFN_9FhgRh2ed2pjU47ZmtUGDy4QR3jBdt32_Q6SYVhkf9rWyQIcQfxmVFp-q1jWnMq-TOfkd6e9mLL5ZyPmHJhn1ji_62rEjXf9WeN4HSozJSHFo_bBfvufJwYhpGMEbvMchkyyaSPvr8dRlzqmLjo4susRfMblfMzMy3xBEDMyxb5LVAwooVNfuhDUgZglkp4R9caAELcFAhZQ5VNsTrbjvYMXhhsEjPPEDsXQKNhJ_Gvckm93KtLECiCMHk-xDPUM_VSW4phvRH9dCvHAPAnn8HamxvPp6jRKyQuNaNVIfI2LrDrXdufEo4jnDlNoTrA4auJxPl3UbX3dh0gXZy7WttJjdLuRvnQNgsfWUsw- -1SshR1OFHcOqU09Y4t5WnOpjhUNSL74EeMP1XU_oHa6gHrL9-zzHkBG9Nymd0HZgN1y8zyIzMUsZtM4SnVVqk6okYvtNwXpjtnYO3C2vKvly_opVsFhcyRT4lyrViB]--></g></svg>