<?xml version="1.0" encoding="us-ascii" standalone="no"?><svg xmlns="http://www.w3.org/2000/svg" xmlns:xlink="http://www.w3.org/1999/xlink" contentStyleType="text/css" height="528px" preserveAspectRatio="none" style="width:629px;height:528px;background:#FFFFFF;" version="1.1" viewBox="0 0 629 528" width="629px" zoomAndPan="magnify"><defs/><g><!--cluster          Ontologie- und Wissensgraph-Komponente--><g id="cluster_         Ontologie- und Wissensgraph-Komponente"><rect fill="none" height="314" rx="2.5" ry="2.5" style="stroke:#000000;stroke-width:1.5;" width="616" x="7" y="107"/><text fill="#000000" font-family="sans-serif" font-size="14" font-weight="bold" lengthAdjust="spacing" textLength="304" x="181" y="123.5332">Ontologie- und Wissensgraph-Komponente</text></g><!--class KGLoader--><g id="elem_KGLoader"><rect codeLine="13" fill="#F1F1F1" height="136.0469" id="KGLoader" rx="2.5" ry="2.5" style="stroke:#181818;stroke-width:0.5;" width="309" x="23.5" y="143"/><ellipse cx="141.25" cy="159" fill="#ADD1B2" rx="11" ry="11" style="stroke:#181818;stroke-width:1.0;"/><path d="M144.0156,154.875 Q144.1719,154.6563 144.3594,154.5469 Q144.5469,154.4375 144.7656,154.4375 Q145.1406,154.4375 145.375,154.6953 Q145.6094,154.9531 145.6094,155.5625 L145.6094,157.0156 Q145.6094,157.625 145.375,157.8906 Q145.1406,158.1563 144.7656,158.1563 Q144.4219,158.1563 144.2188,157.9531 Q144.0156,157.7656 143.9063,157.25 Q143.8594,156.8906 143.6719,156.7031 Q143.3438,156.3281 142.7344,156.1094 Q142.125,155.8906 141.5,155.8906 Q140.7344,155.8906 140.1016,156.2188 Q139.4688,156.5469 138.9766,157.2969 Q138.4844,158.0469 138.4844,159.0781 L138.4844,160.1719 Q138.4844,161.4063 139.375,162.2266 Q140.2656,163.0469 141.8594,163.0469 Q142.7969,163.0469 143.4531,162.7969 Q143.8438,162.6406 144.2656,162.2031 Q144.5313,161.9375 144.6797,161.8594 Q144.8281,161.7813 145.0313,161.7813 Q145.3594,161.7813 145.6172,162.0391 Q145.875,162.2969 145.875,162.6406 Q145.875,162.9844 145.5313,163.3906 Q145.0313,163.9688 144.2344,164.2969 Q143.1563,164.75 141.8594,164.75 Q140.3438,164.75 139.1406,164.125 Q138.1563,163.625 137.4688,162.5547 Q136.7813,161.4844 136.7813,160.2031 L136.7813,159.0469 Q136.7813,157.7188 137.3984,156.5703 Q138.0156,155.4219 139.1094,154.8047 Q140.2031,154.1875 141.4375,154.1875 Q142.1719,154.1875 142.8203,154.3516 Q143.4688,154.5156 144.0156,154.875 Z " fill="#000000"/><text fill="#000000" font-family="sans-serif" font-size="14" lengthAdjust="spacing" textLength="65" x="161.75" y="164.7285">KGLoader</text><line style="stroke:#181818;stroke-width:0.5;" x1="24.5" x2="331.5" y1="175" y2="175"/><line style="stroke:#181818;stroke-width:0.5;" x1="24.5" x2="331.5" y1="183" y2="183"/><text fill="#000000" font-family="sans-serif" font-size="14" lengthAdjust="spacing" textLength="245" x="29.5" y="201.5332">+build_gvl_index_from_objects(): None</text><text fill="#000000" font-family="sans-serif" font-size="14" lengthAdjust="spacing" textLength="297" x="29.5" y="219.1426">+ingest_programs_from_mapping_json(): None</text><text fill="#000000" font-family="sans-serif" font-size="14" lengthAdjust="spacing" textLength="185" x="29.5" y="236.752">+ingest_io_mappings(): None</text><text fill="#000000" font-family="sans-serif" font-size="14" lengthAdjust="spacing" textLength="176" x="29.5" y="254.3613">+ingest_gvl_globals(): None</text><text fill="#000000" font-family="sans-serif" font-size="14" lengthAdjust="spacing" textLength="89" x="29.5" y="271.9707">+save(): None</text></g><!--class KGManager--><g id="elem_KGManager"><rect codeLine="21" fill="#F1F1F1" height="118.4375" id="KGManager" rx="2.5" ry="2.5" style="stroke:#181818;stroke-width:0.5;" width="239" x="367.5" y="152"/><ellipse cx="444.75" cy="168" fill="#ADD1B2" rx="11" ry="11" style="stroke:#181818;stroke-width:1.0;"/><path d="M447.5156,163.875 Q447.6719,163.6563 447.8594,163.5469 Q448.0469,163.4375 448.2656,163.4375 Q448.6406,163.4375 448.875,163.6953 Q449.1094,163.9531 449.1094,164.5625 L449.1094,166.0156 Q449.1094,166.625 448.875,166.8906 Q448.6406,167.1563 448.2656,167.1563 Q447.9219,167.1563 447.7188,166.9531 Q447.5156,166.7656 447.4063,166.25 Q447.3594,165.8906 447.1719,165.7031 Q446.8438,165.3281 446.2344,165.1094 Q445.625,164.8906 445,164.8906 Q444.2344,164.8906 443.6016,165.2188 Q442.9688,165.5469 442.4766,166.2969 Q441.9844,167.0469 441.9844,168.0781 L441.9844,169.1719 Q441.9844,170.4063 442.875,171.2266 Q443.7656,172.0469 445.3594,172.0469 Q446.2969,172.0469 446.9531,171.7969 Q447.3438,171.6406 447.7656,171.2031 Q448.0313,170.9375 448.1797,170.8594 Q448.3281,170.7813 448.5313,170.7813 Q448.8594,170.7813 449.1172,171.0391 Q449.375,171.2969 449.375,171.6406 Q449.375,171.9844 449.0313,172.3906 Q448.5313,172.9688 447.7344,173.2969 Q446.6563,173.75 445.3594,173.75 Q443.8438,173.75 442.6406,173.125 Q441.6563,172.625 440.9688,171.5547 Q440.2813,170.4844 440.2813,169.2031 L440.2813,168.0469 Q440.2813,166.7188 440.8984,165.5703 Q441.5156,164.4219 442.6094,163.8047 Q443.7031,163.1875 444.9375,163.1875 Q445.6719,163.1875 446.3203,163.3516 Q446.9688,163.5156 447.5156,163.875 Z " fill="#000000"/><text fill="#000000" font-family="sans-serif" font-size="14" lengthAdjust="spacing" textLength="76" x="465.25" y="173.7285">KGManager</text><line style="stroke:#181818;stroke-width:0.5;" x1="368.5" x2="605.5" y1="184" y2="184"/><line style="stroke:#181818;stroke-width:0.5;" x1="368.5" x2="605.5" y1="192" y2="192"/><text fill="#000000" font-family="sans-serif" font-size="14" lengthAdjust="spacing" textLength="93" x="373.5" y="210.5332">+load(): Graph</text><text fill="#000000" font-family="sans-serif" font-size="14" lengthAdjust="spacing" textLength="227" x="373.5" y="228.1426">+analyze_unused_elements(): None</text><text fill="#000000" font-family="sans-serif" font-size="14" lengthAdjust="spacing" textLength="169" x="373.5" y="245.752">+generate_reports(): None</text><text fill="#000000" font-family="sans-serif" font-size="14" lengthAdjust="spacing" textLength="161" x="373.5" y="263.3613">+save(output_path): Path</text></g><!--class KGStore--><g id="elem_KGStore"><rect codeLine="28" fill="#F1F1F1" height="65.6094" id="KGStore" rx="2.5" ry="2.5" style="stroke:#181818;stroke-width:0.5;" width="105" x="158.5" y="339"/><ellipse cx="182.05" cy="355" fill="#ADD1B2" rx="11" ry="11" style="stroke:#181818;stroke-width:1.0;"/><path d="M184.8156,350.875 Q184.9719,350.6563 185.1594,350.5469 Q185.3469,350.4375 185.5656,350.4375 Q185.9406,350.4375 186.175,350.6953 Q186.4094,350.9531 186.4094,351.5625 L186.4094,353.0156 Q186.4094,353.625 186.175,353.8906 Q185.9406,354.1563 185.5656,354.1563 Q185.2219,354.1563 185.0188,353.9531 Q184.8156,353.7656 184.7063,353.25 Q184.6594,352.8906 184.4719,352.7031 Q184.1438,352.3281 183.5344,352.1094 Q182.925,351.8906 182.3,351.8906 Q181.5344,351.8906 180.9016,352.2188 Q180.2688,352.5469 179.7766,353.2969 Q179.2844,354.0469 179.2844,355.0781 L179.2844,356.1719 Q179.2844,357.4063 180.175,358.2266 Q181.0656,359.0469 182.6594,359.0469 Q183.5969,359.0469 184.2531,358.7969 Q184.6438,358.6406 185.0656,358.2031 Q185.3313,357.9375 185.4797,357.8594 Q185.6281,357.7813 185.8313,357.7813 Q186.1594,357.7813 186.4172,358.0391 Q186.675,358.2969 186.675,358.6406 Q186.675,358.9844 186.3313,359.3906 Q185.8313,359.9688 185.0344,360.2969 Q183.9563,360.75 182.6594,360.75 Q181.1438,360.75 179.9406,360.125 Q178.9563,359.625 178.2688,358.5547 Q177.5813,357.4844 177.5813,356.2031 L177.5813,355.0469 Q177.5813,353.7188 178.1984,352.5703 Q178.8156,351.4219 179.9094,350.8047 Q181.0031,350.1875 182.2375,350.1875 Q182.9719,350.1875 183.6203,350.3516 Q184.2688,350.5156 184.8156,350.875 Z " fill="#000000"/><text fill="#000000" font-family="sans-serif" font-size="14" lengthAdjust="spacing" textLength="54" x="197.95" y="360.7285">KGStore</text><line style="stroke:#181818;stroke-width:0.5;" x1="159.5" x2="262.5" y1="371" y2="371"/><text fill="#000000" font-family="sans-serif" font-size="14" lengthAdjust="spacing" textLength="93" x="164.5" y="389.5332">+graph: Graph</text><line style="stroke:#181818;stroke-width:0.5;" x1="159.5" x2="262.5" y1="396.6094" y2="396.6094"/></g><!--entity Ontology--><g id="elem_Ontology"><rect fill="#F1F1F1" height="75.8281" rx="2.5" ry="2.5" style="stroke:#181818;stroke-width:0.5;" width="161" x="97.5" y="7"/><polygon fill="#F1F1F1" points="241.5,12,241.5,26,253.5,26,253.5,18,247.5,12,241.5,12" style="stroke:#181818;stroke-width:0.5;"/><line style="stroke:#181818;stroke-width:0.5;" x1="247.5" x2="247.5" y1="12" y2="18"/><line style="stroke:#181818;stroke-width:0.5;" x1="253.5" x2="247.5" y1="18" y2="18"/><text fill="#000000" font-family="sans-serif" font-size="14" lengthAdjust="spacing" textLength="61" x="107.5" y="34.5332">Ontologie</text><text fill="#000000" font-family="sans-serif" font-size="14" lengthAdjust="spacing" textLength="94" x="107.5" y="52.1426">(Mappingprofil,</text><text fill="#000000" font-family="sans-serif" font-size="14" lengthAdjust="spacing" textLength="131" x="107.5" y="69.752">Regeln &amp; Vokabular)</text></g><!--entity KGDatabase--><g id="elem_KGDatabase"><path d="M263.5,475 C263.5,465 317,465 317,465 C317,465 370.5,465 370.5,475 L370.5,501.6094 C370.5,511.6094 317,511.6094 317,511.6094 C317,511.6094 263.5,511.6094 263.5,501.6094 L263.5,475 " fill="#F1F1F1" style="stroke:#181818;stroke-width:0.5;"/><path d="M263.5,475 C263.5,485 317,485 317,485 C317,485 370.5,485 370.5,475 " fill="none" style="stroke:#181818;stroke-width:0.5;"/><text fill="#000000" font-family="sans-serif" font-size="14" lengthAdjust="spacing" textLength="87" x="273.5" y="503.5332">Persistent KG</text></g><!--link KGLoader to KGStore--><g id="link_KGLoader_KGStore"><path codeLine="32" d="M211,279.28 C211,299.85 211,315.51 211,332.71 " fill="none" id="KGLoader-to-KGStore" style="stroke:#181818;stroke-width:1.0;"/><polygon fill="#181818" points="211,338.71,215,329.71,211,333.71,207,329.71,211,338.71" style="stroke:#181818;stroke-width:1.0;"/><text fill="#000000" font-family="sans-serif" font-size="13" lengthAdjust="spacing" textLength="34" x="176" y="305.4951">bef&#252;llt</text></g><!--link KGManager to KGStore--><g id="link_KGManager_KGStore"><path codeLine="35" d="M488.5,270.28 C488.5,312.21 488.5,361 488.5,361 C488.5,361 349.97,361 269.52,361 " fill="none" id="KGManager-to-KGStore" style="stroke:#181818;stroke-width:1.0;"/><polygon fill="#181818" points="263.52,361,272.52,365,268.52,361,272.52,357,263.52,361" style="stroke:#181818;stroke-width:1.0;"/></g><!--link Ontology to KGLoader--><g id="link_Ontology_KGLoader"><path codeLine="36" d="M178,83.08 C178,100.79 178,116.4 178,136.79 " fill="none" id="Ontology-to-KGLoader" style="stroke:#181818;stroke-width:1.0;"/><polygon fill="#181818" points="178,142.79,182,133.79,178,137.79,174,133.79,178,142.79" style="stroke:#181818;stroke-width:1.0;"/></g><!--link KGStore to KGDatabase--><g id="link_KGStore_KGDatabase"><path codeLine="37" d="M263.85,383 C276.54,383 286.5,383 286.5,383 C286.5,383 286.5,427.72 286.5,458.82 " fill="none" id="KGStore-to-KGDatabase" style="stroke:#181818;stroke-width:1.0;"/><polygon fill="#181818" points="286.5,464.82,290.5,455.82,286.5,459.82,282.5,455.82,286.5,464.82" style="stroke:#181818;stroke-width:1.0;"/><text fill="#000000" font-family="sans-serif" font-size="13" lengthAdjust="spacing" textLength="4" x="238.5" y="427.0851">&#160;</text><text fill="#000000" font-family="sans-serif" font-size="13" lengthAdjust="spacing" textLength="90" x="195.5" y="443.4367">persistiert / l&#228;dt</text></g><!--link KGLoader to KGDatabase--><g id="link_KGLoader_KGDatabase"><path codeLine="38" d="M309.5,279.24 C309.5,339.58 309.5,418.15 309.5,458.82 " fill="none" id="KGLoader-to-KGDatabase" style="stroke:#181818;stroke-width:1.0;"/><polygon fill="#181818" points="309.5,464.82,313.5,455.82,309.5,459.82,305.5,455.82,309.5,464.82" style="stroke:#181818;stroke-width:1.0;"/></g><!--link KGManager to KGDatabase--><g id="link_KGManager_KGDatabase"><path codeLine="39" d="M367.35,211 C356.79,211 350,211 350,211 C350,211 350,391.73 350,458.84 " fill="none" id="KGManager-to-KGDatabase" style="stroke:#181818;stroke-width:1.0;"/><polygon fill="#181818" points="350,464.84,354,455.84,350,459.84,346,455.84,350,464.84" style="stroke:#181818;stroke-width:1.0;"/><text fill="#000000" font-family="sans-serif" font-size="13" lengthAdjust="spacing" textLength="82" x="267" y="325.7351">liest / schreibt</text></g><!--SRC=[RPB1Qjn038RlynJ2XvBGBkqvXqAXi9Hjsj25zh9WP5ks9piU3JDoaat9s_GnUikBLRjUEyvsVJ58t_pIBobjhGyOiOFKOiNtrZTGeqjaqfGf7QRqIIJQeXVwKh9VsqU23pCaOBd5XjQoSmIHIa7VkBc6ivva5mWuIij6E80m52p27LHs_yIoD-WSttVsGTim1gFO6ak1xBiNTjnOslYBQmn1qo5oRTsxZVz13JaFR-0dRx7e7SRB3331yStEL2XOO2B8RYWccuIym6fvW5RBpyUiCKSFaC7uJMKNqFiAVjcKoAScOcWNA-u2UvMY37uR68QaUbyPAug74C3RehUkofixbrjVqKDUH-voBcxLRhgul89lAZ6GQecIv6fBzRiqaDtWDRzDxC_YbaVclDo-SkEuq8s-pYUyerdaoSmiNAFNEKmUd3hQeykzxo6aWDizKjxxFb6LawDE9t5IeY5F4ONoI46tVgu1xYNqQXgbrUID_avxMGj76ZivJFwbaGCuJNon-3ZnLr1G_VpNEL72F9aNJpFAZ1To30uwPjGOWkDvgEJ6X-5-B4M1z-2U_rHYJkfF_7yrPqhEwcvK8PLj95k8-GS0]--></g></svg>