<?xml version="1.0" encoding="us-ascii" standalone="no"?><svg xmlns="http://www.w3.org/2000/svg" xmlns:xlink="http://www.w3.org/1999/xlink" contentStyleType="text/css" height="591px" preserveAspectRatio="none" style="width:714px;height:591px;background:#FFFFFF;" version="1.1" viewBox="0 0 714 591" width="714px" zoomAndPan="magnify"><defs/><g><text fill="#000000" font-family="sans-serif" font-size="14" font-weight="bold" lengthAdjust="spacing" textLength="235" x="241" y="29.5332">ExcH-RAG-Agent - Initiale Anfrage</text><text fill="#000000" font-family="sans-serif" font-size="14" font-weight="bold" lengthAdjust="spacing" textLength="84" x="316.5" y="47.1426">Teil 5 von 6:</text><text fill="#000000" font-family="sans-serif" font-size="14" font-weight="bold" lengthAdjust="spacing" textLength="90" x="313.5" y="64.752">Modellaufruf</text><rect fill="#FFFFFF" height="371.6016" style="stroke:#181818;stroke-width:1.0;" width="10" x="58" y="194.75"/><rect fill="#FFFFFF" height="109.7578" style="stroke:#181818;stroke-width:1.0;" width="10" x="199" y="194.75"/><rect fill="#FFFFFF" height="137.9219" style="stroke:#181818;stroke-width:1.0;" width="10" x="518" y="428.4297"/><line style="stroke:#181818;stroke-width:0.5;stroke-dasharray:5.0,5.0;" x1="63" x2="63" y1="146.0469" y2="584.3516"/><line style="stroke:#181818;stroke-width:0.5;stroke-dasharray:5.0,5.0;" x1="204" x2="204" y1="146.0469" y2="584.3516"/><line style="stroke:#181818;stroke-width:0.5;stroke-dasharray:5.0,5.0;" x1="363" x2="363" y1="252.4531" y2="584.3516"/><line style="stroke:#181818;stroke-width:0.5;stroke-dasharray:5.0,5.0;" x1="425" x2="425" y1="361.1172" y2="584.3516"/><line style="stroke:#181818;stroke-width:0.5;stroke-dasharray:5.0,5.0;" x1="523" x2="523" y1="146.0469" y2="584.3516"/><line style="stroke:#181818;stroke-width:0.5;stroke-dasharray:5.0,5.0;" x1="678" x2="678" y1="515.3906" y2="584.3516"/><text fill="#000000" font-family="sans-serif" font-size="14" lengthAdjust="spacing" textLength="110" x="5" y="125.3613">GroundedAnswer</text><text fill="#000000" font-family="sans-serif" font-size="14" lengthAdjust="spacing" textLength="65" x="27.5" y="142.9707">Generator</text><ellipse cx="63" cy="94.8281" fill="#E2E2F0" rx="12" ry="12" style="stroke:#181818;stroke-width:0.5;"/><polygon fill="#181818" points="59,82.8281,65,77.8281,63,82.8281,65,87.8281,59,82.8281" style="stroke:#181818;stroke-width:1.0;"/><text fill="#000000" font-family="sans-serif" font-size="14" lengthAdjust="spacing" textLength="96" x="153" y="125.3613">ModelSelection</text><text fill="#000000" font-family="sans-serif" font-size="14" lengthAdjust="spacing" textLength="37" x="182.5" y="142.9707">Policy</text><ellipse cx="204" cy="94.8281" fill="#E2E2F0" rx="12" ry="12" style="stroke:#181818;stroke-width:0.5;"/><polygon fill="#181818" points="200,82.8281,206,77.8281,204,82.8281,206,87.8281,200,82.8281" style="stroke:#181818;stroke-width:1.0;"/><text fill="#000000" font-family="sans-serif" font-size="14" lengthAdjust="spacing" textLength="110" x="465" y="125.3613">FoundationModel</text><text fill="#000000" font-family="sans-serif" font-size="14" lengthAdjust="spacing" textLength="55" x="492.5" y="142.9707">Gateway</text><ellipse cx="523" cy="94.8281" fill="#E2E2F0" rx="12" ry="12" style="stroke:#181818;stroke-width:0.5;"/><polygon fill="#181818" points="519,82.8281,525,77.8281,523,82.8281,525,87.8281,519,82.8281" style="stroke:#181818;stroke-width:1.0;"/><rect fill="#FFFFFF" height="371.6016" style="stroke:#181818;stroke-width:1.0;" width="10" x="58" y="194.75"/><rect fill="#FFFFFF" height="109.7578" style="stroke:#181818;stroke-width:1.0;" width="10" x="199" y="194.75"/><rect fill="#FFFFFF" height="137.9219" style="stroke:#181818;stroke-width:1.0;" width="10" x="518" y="428.4297"/><polygon fill="#181818" points="187,190.75,197,194.75,187,198.75,191,194.75" style="stroke:#181818;stroke-width:1.0;"/><line style="stroke:#181818;stroke-width:1.0;" x1="68" x2="193" y1="194.75" y2="194.75"/><text fill="#000000" font-family="sans-serif" font-size="13" font-weight="bold" lengthAdjust="spacing" textLength="7" x="75" y="181.7178">1</text><text fill="#000000" font-family="sans-serif" font-size="13" lengthAdjust="spacing" textLength="80" x="99" y="173.542">select_profile(</text><text fill="#000000" font-family="sans-serif" font-size="13" lengthAdjust="spacing" textLength="106" x="86" y="189.8936">"initial_diagnosis")</text><polygon fill="#181818" points="328,270.1563,338,274.1563,328,278.1563,332,274.1563" style="stroke:#181818;stroke-width:1.0;"/><line style="stroke:#181818;stroke-width:1.0;" x1="209" x2="334" y1="274.1563" y2="274.1563"/><text fill="#000000" font-family="sans-serif" font-size="13" font-weight="bold" lengthAdjust="spacing" textLength="7" x="221" y="244.7725">2</text><text fill="#000000" font-family="sans-serif" font-size="13" lengthAdjust="spacing" textLength="40" x="260" y="220.2451">create(</text><text fill="#000000" font-family="sans-serif" font-size="13" lengthAdjust="spacing" textLength="36" x="262" y="236.5967">name,</text><text fill="#000000" font-family="sans-serif" font-size="13" lengthAdjust="spacing" textLength="67" x="246.5" y="252.9482">cost_class,</text><text fill="#000000" font-family="sans-serif" font-size="13" lengthAdjust="spacing" textLength="96" x="232" y="269.2998">context_window)</text><text fill="#000000" font-family="sans-serif" font-size="14" lengthAdjust="spacing" textLength="38" x="341" y="251.4707">Model</text><text fill="#000000" font-family="sans-serif" font-size="14" lengthAdjust="spacing" textLength="40" x="340" y="269.0801">Profile</text><ellipse cx="363" cy="220.9375" fill="#E2E2F0" rx="12" ry="12" style="stroke:#181818;stroke-width:0.5;"/><line style="stroke:#181818;stroke-width:0.5;" x1="351" x2="375" y1="234.9375" y2="234.9375"/><polygon fill="#181818" points="79,300.5078,69,304.5078,79,308.5078,75,304.5078" style="stroke:#181818;stroke-width:1.0;"/><line style="stroke:#181818;stroke-width:1.0;stroke-dasharray:2.0,2.0;" x1="73" x2="362" y1="304.5078" y2="304.5078"/><text fill="#000000" font-family="sans-serif" font-size="13" font-weight="bold" lengthAdjust="spacing" textLength="7" x="174.5" y="299.6514">3</text><text fill="#000000" font-family="sans-serif" font-size="13" lengthAdjust="spacing" textLength="71" x="185.5" y="299.6514">ModelProfile</text><polygon fill="#181818" points="384,363.5625,394,367.5625,384,371.5625,388,367.5625" style="stroke:#181818;stroke-width:1.0;"/><line style="stroke:#181818;stroke-width:1.0;" x1="68" x2="390" y1="367.5625" y2="367.5625"/><text fill="#000000" font-family="sans-serif" font-size="13" font-weight="bold" lengthAdjust="spacing" textLength="7" x="179.5" y="346.3545">4</text><text fill="#000000" font-family="sans-serif" font-size="13" lengthAdjust="spacing" textLength="40" x="217.5" y="330.0029">create(</text><text fill="#000000" font-family="sans-serif" font-size="13" lengthAdjust="spacing" textLength="94" x="190.5" y="346.3545">system_prompt,</text><text fill="#000000" font-family="sans-serif" font-size="13" lengthAdjust="spacing" textLength="76" x="199.5" y="362.7061">user_prompt)</text><text fill="#000000" font-family="sans-serif" font-size="14" lengthAdjust="spacing" textLength="45" x="400" y="359.041">Prompt</text><text fill="#000000" font-family="sans-serif" font-size="14" lengthAdjust="spacing" textLength="53" x="396" y="376.6504">Request</text><ellipse cx="425.5" cy="328.5078" fill="#E2E2F0" rx="12" ry="12" style="stroke:#181818;stroke-width:0.5;"/><line style="stroke:#181818;stroke-width:0.5;" x1="413.5" x2="437.5" y1="342.5078" y2="342.5078"/><polygon fill="#181818" points="506,424.4297,516,428.4297,506,432.4297,510,428.4297" style="stroke:#181818;stroke-width:1.0;"/><line style="stroke:#181818;stroke-width:1.0;" x1="68" x2="512" y1="428.4297" y2="428.4297"/><text fill="#000000" font-family="sans-serif" font-size="13" font-weight="bold" lengthAdjust="spacing" textLength="7" x="265.5" y="415.3975">5</text><text fill="#000000" font-family="sans-serif" font-size="13" lengthAdjust="spacing" textLength="40" x="278.5" y="407.2217">invoke(</text><text fill="#000000" font-family="sans-serif" font-size="13" lengthAdjust="spacing" textLength="44" x="276.5" y="423.5732">prompt)</text><polygon fill="#181818" points="374,454.7813,364,458.7813,374,462.7813,370,458.7813" style="stroke:#181818;stroke-width:1.0;"/><line style="stroke:#181818;stroke-width:1.0;" x1="368" x2="517" y1="458.7813" y2="458.7813"/><text fill="#000000" font-family="sans-serif" font-size="13" font-weight="bold" lengthAdjust="spacing" textLength="7" x="384.5" y="453.9248">6</text><text fill="#000000" font-family="sans-serif" font-size="13" lengthAdjust="spacing" textLength="101" x="395.5" y="453.9248">nutze Modellprofil</text><polygon fill="#181818" points="631,517.8359,641,521.8359,631,525.8359,635,521.8359" style="stroke:#181818;stroke-width:1.0;"/><line style="stroke:#181818;stroke-width:1.0;" x1="528" x2="637" y1="521.8359" y2="521.8359"/><text fill="#000000" font-family="sans-serif" font-size="13" font-weight="bold" lengthAdjust="spacing" textLength="7" x="540" y="500.6279">7</text><text fill="#000000" font-family="sans-serif" font-size="13" lengthAdjust="spacing" textLength="40" x="571" y="484.2764">create(</text><text fill="#000000" font-family="sans-serif" font-size="13" lengthAdjust="spacing" textLength="45" x="568.5" y="500.6279">answer,</text><text fill="#000000" font-family="sans-serif" font-size="13" lengthAdjust="spacing" textLength="80" x="551" y="516.9795">finish_reason)</text><text fill="#000000" font-family="sans-serif" font-size="14" lengthAdjust="spacing" textLength="38" x="656" y="513.3145">Model</text><text fill="#000000" font-family="sans-serif" font-size="14" lengthAdjust="spacing" textLength="64" x="643" y="530.9238">Response</text><ellipse cx="678" cy="482.7813" fill="#E2E2F0" rx="12" ry="12" style="stroke:#181818;stroke-width:0.5;"/><line style="stroke:#181818;stroke-width:0.5;" x1="666" x2="690" y1="496.7813" y2="496.7813"/><polygon fill="#181818" points="74,562.3516,64,566.3516,74,570.3516,70,566.3516" style="stroke:#181818;stroke-width:1.0;"/><line style="stroke:#181818;stroke-width:1.0;stroke-dasharray:2.0,2.0;" x1="68" x2="677" y1="566.3516" y2="566.3516"/><text fill="#000000" font-family="sans-serif" font-size="13" font-weight="bold" lengthAdjust="spacing" textLength="7" x="318.5" y="561.4951">8</text><text fill="#000000" font-family="sans-serif" font-size="13" lengthAdjust="spacing" textLength="93" x="329.5" y="561.4951">ModelResponse</text><!--SRC=[RL8zZzim3DtrAuHC5w0PUqE60YxGvZeSKAGT3HWwctQ4aybKbEEalxwq9Ik-e9j8FUfzKFnkyMoywJMVJ4EZnKwtnZ4epZSU-4p8y0hCfeElu6WilATH1p-iWGn_1i1w0HRETgXhm01UdMm3kYKARtHLPWY4G_ycVHLiSA2_NUkNtR4ux8fEy7gdVw0DriXDWQsNnqhy3TRfp_f2g9_t9RvI0ywPeVL3grHD63mvlJbu6h21fa0UmPTu00Hl0lcDDgnpTH-Ot_a53kfW2KlyISxMjnaTZqe4sN1BI05uQgs3Y8Zd396wFuSIZrCI71QCzEw4toU1PY9B3nvCWD54odH-v3oc5SoOfL0gsz6xBqcjtiiQ9ZFLEMfxAd5ZOvXLOqs7n9OtMsN4xqNOLfdaLZ9UUvYhP38HJ5In8rmH8XneUlXKOaqSgjePvhcGrLz39RzAljPMBMCxUU8kVQzdamjB0uyoLZgc83-Qddjh8NpZ0FtaNYv4nC3WKxLzI2o5BTCMB_G-JI_0Upff8GlsWtiSmb-8ybsCEulDIreDBhsrN3F_Kz7PofBuL4cV2RSgO_yRLdvzbTQYTDtAg_q7]--></g></svg>