<?xml version="1.0" encoding="us-ascii" standalone="no"?><svg xmlns="http://www.w3.org/2000/svg" xmlns:xlink="http://www.w3.org/1999/xlink" contentStyleType="text/css" height="593px" preserveAspectRatio="none" style="width:722px;height:593px;background:#FFFFFF;" version="1.1" viewBox="0 0 722 593" width="722px" zoomAndPan="magnify"><defs/><g><text fill="#000000" font-family="sans-serif" font-size="14" font-weight="bold" lengthAdjust="spacing" textLength="235" x="245.25" y="29.5332">ExcH-RAG-Agent - Initiale Anfrage</text><text fill="#000000" font-family="sans-serif" font-size="14" font-weight="bold" lengthAdjust="spacing" textLength="84" x="320.75" y="47.1426">Teil 6 von 6:</text><text fill="#000000" font-family="sans-serif" font-size="14" font-weight="bold" lengthAdjust="spacing" textLength="159" x="283.25" y="64.752">Ergebnis und Ausgabe</text><rect fill="#FFFFFF" height="97.4063" style="stroke:#181818;stroke-width:1.0;" width="10" x="133" y="265.4531"/><rect fill="#FFFFFF" height="30.3516" style="stroke:#181818;stroke-width:1.0;" width="10" x="327" y="302.1563"/><rect fill="#FFFFFF" height="158.8125" style="stroke:#181818;stroke-width:1.0;" width="10" x="493.5" y="362.8594"/><rect fill="#FFFFFF" height="46.7031" style="stroke:#181818;stroke-width:1.0;" width="10" x="682" y="521.6719"/><line style="stroke:#181818;stroke-width:0.5;stroke-dasharray:5.0,5.0;" x1="37" x2="37" y1="174.0469" y2="586.375"/><line style="stroke:#181818;stroke-width:0.5;stroke-dasharray:5.0,5.0;" x1="138" x2="138" y1="174.0469" y2="586.375"/><line style="stroke:#181818;stroke-width:0.5;stroke-dasharray:5.0,5.0;" x1="331.5" x2="331.5" y1="174.0469" y2="586.375"/><line style="stroke:#181818;stroke-width:0.5;stroke-dasharray:5.0,5.0;" x1="412.5" x2="412.5" y1="233.75" y2="586.375"/><line style="stroke:#181818;stroke-width:0.5;stroke-dasharray:5.0,5.0;" x1="498.5" x2="498.5" y1="174.0469" y2="586.375"/><line style="stroke:#181818;stroke-width:0.5;stroke-dasharray:5.0,5.0;" x1="624.5" x2="624.5" y1="420.5625" y2="586.375"/><line style="stroke:#181818;stroke-width:0.5;stroke-dasharray:5.0,5.0;" x1="686.5" x2="686.5" y1="174.0469" y2="586.375"/><text fill="#000000" font-family="sans-serif" font-size="14" lengthAdjust="spacing" textLength="59" x="5" y="153.3613">Nutzende</text><text fill="#000000" font-family="sans-serif" font-size="14" lengthAdjust="spacing" textLength="44" x="12.5" y="170.9707">Instanz</text><ellipse cx="37.5" cy="87.3281" fill="#E2E2F0" rx="8" ry="8" style="stroke:#181818;stroke-width:0.5;"/><path d="M37.5,95.3281 L37.5,122.3281 M24.5,103.3281 L50.5,103.3281 M37.5,122.3281 L24.5,137.3281 M37.5,122.3281 L50.5,137.3281 " fill="none" style="stroke:#181818;stroke-width:0.5;"/><text fill="#000000" font-family="sans-serif" font-size="14" lengthAdjust="spacing" textLength="110" x="80" y="153.3613">GroundedAnswer</text><text fill="#000000" font-family="sans-serif" font-size="14" lengthAdjust="spacing" textLength="65" x="102.5" y="170.9707">Generator</text><ellipse cx="138" cy="122.8281" fill="#E2E2F0" rx="12" ry="12" style="stroke:#181818;stroke-width:0.5;"/><polygon fill="#181818" points="134,110.8281,140,105.8281,138,110.8281,140,115.8281,134,110.8281" style="stroke:#181818;stroke-width:1.0;"/><text fill="#000000" font-family="sans-serif" font-size="14" lengthAdjust="spacing" textLength="59" x="299.5" y="153.3613">Guardrail</text><text fill="#000000" font-family="sans-serif" font-size="14" lengthAdjust="spacing" textLength="37" x="310.5" y="170.9707">Policy</text><ellipse cx="332" cy="122.8281" fill="#E2E2F0" rx="12" ry="12" style="stroke:#181818;stroke-width:0.5;"/><polygon fill="#181818" points="328,110.8281,334,105.8281,332,110.8281,334,115.8281,328,110.8281" style="stroke:#181818;stroke-width:1.0;"/><text fill="#000000" font-family="sans-serif" font-size="14" lengthAdjust="spacing" textLength="68" x="461.5" y="153.3613">SimpleRag</text><text fill="#000000" font-family="sans-serif" font-size="14" lengthAdjust="spacing" textLength="50" x="470.5" y="170.9707">Session</text><ellipse cx="498.5" cy="122.8281" fill="#E2E2F0" rx="12" ry="12" style="stroke:#181818;stroke-width:0.5;"/><polygon fill="#181818" points="494.5,110.8281,500.5,105.8281,498.5,110.8281,500.5,115.8281,494.5,110.8281" style="stroke:#181818;stroke-width:1.0;"/><text fill="#000000" font-family="sans-serif" font-size="14" lengthAdjust="spacing" textLength="63" x="652.5" y="153.3613">RagAgent</text><text fill="#000000" font-family="sans-serif" font-size="14" lengthAdjust="spacing" textLength="12" x="678" y="170.9707">UI</text><path d="M666.5,110.8281 L666.5,134.8281 M666.5,122.8281 L683.5,122.8281 " fill="none" style="stroke:#181818;stroke-width:0.5;"/><ellipse cx="695.5" cy="122.8281" fill="#E2E2F0" rx="12" ry="12" style="stroke:#181818;stroke-width:0.5;"/><rect fill="#FFFFFF" height="97.4063" style="stroke:#181818;stroke-width:1.0;" width="10" x="133" y="265.4531"/><rect fill="#FFFFFF" height="30.3516" style="stroke:#181818;stroke-width:1.0;" width="10" x="327" y="302.1563"/><rect fill="#FFFFFF" height="158.8125" style="stroke:#181818;stroke-width:1.0;" width="10" x="493.5" y="362.8594"/><rect fill="#FFFFFF" height="46.7031" style="stroke:#181818;stroke-width:1.0;" width="10" x="682" y="521.6719"/><polygon fill="#181818" points="362.5,251.4531,372.5,255.4531,362.5,259.4531,366.5,255.4531" style="stroke:#181818;stroke-width:1.0;"/><line style="stroke:#181818;stroke-width:1.0;" x1="138" x2="368.5" y1="255.4531" y2="255.4531"/><text fill="#000000" font-family="sans-serif" font-size="13" font-weight="bold" lengthAdjust="spacing" textLength="7" x="215.25" y="226.0693">1</text><text fill="#000000" font-family="sans-serif" font-size="13" lengthAdjust="spacing" textLength="40" x="241.75" y="201.542">create(</text><text fill="#000000" font-family="sans-serif" font-size="13" lengthAdjust="spacing" textLength="45" x="239.25" y="217.8936">answer,</text><text fill="#000000" font-family="sans-serif" font-size="13" lengthAdjust="spacing" textLength="71" x="226.25" y="234.2451">uncertainty_</text><text fill="#000000" font-family="sans-serif" font-size="13" lengthAdjust="spacing" textLength="36" x="243.75" y="250.5967">notes)</text><text fill="#000000" font-family="sans-serif" font-size="14" lengthAdjust="spacing" textLength="71" x="374.5" y="232.7676">Generation</text><text fill="#000000" font-family="sans-serif" font-size="14" lengthAdjust="spacing" textLength="40" x="390" y="250.377">Result</text><ellipse cx="413" cy="202.2344" fill="#E2E2F0" rx="12" ry="12" style="stroke:#181818;stroke-width:0.5;"/><line style="stroke:#181818;stroke-width:0.5;" x1="401" x2="425" y1="216.2344" y2="216.2344"/><polygon fill="#181818" points="315,298.1563,325,302.1563,315,306.1563,319,302.1563" style="stroke:#181818;stroke-width:1.0;"/><line style="stroke:#181818;stroke-width:1.0;" x1="143" x2="321" y1="302.1563" y2="302.1563"/><text fill="#000000" font-family="sans-serif" font-size="13" font-weight="bold" lengthAdjust="spacing" textLength="7" x="206" y="289.124">2</text><text fill="#000000" font-family="sans-serif" font-size="13" lengthAdjust="spacing" textLength="47" x="217" y="280.9482">validate(</text><text fill="#000000" font-family="sans-serif" font-size="13" lengthAdjust="spacing" textLength="36" x="222.5" y="297.2998">result)</text><polygon fill="#181818" points="154,328.5078,144,332.5078,154,336.5078,150,332.5078" style="stroke:#181818;stroke-width:1.0;"/><line style="stroke:#181818;stroke-width:1.0;stroke-dasharray:2.0,2.0;" x1="148" x2="331" y1="332.5078" y2="332.5078"/><text fill="#000000" font-family="sans-serif" font-size="13" font-weight="bold" lengthAdjust="spacing" textLength="7" x="157.5" y="327.6514">3</text><text fill="#000000" font-family="sans-serif" font-size="13" lengthAdjust="spacing" textLength="149" x="168.5" y="327.6514">ok / Unsicherheit markiert</text><polygon fill="#181818" points="481.5,358.8594,491.5,362.8594,481.5,366.8594,485.5,362.8594" style="stroke:#181818;stroke-width:1.0;"/><line style="stroke:#181818;stroke-width:1.0;stroke-dasharray:2.0,2.0;" x1="138" x2="487.5" y1="362.8594" y2="362.8594"/><text fill="#000000" font-family="sans-serif" font-size="13" font-weight="bold" lengthAdjust="spacing" textLength="7" x="260.25" y="358.0029">4</text><text fill="#000000" font-family="sans-serif" font-size="13" lengthAdjust="spacing" textLength="100" x="271.25" y="358.0029">GenerationResult</text><polygon fill="#181818" points="594.5,438.2656,604.5,442.2656,594.5,446.2656,598.5,442.2656" style="stroke:#181818;stroke-width:1.0;"/><line style="stroke:#181818;stroke-width:1.0;" x1="503.5" x2="600.5" y1="442.2656" y2="442.2656"/><text fill="#000000" font-family="sans-serif" font-size="13" font-weight="bold" lengthAdjust="spacing" textLength="7" x="515.5" y="412.8818">5</text><text fill="#000000" font-family="sans-serif" font-size="13" lengthAdjust="spacing" textLength="40" x="540.5" y="388.3545">create(</text><text fill="#000000" font-family="sans-serif" font-size="13" lengthAdjust="spacing" textLength="68" x="526.5" y="404.7061">role="user",</text><text fill="#000000" font-family="sans-serif" font-size="13" lengthAdjust="spacing" textLength="26" x="547.5" y="421.0576">text,</text><text fill="#000000" font-family="sans-serif" font-size="13" lengthAdjust="spacing" textLength="45" x="538" y="437.4092">answer)</text><text fill="#000000" font-family="sans-serif" font-size="14" lengthAdjust="spacing" textLength="30" x="606.5" y="419.5801">Chat</text><text fill="#000000" font-family="sans-serif" font-size="14" lengthAdjust="spacing" textLength="30" x="606.5" y="437.1895">Turn</text><ellipse cx="624.5" cy="389.0469" fill="#E2E2F0" rx="12" ry="12" style="stroke:#181818;stroke-width:0.5;"/><line style="stroke:#181818;stroke-width:0.5;" x1="612.5" x2="636.5" y1="403.0469" y2="403.0469"/><polygon fill="#181818" points="670,517.6719,680,521.6719,670,525.6719,674,521.6719" style="stroke:#181818;stroke-width:1.0;"/><line style="stroke:#181818;stroke-width:1.0;stroke-dasharray:2.0,2.0;" x1="498.5" x2="676" y1="521.6719" y2="521.6719"/><text fill="#000000" font-family="sans-serif" font-size="13" font-weight="bold" lengthAdjust="spacing" textLength="7" x="541.25" y="492.2881">6</text><text fill="#000000" font-family="sans-serif" font-size="13" lengthAdjust="spacing" textLength="87" x="552.25" y="467.7607">erste Diagnose</text><text fill="#000000" font-family="sans-serif" font-size="13" lengthAdjust="spacing" textLength="8" x="591.75" y="484.1123">+</text><text fill="#000000" font-family="sans-serif" font-size="13" lengthAdjust="spacing" textLength="44" x="573.75" y="500.4639">retrieval</text><text fill="#000000" font-family="sans-serif" font-size="13" lengthAdjust="spacing" textLength="35" x="578.25" y="516.8154">debug</text><polygon fill="#181818" points="48.5,564.375,38.5,568.375,48.5,572.375,44.5,568.375" style="stroke:#181818;stroke-width:1.0;"/><line style="stroke:#181818;stroke-width:1.0;stroke-dasharray:2.0,2.0;" x1="42.5" x2="686" y1="568.375" y2="568.375"/><text fill="#000000" font-family="sans-serif" font-size="13" font-weight="bold" lengthAdjust="spacing" textLength="7" x="285.75" y="555.3428">7</text><text fill="#000000" font-family="sans-serif" font-size="13" lengthAdjust="spacing" textLength="142" x="296.75" y="547.167">auto-generierte Erstfrage</text><text fill="#000000" font-family="sans-serif" font-size="13" lengthAdjust="spacing" textLength="141" x="297.25" y="563.5186">+ erste Diagnoseantwort</text><!--SRC=[NPD1Rzim38Nl_XL4JYjQOxSU0co0rnLP3Xk6TBaP61YRSOGuL4PHITfVFygE7RStMNhl8_aaXxtZ8meU8EomzcV73Mon3PI5yKGe73q7-aaXO4FVgFNdGiIVGILEXO7-HU9g41QjQnWgOYN9Tgucs7gl6t_9CAhdUDZOVgPEMuBdI_KZNnMBl6XC3paisQb3EobuAmOh-G-v5XxXv1aUvoK_IqCRTW4Yrr34qE26iWmhzGApNr7VY6jpBJaeyjiCCC0wMC7AiuflOROGRrQg2mvdaf8Nn2HezauxVaqC4QKMT6t9ltthgjTUc7OpQzhfgsbwc_DSyef2RBKJzSiRwiKTZYsji2dvnS8oUIUxhaVQqmxL1e_I7wT5jabTezYfsRkqIbul-_cMMLO9eT9GS9m2yg_NFPX3h_bKCdQZFvGSxTP4qR6-_YsPlLAuIrcwKuBTidZ7woOtt0bRL_T0wKfChLqwlJ9FdX4m1x-7px3cuAeToOwSmW5bxwoHhAOFX6bbmro3CiWjyEl8K-lOzxWr93par4Kwq0oSlgS9sMtHbrcqXpEpc9Gk-Z34TdVpcN6zD1j9CEPtXmtxO8_lFYMYuiWYAksjRM8pxMzePjn85sYWZcSbZPZ-bBn9SwHSx3-n2jV_uVv3EMGz-_VP6Uy_]--></g></svg>