<?xml version="1.0" encoding="us-ascii" standalone="no"?><svg xmlns="http://www.w3.org/2000/svg" xmlns:xlink="http://www.w3.org/1999/xlink" contentStyleType="text/css" height="576px" preserveAspectRatio="none" style="width:816px;height:576px;background:#FFFFFF;" version="1.1" viewBox="0 0 816 576" width="816px" zoomAndPan="magnify"><defs/><g><!--cluster Exception-Handling-Agent--><g id="cluster_Exception-Handling-Agent"><rect fill="none" height="563" rx="2.5" ry="2.5" style="stroke:#181818;stroke-width:1.0;" width="367" x="286" y="7"/><text fill="#000000" font-family="sans-serif" font-size="14" font-weight="bold" lengthAdjust="spacing" textLength="183" x="378" y="23.5332">Exception-Handling-Agent</text></g><g id="elem_UC5"><ellipse cx="469.5513" cy="398.8551" fill="#F1F1F1" rx="117.5513" ry="40.3551" style="stroke:#181818;stroke-width:0.5;"/><text fill="#000000" font-family="sans-serif" font-size="14" lengthAdjust="spacing" textLength="150" x="394.5513" y="384.9743">Steuerungs&#228;nderungen</text><text fill="#000000" font-family="sans-serif" font-size="14" lengthAdjust="spacing" textLength="140" x="399.5513" y="402.5836">nachverfolgen und mit</text><text fill="#000000" font-family="sans-serif" font-size="14" lengthAdjust="spacing" textLength="92" x="423.5513" y="420.193">FMEA koppeln</text></g><g id="elem_UC5a"><ellipse cx="469.6829" cy="523.1366" fill="#F1F1F1" rx="141.1829" ry="30.6366" style="stroke:#181818;stroke-width:0.5;"/><text fill="#000000" font-family="sans-serif" font-size="14" lengthAdjust="spacing" textLength="98" x="420.6829" y="518.0604">&#196;nderungen an</text><text fill="#000000" font-family="sans-serif" font-size="14" lengthAdjust="spacing" textLength="201" x="369.1829" y="535.6698">Steuerungsartefakten erkennen</text></g><g id="elem_UC5b"><ellipse cx="469.4382" cy="182.9438" fill="#F1F1F1" rx="167.4382" ry="40.4438" style="stroke:#181818;stroke-width:0.5;"/><text fill="#000000" font-family="sans-serif" font-size="14" lengthAdjust="spacing" textLength="220" x="356.4382" y="169.851">&#196;nderungen einer FMEA-Funktion,</text><text fill="#000000" font-family="sans-serif" font-size="14" lengthAdjust="spacing" textLength="175" x="378.9382" y="187.4604">Monitoring-Ma&#223;nahme oder</text><text fill="#000000" font-family="sans-serif" font-size="14" lengthAdjust="spacing" textLength="160" x="386.4382" y="205.0698">Systemreaktion zuordnen</text></g><g id="elem_UC5c"><ellipse cx="469.4418" cy="281.9884" fill="#F1F1F1" rx="105.4418" ry="23.4884" style="stroke:#181818;stroke-width:0.5;"/><text fill="#000000" font-family="sans-serif" font-size="14" lengthAdjust="spacing" textLength="173" x="382.9418" y="285.7169">Benachrichtigung erzeugen</text></g><g id="elem_UC5d"><ellipse cx="469.6305" cy="75.1261" fill="#F1F1F1" rx="148.6305" ry="32.1261" style="stroke:#181818;stroke-width:0.5;"/><text fill="#000000" font-family="sans-serif" font-size="14" lengthAdjust="spacing" textLength="84" x="427.6305" y="70.0499">Vorschlag f&#252;r</text><text fill="#000000" font-family="sans-serif" font-size="14" lengthAdjust="spacing" textLength="220" x="359.6305" y="87.6593">Schnittstellenkonfiguration ableiten</text></g><!--entity FMEA--><g id="elem_FMEA"><ellipse cx="95" cy="266.5" fill="#F1F1F1" rx="8" ry="8" style="stroke:#181818;stroke-width:0.5;"/><path d="M95,274.5 L95,301.5 M82,282.5 L108,282.5 M95,301.5 L82,316.5 M95,301.5 L108,316.5 " fill="none" style="stroke:#181818;stroke-width:0.5;"/><text fill="#000000" font-family="sans-serif" font-size="14" lengthAdjust="spacing" textLength="79" x="55.5" y="332.5332">FMEA-Team</text></g><!--entity PE--><g id="elem_PE"><ellipse cx="95" cy="379.5" fill="#F1F1F1" rx="8" ry="8" style="stroke:#181818;stroke-width:0.5;"/><path d="M95,387.5 L95,414.5 M82,395.5 L108,395.5 M95,414.5 L82,429.5 M95,414.5 L108,429.5 " fill="none" style="stroke:#181818;stroke-width:0.5;"/><text fill="#000000" font-family="sans-serif" font-size="14" lengthAdjust="spacing" textLength="109" x="40.5" y="445.5332">Prozessingenieur</text></g><!--entity PLC--><g id="elem_PLC"><rect fill="#F1F1F1" height="55.2188" rx="2.5" ry="2.5" style="stroke:#181818;stroke-width:0.5;" width="176" x="7" y="495.5"/><text fill="#000000" font-family="sans-serif" font-size="14" font-style="italic" lengthAdjust="spacing" textLength="62" x="64" y="520.0332">&#171;System&#187;</text><text fill="#000000" font-family="sans-serif" font-size="14" lengthAdjust="spacing" textLength="156" x="17" y="537.6426">SPS / Steuerungssystem</text></g><!--entity KG--><g id="elem_KG"><rect fill="#F1F1F1" height="55.2188" rx="2.5" ry="2.5" style="stroke:#181818;stroke-width:0.5;" width="110" x="700" y="371.5"/><text fill="#000000" font-family="sans-serif" font-size="14" font-style="italic" lengthAdjust="spacing" textLength="62" x="724" y="396.0332">&#171;System&#187;</text><text fill="#000000" font-family="sans-serif" font-size="14" lengthAdjust="spacing" textLength="90" x="710" y="413.6426">Wissensgraph</text></g><!--link FMEA to UC5--><g id="link_FMEA_UC5"><path d="M134.81,307.63 C191.64,323.19 293.3929,351.0557 371.0529,372.3157 " fill="none" id="FMEA-to-UC5" style="stroke:#181818;stroke-width:1.0;"/><polygon fill="#181818" points="376.84,373.9,369.2156,367.6656,372.0174,372.5798,367.1032,375.3817,376.84,373.9" style="stroke:#181818;stroke-width:1.0;"/></g><!--link PE to UC5--><g id="link_PE_UC5"><path d="M149.77,408.41 C202.45,406.86 278.4726,404.6065 346.1026,402.6165 " fill="none" id="PE-to-UC5" style="stroke:#181818;stroke-width:1.0;"/><polygon fill="#181818" points="352.1,402.44,342.9862,398.7064,347.1022,402.5871,343.2215,406.703,352.1,402.44" style="stroke:#181818;stroke-width:1.0;"/></g><!--link PLC to UC5a--><g id="link_PLC_UC5a"><path d="M183.33,523 C226.45,523 273.53,523 322.15,523 " fill="none" id="PLC-to-UC5a" style="stroke:#181818;stroke-width:1.0;"/><polygon fill="#181818" points="328.15,523,319.15,519,323.15,523,319.15,527,328.15,523" style="stroke:#181818;stroke-width:1.0;"/></g><!--link UC5 to KG--><g id="link_UC5_KG"><path d="M587.04,399 C626.13,399 661.87,399 693.84,399 " fill="none" id="UC5-to-KG" style="stroke:#181818;stroke-width:1.0;"/><polygon fill="#181818" points="699.84,399,690.84,395,694.84,399,690.84,403,699.84,399" style="stroke:#181818;stroke-width:1.0;"/></g><!--link UC5 to UC5a--><g id="link_UC5_UC5a"><path d="M469.5,439.59 C469.5,456.76 469.5,470.43 469.5,486.35 " fill="none" id="UC5-to-UC5a" style="stroke:#181818;stroke-width:1.0;stroke-dasharray:7.0,7.0;"/><polygon fill="#181818" points="469.5,492.35,473.5,483.35,469.5,487.35,465.5,483.35,469.5,492.35" style="stroke:#181818;stroke-width:1.0;"/><text fill="#000000" font-family="sans-serif" font-size="13" lengthAdjust="spacing" textLength="55" x="430" y="471.4951">&#171;include&#187;</text></g><!--link UC5 to UC5b--><g id="link_UC5_UC5b"><path d="M378.78,372.98 C300.13,345.77 205.54,298.84 251,240 C266.64,219.76 282.8904,208.2588 306.7904,199.1888 " fill="none" id="UC5-to-UC5b" style="stroke:#181818;stroke-width:1.0;stroke-dasharray:7.0,7.0;"/><polygon fill="#181818" points="312.4,197.06,302.5663,196.5135,307.7253,198.834,305.4048,203.993,312.4,197.06" style="stroke:#181818;stroke-width:1.0;"/><text fill="#000000" font-family="sans-serif" font-size="13" lengthAdjust="spacing" textLength="55" x="214" y="254.4951">&#171;include&#187;</text></g><!--link UC5 to UC5c--><g id="link_UC5_UC5c"><path d="M469.5,358.41 C469.5,340.85 469.5,326.91 469.5,311.81 " fill="none" id="UC5-to-UC5c" style="stroke:#181818;stroke-width:1.0;stroke-dasharray:7.0,7.0;"/><polygon fill="#181818" points="469.5,305.81,465.5,314.81,469.5,310.81,473.5,314.81,469.5,305.81" style="stroke:#181818;stroke-width:1.0;"/><text fill="#000000" font-family="sans-serif" font-size="13" lengthAdjust="spacing" textLength="55" x="430" y="337.4951">&#171;include&#187;</text></g><!--link UC5 to UC5d--><g id="link_UC5_UC5d"><path d="M366.46,379.15 C333.68,367.9 300.21,350.35 278,323 C228.66,262.26 218.94,220.39 251,149 C265.68,116.3 291.0841,99.2128 325.3541,88.4828 " fill="none" id="UC5-to-UC5d" style="stroke:#181818;stroke-width:1.0;stroke-dasharray:7.0,7.0;"/><polygon fill="#181818" points="331.08,86.69,321.296,85.5619,326.3084,88.184,323.6863,93.1964,331.08,86.69" style="stroke:#181818;stroke-width:1.0;"/><text fill="#000000" font-family="sans-serif" font-size="13" lengthAdjust="spacing" textLength="55" x="214" y="163.4951">&#171;include&#187;</text></g><!--SRC=[TLAnRjim4Dtv5GVFKJjbAG81gU4qG6F0WDfqyN8cJn8X-YYGLDeuwDR_wDBFwEOVwv55RBM05-78z-wzTqSvQXCa3y5sVG9Z0-baFQiuM1unu1v6r0DsrAHdHv1XvCxHZ11xDFwhvGvQT96KGfryWCNTUdLRVIBSBm0ZvDChiWd-G35A2x6bAHJ2PgLEwh1eDWsyXIRHH67YBiRdc4YKRcwQKjLrwNbOpfk-s1Y9OnTmxF-dVloWvjJLDqrZdhIwHpPEebItaYOju4K1J94qnXpZ5E3uYqsfYBVCgFid2grtSeI93UnjsdAU4GO_ZkIupFHvUJrNE_uuQG2Ap5aTGw8MXoG0XO6OwII0bnJ8CeMor-fkuY4FSxNbjMShIyu3hV7uax7V4tXf4hkoZa1Ok72OV30peztSw3tb6OFLVRAT-4ci0qtTcQtdx4SVekuToYzm_9sTT2yfajWvHpnuRaKaOB75dIERpa96VLUgRAwgwhAnpUfSFYnVQrJoAOVybBb-y_SUtibJMzPkCbJNCsHt4T4N4VClyWS0]--></g></svg>