<?xml version="1.0" encoding="us-ascii" standalone="no"?><svg xmlns="http://www.w3.org/2000/svg" xmlns:xlink="http://www.w3.org/1999/xlink" contentStyleType="text/css" height="777px" preserveAspectRatio="none" style="width:712px;height:777px;background:#FFFFFF;" version="1.1" viewBox="0 0 712 777" width="712px" zoomAndPan="magnify"><defs/><g><text fill="#000000" font-family="sans-serif" font-size="14" font-weight="bold" lengthAdjust="spacing" textLength="235" x="240.25" y="29.5332">ExcH-RAG-Agent - Initiale Anfrage</text><text fill="#000000" font-family="sans-serif" font-size="14" font-weight="bold" lengthAdjust="spacing" textLength="84" x="315.75" y="47.1426">Teil 3 von 6:</text><text fill="#000000" font-family="sans-serif" font-size="14" font-weight="bold" lengthAdjust="spacing" textLength="64" x="325.75" y="64.752">Retrieval</text><rect fill="#FFFFFF" height="558.0625" style="stroke:#181818;stroke-width:1.0;" width="10" x="37" y="194.75"/><rect fill="#FFFFFF" height="233.3281" style="stroke:#181818;stroke-width:1.0;" width="10" x="425.5" y="519.4844"/><rect fill="#FFFFFF" height="30.3516" style="stroke:#181818;stroke-width:1.0;" width="10" x="553.5" y="607.8906"/><rect fill="none" height="111.7578" style="stroke:#000000;stroke-width:1.5;" width="323" x="383.5" y="534.4844"/><line style="stroke:#181818;stroke-width:0.5;stroke-dasharray:5.0,5.0;" x1="42" x2="42" y1="146.0469" y2="770.8125"/><line style="stroke:#181818;stroke-width:0.5;stroke-dasharray:5.0,5.0;" x1="270.5" x2="270.5" y1="146.0469" y2="770.8125"/><line style="stroke:#181818;stroke-width:0.5;stroke-dasharray:5.0,5.0;" x1="352.5" x2="352.5" y1="435.8203" y2="770.8125"/><line style="stroke:#181818;stroke-width:0.5;stroke-dasharray:5.0,5.0;" x1="430.5" x2="430.5" y1="146.0469" y2="770.8125"/><line style="stroke:#181818;stroke-width:0.5;stroke-dasharray:5.0,5.0;" x1="558.5" x2="558.5" y1="146.0469" y2="770.8125"/><line style="stroke:#181818;stroke-width:0.5;stroke-dasharray:5.0,5.0;" x1="643.5" x2="643.5" y1="701.8516" y2="770.8125"/><text fill="#000000" font-family="sans-serif" font-size="14" lengthAdjust="spacing" textLength="68" x="5" y="125.3613">SimpleRag</text><text fill="#000000" font-family="sans-serif" font-size="14" lengthAdjust="spacing" textLength="50" x="14" y="142.9707">Session</text><ellipse cx="42" cy="94.8281" fill="#E2E2F0" rx="12" ry="12" style="stroke:#181818;stroke-width:0.5;"/><polygon fill="#181818" points="38,82.8281,44,77.8281,42,82.8281,44,87.8281,38,82.8281" style="stroke:#181818;stroke-width:1.0;"/><text fill="#000000" font-family="sans-serif" font-size="14" lengthAdjust="spacing" textLength="75" x="230.5" y="125.3613">RagIncident</text><text fill="#000000" font-family="sans-serif" font-size="14" lengthAdjust="spacing" textLength="48" x="244" y="142.9707">Context</text><ellipse cx="271" cy="94.8281" fill="#E2E2F0" rx="12" ry="12" style="stroke:#181818;stroke-width:0.5;"/><line style="stroke:#181818;stroke-width:0.5;" x1="259" x2="283" y1="108.8281" y2="108.8281"/><text fill="#000000" font-family="sans-serif" font-size="14" lengthAdjust="spacing" textLength="68" x="393.5" y="125.3613">SimpleRag</text><text fill="#000000" font-family="sans-serif" font-size="14" lengthAdjust="spacing" textLength="33" x="411" y="142.9707">Index</text><ellipse cx="430.5" cy="94.8281" fill="#E2E2F0" rx="12" ry="12" style="stroke:#181818;stroke-width:0.5;"/><polygon fill="#181818" points="426.5,82.8281,432.5,77.8281,430.5,82.8281,432.5,87.8281,426.5,82.8281" style="stroke:#181818;stroke-width:1.0;"/><text fill="#000000" font-family="sans-serif" font-size="14" lengthAdjust="spacing" textLength="40" x="535.5" y="125.3613">Token</text><text fill="#000000" font-family="sans-serif" font-size="14" lengthAdjust="spacing" textLength="42" x="534.5" y="142.9707">Scorer</text><ellipse cx="558.5" cy="94.8281" fill="#E2E2F0" rx="12" ry="12" style="stroke:#181818;stroke-width:0.5;"/><polygon fill="#181818" points="554.5,82.8281,560.5,77.8281,558.5,82.8281,560.5,87.8281,554.5,82.8281" style="stroke:#181818;stroke-width:1.0;"/><rect fill="#FFFFFF" height="558.0625" style="stroke:#181818;stroke-width:1.0;" width="10" x="37" y="194.75"/><rect fill="#FFFFFF" height="233.3281" style="stroke:#181818;stroke-width:1.0;" width="10" x="425.5" y="519.4844"/><rect fill="#FFFFFF" height="30.3516" style="stroke:#181818;stroke-width:1.0;" width="10" x="553.5" y="607.8906"/><polygon fill="#181818" points="259,190.75,269,194.75,259,198.75,263,194.75" style="stroke:#181818;stroke-width:1.0;"/><line style="stroke:#181818;stroke-width:1.0;" x1="47" x2="265" y1="194.75" y2="194.75"/><text fill="#000000" font-family="sans-serif" font-size="13" font-weight="bold" lengthAdjust="spacing" textLength="7" x="125" y="181.7178">1</text><text fill="#000000" font-family="sans-serif" font-size="13" lengthAdjust="spacing" textLength="45" x="142" y="173.542">default_</text><text fill="#000000" font-family="sans-serif" font-size="13" lengthAdjust="spacing" textLength="57" x="136" y="189.8936">question()</text><polygon fill="#181818" points="58,221.1016,48,225.1016,58,229.1016,54,225.1016" style="stroke:#181818;stroke-width:1.0;"/><line style="stroke:#181818;stroke-width:1.0;stroke-dasharray:2.0,2.0;" x1="52" x2="270" y1="225.1016" y2="225.1016"/><text fill="#000000" font-family="sans-serif" font-size="13" font-weight="bold" lengthAdjust="spacing" textLength="7" x="92" y="220.2451">2</text><text fill="#000000" font-family="sans-serif" font-size="13" lengthAdjust="spacing" textLength="123" x="103" y="220.2451">initiale Diagnosefrage</text><polygon fill="#181818" points="259,267.8047,269,271.8047,259,275.8047,263,271.8047" style="stroke:#181818;stroke-width:1.0;"/><line style="stroke:#181818;stroke-width:1.0;" x1="47" x2="265" y1="271.8047" y2="271.8047"/><text fill="#000000" font-family="sans-serif" font-size="13" font-weight="bold" lengthAdjust="spacing" textLength="7" x="106.5" y="258.7725">3</text><text fill="#000000" font-family="sans-serif" font-size="13" lengthAdjust="spacing" textLength="94" x="117.5" y="250.5967">compact_event_</text><text fill="#000000" font-family="sans-serif" font-size="13" lengthAdjust="spacing" textLength="51" x="139" y="266.9482">context()</text><polygon fill="#181818" points="58,298.1563,48,302.1563,58,306.1563,54,302.1563" style="stroke:#181818;stroke-width:1.0;"/><line style="stroke:#181818;stroke-width:1.0;stroke-dasharray:2.0,2.0;" x1="52" x2="270" y1="302.1563" y2="302.1563"/><text fill="#000000" font-family="sans-serif" font-size="13" font-weight="bold" lengthAdjust="spacing" textLength="7" x="80.5" y="297.2998">4</text><text fill="#000000" font-family="sans-serif" font-size="13" lengthAdjust="spacing" textLength="146" x="91.5" y="297.2998">kompakter Event-Kontext</text><polygon fill="#181818" points="259,344.8594,269,348.8594,259,352.8594,263,348.8594" style="stroke:#181818;stroke-width:1.0;"/><line style="stroke:#181818;stroke-width:1.0;" x1="47" x2="265" y1="348.8594" y2="348.8594"/><text fill="#000000" font-family="sans-serif" font-size="13" font-weight="bold" lengthAdjust="spacing" textLength="7" x="103.5" y="335.8271">5</text><text fill="#000000" font-family="sans-serif" font-size="13" lengthAdjust="spacing" textLength="100" x="114.5" y="327.6514">runtime_context_</text><text fill="#000000" font-family="sans-serif" font-size="13" lengthAdjust="spacing" textLength="33" x="148" y="344.0029">note()</text><polygon fill="#181818" points="58,375.2109,48,379.2109,58,383.2109,54,379.2109" style="stroke:#181818;stroke-width:1.0;"/><line style="stroke:#181818;stroke-width:1.0;stroke-dasharray:2.0,2.0;" x1="52" x2="270" y1="379.2109" y2="379.2109"/><text fill="#000000" font-family="sans-serif" font-size="13" font-weight="bold" lengthAdjust="spacing" textLength="7" x="59" y="374.3545">6</text><text fill="#000000" font-family="sans-serif" font-size="13" lengthAdjust="spacing" textLength="189" x="70" y="374.3545">Laufzeit- und Snapshot-Hinweise</text><polygon fill="#181818" points="309.5,438.2656,319.5,442.2656,309.5,446.2656,313.5,442.2656" style="stroke:#181818;stroke-width:1.0;"/><line style="stroke:#181818;stroke-width:1.0;" x1="47" x2="315.5" y1="442.2656" y2="442.2656"/><text fill="#000000" font-family="sans-serif" font-size="13" font-weight="bold" lengthAdjust="spacing" textLength="7" x="152.25" y="421.0576">7</text><text fill="#000000" font-family="sans-serif" font-size="13" lengthAdjust="spacing" textLength="40" x="169.75" y="404.7061">create(</text><text fill="#000000" font-family="sans-serif" font-size="13" lengthAdjust="spacing" textLength="53" x="163.25" y="421.0576">question,</text><text fill="#000000" font-family="sans-serif" font-size="13" lengthAdjust="spacing" textLength="36" x="171.75" y="437.4092">top_k)</text><text fill="#000000" font-family="sans-serif" font-size="14" lengthAdjust="spacing" textLength="56" x="321.5" y="433.7441">Retrieval</text><text fill="#000000" font-family="sans-serif" font-size="14" lengthAdjust="spacing" textLength="39" x="330" y="451.3535">Query</text><ellipse cx="352.5" cy="403.2109" fill="#E2E2F0" rx="12" ry="12" style="stroke:#181818;stroke-width:0.5;"/><line style="stroke:#181818;stroke-width:0.5;" x1="340.5" x2="364.5" y1="417.2109" y2="417.2109"/><polygon fill="#181818" points="413.5,515.4844,423.5,519.4844,413.5,523.4844,417.5,519.4844" style="stroke:#181818;stroke-width:1.0;"/><line style="stroke:#181818;stroke-width:1.0;" x1="47" x2="419.5" y1="519.4844" y2="519.4844"/><text fill="#000000" font-family="sans-serif" font-size="13" font-weight="bold" lengthAdjust="spacing" textLength="7" x="204.25" y="498.2764">8</text><text fill="#000000" font-family="sans-serif" font-size="13" lengthAdjust="spacing" textLength="43" x="220.25" y="481.9248">search(</text><text fill="#000000" font-family="sans-serif" font-size="13" lengthAdjust="spacing" textLength="53" x="215.25" y="498.2764">question,</text><text fill="#000000" font-family="sans-serif" font-size="13" lengthAdjust="spacing" textLength="36" x="223.75" y="514.6279">top_k)</text><path d="M383.5,534.4844 L456.5,534.4844 L456.5,542.8359 L446.5,552.8359 L383.5,552.8359 L383.5,534.4844 " fill="#EEEEEE" style="stroke:#000000;stroke-width:1.5;"/><rect fill="none" height="111.7578" style="stroke:#000000;stroke-width:1.5;" width="323" x="383.5" y="534.4844"/><text fill="#000000" font-family="sans-serif" font-size="13" font-weight="bold" lengthAdjust="spacing" textLength="28" x="398.5" y="548.9795">loop</text><text fill="#000000" font-family="sans-serif" font-size="11" font-weight="bold" lengthAdjust="spacing" textLength="230" x="471.5" y="547.9033">[fuer jedes relevante Dokumentsegment]</text><polygon fill="#181818" points="541.5,603.8906,551.5,607.8906,541.5,611.8906,545.5,607.8906" style="stroke:#181818;stroke-width:1.0;"/><line style="stroke:#181818;stroke-width:1.0;" x1="435.5" x2="547.5" y1="607.8906" y2="607.8906"/><text fill="#000000" font-family="sans-serif" font-size="13" font-weight="bold" lengthAdjust="spacing" textLength="7" x="469.5" y="586.6826">9</text><text fill="#000000" font-family="sans-serif" font-size="13" lengthAdjust="spacing" textLength="36" x="482" y="570.3311">score(</text><text fill="#000000" font-family="sans-serif" font-size="13" lengthAdjust="spacing" textLength="36" x="482" y="586.6826">query,</text><text fill="#000000" font-family="sans-serif" font-size="13" lengthAdjust="spacing" textLength="39" x="480.5" y="603.0342">chunk)</text><polygon fill="#181818" points="446.5,634.2422,436.5,638.2422,446.5,642.2422,442.5,638.2422" style="stroke:#181818;stroke-width:1.0;"/><line style="stroke:#181818;stroke-width:1.0;stroke-dasharray:2.0,2.0;" x1="440.5" x2="557.5" y1="638.2422" y2="638.2422"/><text fill="#000000" font-family="sans-serif" font-size="13" font-weight="bold" lengthAdjust="spacing" textLength="14" x="450" y="633.3857">10</text><text fill="#000000" font-family="sans-serif" font-size="13" lengthAdjust="spacing" textLength="76" x="468" y="633.3857">Relevanzwert</text><polygon fill="#181818" points="580.5,687.9453,590.5,691.9453,580.5,695.9453,584.5,691.9453" style="stroke:#181818;stroke-width:1.0;"/><line style="stroke:#181818;stroke-width:1.0;" x1="435.5" x2="586.5" y1="691.9453" y2="691.9453"/><text fill="#000000" font-family="sans-serif" font-size="13" font-weight="bold" lengthAdjust="spacing" textLength="14" x="473" y="678.9131">11</text><text fill="#000000" font-family="sans-serif" font-size="13" lengthAdjust="spacing" textLength="36" x="505" y="670.7373">create</text><text fill="#000000" font-family="sans-serif" font-size="13" lengthAdjust="spacing" textLength="64" x="491" y="687.0889">ranked hits</text><text fill="#000000" font-family="sans-serif" font-size="14" lengthAdjust="spacing" textLength="96" x="592.5" y="699.7754">RetrievalResult</text><text fill="#000000" font-family="sans-serif" font-size="14" lengthAdjust="spacing" textLength="21" x="630" y="717.3848">Set</text><ellipse cx="643.5" cy="669.2422" fill="#E2E2F0" rx="12" ry="12" style="stroke:#181818;stroke-width:0.5;"/><line style="stroke:#181818;stroke-width:0.5;" x1="631.5" x2="655.5" y1="683.2422" y2="683.2422"/><polygon fill="#181818" points="53,748.8125,43,752.8125,53,756.8125,49,752.8125" style="stroke:#181818;stroke-width:1.0;"/><line style="stroke:#181818;stroke-width:1.0;stroke-dasharray:2.0,2.0;" x1="47" x2="642.5" y1="752.8125" y2="752.8125"/><text fill="#000000" font-family="sans-serif" font-size="13" font-weight="bold" lengthAdjust="spacing" textLength="14" x="280.75" y="747.9561">12</text><text fill="#000000" font-family="sans-serif" font-size="13" lengthAdjust="spacing" textLength="106" x="298.75" y="747.9561">RetrievalResultSet</text><!--SRC=[RLFBRjim4BppAnO-9K1rAj233mNS96YCjeVQEGem66ebiPAMAXz-vEkx56r9JNJoYZixC_kmQpJrqieEN2qBSz9KGIbRXyAD6OkkD-Jm5pedA_o6hJbjh3Kdy3RCWGx_1YHr0svQNH4e98zMrBf0A8tnh-OiPF26GlVAxy9hto8ydTLpjjjyppOLuo63BMcl9MSsL5eco-a5TGkVuMW8lgnpsg6t6e-o5K8PyjQqiDhhhczn9wkSzkn16rg1T72D1JDhVu4L0xQas13vd1wu6Cz-03xuymIwyUVqEw2z380XMjJRKe7d0JD44-R5D4ZiHncBDjaPmez2EtIXzT5wSfE- -Kk8QmUGVOqUOGq5bfAJXvnuvCvpxkvUIENrKNeS6uxOZ6jkvMlGjx4-QbcHSJWCTq50cQvdlWCUsIVBg3GcLlb8saHimrk6fuZEVYJi0giDt7I7XoiRyvBnk4ZwKuRo3RNF8501UvAzgutFdZMTKFDz2cKnzffMCbCQ7c87G_vkcj2ddBpf3ytz73riYz4EfLNr8deSQzgiQ8tfeMGL-8C5Elv_jBm-RWWUJHCwde33Alu8kDB7neQbHw4O91rxOH5L1s8HW6bxwJxWLfFDREwIrji9RQGly7qLKZ6EPZgWqSRuD0ue9okfmG9gxPsOylzluzsHHiwPTXhCtCpr0Fy1]--></g></svg>