<?xml version="1.0" encoding="us-ascii" standalone="no"?><svg xmlns="http://www.w3.org/2000/svg" xmlns:xlink="http://www.w3.org/1999/xlink" contentStyleType="text/css" height="555px" preserveAspectRatio="none" style="width:637px;height:555px;background:#FFFFFF;" version="1.1" viewBox="0 0 637 555" width="637px" zoomAndPan="magnify"><defs/><g><!--cluster Exception-Handling-Agent--><g id="cluster_Exception-Handling-Agent"><rect fill="none" height="471" rx="2.5" ry="2.5" style="stroke:#181818;stroke-width:1.0;" width="375" x="256" y="7"/><text fill="#000000" font-family="sans-serif" font-size="14" font-weight="bold" lengthAdjust="spacing" textLength="183" x="352" y="23.5332">Exception-Handling-Agent</text></g><g id="elem_UC1"><ellipse cx="443.7451" cy="322.949" fill="#F1F1F1" rx="137.7451" ry="29.949" style="stroke:#181818;stroke-width:0.5;"/><text fill="#000000" font-family="sans-serif" font-size="14" lengthAdjust="spacing" textLength="136" x="375.7451" y="317.8729">Ausnahmewissen aus</text><text fill="#000000" font-family="sans-serif" font-size="14" lengthAdjust="spacing" textLength="192" x="347.7451" y="335.4822">FMEA-Artefakten strukturieren</text></g><g id="elem_UC1a"><ellipse cx="443.4802" cy="433.9034" fill="#F1F1F1" rx="110.4802" ry="27.9034" style="stroke:#181818;stroke-width:0.5;"/><text fill="#000000" font-family="sans-serif" font-size="14" lengthAdjust="spacing" textLength="113" x="386.9802" y="428.8272">Informationen aus</text><text fill="#000000" font-family="sans-serif" font-size="14" lengthAdjust="spacing" textLength="140" x="373.4802" y="446.4366">Artefakten extrahieren</text></g><g id="elem_UC1b"><ellipse cx="443.2914" cy="83.8551" fill="#F1F1F1" rx="171.2914" ry="40.3551" style="stroke:#181818;stroke-width:0.5;"/><text fill="#000000" font-family="sans-serif" font-size="14" lengthAdjust="spacing" textLength="143" x="371.7914" y="69.9743">Fehlermodi, Ursachen,</text><text fill="#000000" font-family="sans-serif" font-size="14" lengthAdjust="spacing" textLength="226" x="330.2914" y="87.5836">Wirkungen, Monitoring-Ma&#223;nahmen</text><text fill="#000000" font-family="sans-serif" font-size="14" lengthAdjust="spacing" textLength="188" x="349.2914" y="105.193">und Reaktionen konsolidieren</text></g><g id="elem_UC1c"><ellipse cx="443.3442" cy="199.8551" fill="#F1F1F1" rx="116.8442" ry="40.3551" style="stroke:#181818;stroke-width:0.5;"/><text fill="#000000" font-family="sans-serif" font-size="14" lengthAdjust="spacing" textLength="149" x="368.8442" y="185.9743">Konsistente Struktur f&#252;r</text><text fill="#000000" font-family="sans-serif" font-size="14" lengthAdjust="spacing" textLength="126" x="380.3442" y="203.5836">sp&#228;tere maschinelle</text><text fill="#000000" font-family="sans-serif" font-size="14" lengthAdjust="spacing" textLength="137" x="374.8442" y="221.193">Auswertung erzeugen</text></g><!--entity FMEA--><g id="elem_FMEA"><ellipse cx="80" cy="182.5" fill="#F1F1F1" rx="8" ry="8" style="stroke:#181818;stroke-width:0.5;"/><path d="M80,190.5 L80,217.5 M67,198.5 L93,198.5 M80,217.5 L67,232.5 M80,217.5 L93,232.5 " fill="none" style="stroke:#181818;stroke-width:0.5;"/><text fill="#000000" font-family="sans-serif" font-size="14" lengthAdjust="spacing" textLength="79" x="40.5" y="248.5332">FMEA-Team</text></g><!--entity PE--><g id="elem_PE"><ellipse cx="80" cy="295.5" fill="#F1F1F1" rx="8" ry="8" style="stroke:#181818;stroke-width:0.5;"/><path d="M80,303.5 L80,330.5 M67,311.5 L93,311.5 M80,330.5 L67,345.5 M80,330.5 L93,345.5 " fill="none" style="stroke:#181818;stroke-width:0.5;"/><text fill="#000000" font-family="sans-serif" font-size="14" lengthAdjust="spacing" textLength="109" x="25.5" y="361.5332">Prozessingenieur</text></g><!--entity DOC--><g id="elem_DOC"><rect fill="#F1F1F1" height="55.2188" rx="2.5" ry="2.5" style="stroke:#181818;stroke-width:0.5;" width="146" x="7" y="404.5"/><text fill="#000000" font-family="sans-serif" font-size="14" font-style="italic" lengthAdjust="spacing" textLength="62" x="49" y="429.0332">&#171;System&#187;</text><text fill="#000000" font-family="sans-serif" font-size="14" lengthAdjust="spacing" textLength="126" x="17" y="446.6426">Dokumentenquellen</text></g><!--entity ART--><g id="elem_ART"><rect fill="#F1F1F1" height="55.2188" rx="2.5" ry="2.5" style="stroke:#181818;stroke-width:0.5;" width="120" x="20" y="494.5"/><text fill="#000000" font-family="sans-serif" font-size="14" font-style="italic" lengthAdjust="spacing" textLength="62" x="49" y="519.0332">&#171;System&#187;</text><text fill="#000000" font-family="sans-serif" font-size="14" lengthAdjust="spacing" textLength="100" x="30" y="536.6426">FMEA-Artefakte</text></g><!--link FMEA to UC1--><g id="link_FMEA_UC1"><path d="M119.69,224.77 C177.34,242.31 281.3301,273.9527 356.7201,296.9027 " fill="none" id="FMEA-to-UC1" style="stroke:#181818;stroke-width:1.0;"/><polygon fill="#181818" points="362.46,298.65,355.015,292.2024,357.6767,297.1939,352.6852,299.8556,362.46,298.65" style="stroke:#181818;stroke-width:1.0;"/></g><!--link PE to UC1--><g id="link_PE_UC1"><path d="M134.73,325.55 C179.87,325.18 240.3802,324.6803 300.0302,324.1803 " fill="none" id="PE-to-UC1" style="stroke:#181818;stroke-width:1.0;"/><polygon fill="#181818" points="306.03,324.13,296.9968,320.2056,301.0302,324.1719,297.0638,328.2053,306.03,324.13" style="stroke:#181818;stroke-width:1.0;"/></g><!--link DOC to UC1a--><g id="link_DOC_UC1a"><path d="M153.29,432.4 C204.69,432.68 268.6801,433.037 326.9301,433.357 " fill="none" id="DOC-to-UC1a" style="stroke:#181818;stroke-width:1.0;"/><polygon fill="#181818" points="332.93,433.39,323.9521,429.3406,327.9301,433.3625,323.9082,437.3405,332.93,433.39" style="stroke:#181818;stroke-width:1.0;"/></g><!--link ART to UC1a--><g id="link_ART_UC1a"><path d="M140.29,507.57 C201.08,492.77 290.1602,471.0789 357.3802,454.7189 " fill="none" id="ART-to-UC1a" style="stroke:#181818;stroke-width:1.0;"/><polygon fill="#181818" points="363.21,453.3,353.5194,451.5417,358.3518,454.4824,355.4112,459.3148,363.21,453.3" style="stroke:#181818;stroke-width:1.0;"/></g><!--link UC1 to UC1a--><g id="link_UC1_UC1a"><path d="M443.5,353.34 C443.5,369.77 443.5,383.93 443.5,399.99 " fill="none" id="UC1-to-UC1a" style="stroke:#181818;stroke-width:1.0;stroke-dasharray:7.0,7.0;"/><polygon fill="#181818" points="443.5,405.99,447.5,396.99,443.5,400.99,439.5,396.99,443.5,405.99" style="stroke:#181818;stroke-width:1.0;"/><text fill="#000000" font-family="sans-serif" font-size="13" lengthAdjust="spacing" textLength="55" x="404" y="384.9951">&#171;include&#187;</text></g><!--link UC1 to UC1b--><g id="link_UC1_UC1b"><path d="M331.15,305.55 C300.77,295.95 270.2,281.07 248,258 C212.8,221.42 190.38,187.5 221,147 C237.59,125.06 255.6215,112.4918 281.3515,102.7118 " fill="none" id="UC1-to-UC1b" style="stroke:#181818;stroke-width:1.0;stroke-dasharray:7.0,7.0;"/><polygon fill="#181818" points="286.96,100.58,277.126,100.0387,282.2862,102.3565,279.9684,107.5167,286.96,100.58" style="stroke:#181818;stroke-width:1.0;"/><text fill="#000000" font-family="sans-serif" font-size="13" lengthAdjust="spacing" textLength="55" x="184" y="161.4951">&#171;include&#187;</text></g><!--link UC1 to UC1c--><g id="link_UC1_UC1c"><path d="M443.5,292.91 C443.5,277.26 443.5,263.91 443.5,246.92 " fill="none" id="UC1-to-UC1c" style="stroke:#181818;stroke-width:1.0;stroke-dasharray:7.0,7.0;"/><polygon fill="#181818" points="443.5,240.92,439.5,249.92,443.5,245.92,447.5,249.92,443.5,240.92" style="stroke:#181818;stroke-width:1.0;"/><text fill="#000000" font-family="sans-serif" font-size="13" lengthAdjust="spacing" textLength="55" x="404" y="272.2451">&#171;include&#187;</text></g><!--SRC=[TL71JkCm4BtxAqOvDqXS4OeKGH4hL6r5GLnw6Pn9OiKPTpss2gpsMxZm6NlhZwrTAAH8Ux4yUk_DctbZgGqG77ZJzG4Quqa7urZ9O7Y37aVOe1wmerLujWGPHkuiJGZIO-EsXZjeqGefXJeu3yNLObwNTuHZ0IYGgmEozEw5H9A4s53qUy9ohZwxGt7fXZWI1-9VaQmbBk3yVFKiWSQgolJBdnTJ_jwize5Q709z9zUtTshAdZzfskGzoslangP1oZhD4WhuhG2Ya4P9j3eAOp_IreWG0qPPyx4HWmGVXn2z8P-7J6Rt5wVJ9Z-uTNx4x7ReCP7JK_3O7ubnghwYtf8VNMDcSEy5TKyyM_E3yKFCySrWuTYaLFCE2zozxWVcDKTku9QIoRllu5YSDSsHq-FKwIOnJ8eiPGwhZwMWtVtrQvRDxYqa8OmekZUS3vAsYB8b7z8OGFw5OlVLMAi_IkMae2ohVI3B-UStNUxmHvKkyrMezCB9Um5dwOQ6jOqDLTK4UVmlee-HVm00]--></g></svg>