<?plantuml 1.2026.2?><svg xmlns="http://www.w3.org/2000/svg" xmlns:xlink="http://www.w3.org/1999/xlink" contentStyleType="text/css" data-diagram-type="CLASS" height="1019.375px" preserveAspectRatio="none" style="width:1433px;height:1019px;background:#FFFFFF;" version="1.1" viewBox="0 0 1433 1019" width="1433.5417px" zoomAndPan="magnify"><title>Evaluationsaufbau - Black-Box-Ueberblick</title><defs/><g><g class="title" data-source-line="19"><text fill="#000000" font-family="sans-serif" font-size="20.4167" font-weight="bold" lengthAdjust="spacing" textLength="410.706" x="501.6268" y="35.7776">Evaluationsaufbau - Black-Box-Ueberblick</text></g><!--cluster Eval Orchestrierung--><g class="cluster" data-qualified-name="Eval Orchestrierung" data-source-line="30" id="ent0010"><rect fill="none" height="361.6667" rx="3.6458" ry="3.6458" style="stroke:#000000;stroke-width:2.1875;" width="1121.4583" x="158.9583" y="224.0137"/><text fill="#000000" font-family="sans-serif" font-size="16.0417" font-weight="bold" lengthAdjust="spacing" textLength="153.3436" x="643.0157" y="243.583">Eval Orchestrierung</text></g><!--cluster ExcH KG Agent (Black Box)--><g class="cluster" data-qualified-name="ExcH KG Agent .Black Box." data-source-line="67" id="ent0016"><rect fill="none" height="177.9167" rx="3.6458" ry="3.6458" style="stroke:#000000;stroke-width:2.1875;" width="233.3333" x="553.4375" y="620.6803"/><text fill="#000000" font-family="sans-serif" font-size="16.0417" font-weight="bold" lengthAdjust="spacing" textLength="211.2597" x="564.4743" y="640.2496">ExcH KG Agent (Black Box)</text></g><!--cluster ExcH RAG Agent (Black Box)--><g class="cluster" data-qualified-name="ExcH RAG Agent .Black Box." data-source-line="74" id="ent0018"><rect fill="none" height="177.9167" rx="3.6458" ry="3.6458" style="stroke:#000000;stroke-width:2.1875;" width="245" x="547.6042" y="833.597"/><text fill="#000000" font-family="sans-serif" font-size="16.0417" font-weight="bold" lengthAdjust="spacing" textLength="222.8444" x="558.6819" y="853.1663">ExcH RAG Agent (Black Box)</text></g><!--class ModelConfig--><g class="entity" data-qualified-name="Eval Orchestrierung.ModelConfig" data-source-line="31" id="ent0011"><rect fill="#F1F1F1" height="167.4919" rx="3.6458" ry="3.6458" style="stroke:#181818;stroke-width:0.7292;" width="242.6551" x="549.0625" y="393.9095"/><ellipse cx="619.8903" cy="421.3786" fill="#ADD1B2" rx="13.125" ry="13.125" style="stroke:#181818;stroke-width:1.4583;"/><path d="M622.1234,417.391 Q622.2601,417.1859 622.4424,417.0947 Q622.6247,416.9808 622.8297,416.9808 Q623.1715,416.9808 623.3994,417.2314 Q623.6273,417.4821 623.6273,418.0518 L623.6273,419.4189 Q623.6273,419.9886 623.3994,420.2393 Q623.1715,420.4899 622.8297,420.4899 Q622.5107,420.4899 622.3057,420.3076 Q622.1006,420.1253 622.0094,419.6468 Q621.9639,419.305 621.8044,419.1227 Q621.4853,418.7809 620.8929,418.5758 Q620.3232,418.348 619.7536,418.348 Q619.0244,418.348 618.4092,418.667 Q617.8167,418.986 617.3382,419.6924 Q616.8825,420.3988 616.8825,421.3558 L616.8825,422.404 Q616.8825,423.5661 617.7256,424.3408 Q618.5687,425.1156 620.0726,425.1156 Q620.9613,425.1156 621.5765,424.8649 Q621.9411,424.7282 622.3512,424.318 Q622.6019,424.0674 622.7386,423.999 Q622.8753,423.9079 623.0576,423.9079 Q623.3766,423.9079 623.6273,424.1585 Q623.8779,424.4092 623.8779,424.7282 Q623.8779,425.0472 623.5361,425.4346 Q623.0576,425.9814 622.3057,426.3005 Q621.303,426.7106 620.0726,426.7106 Q618.6598,426.7106 617.5205,426.141 Q616.5863,425.6624 615.9254,424.6598 Q615.2874,423.6344 615.2874,422.4268 L615.2874,421.333 Q615.2874,420.0798 615.8571,419.0088 Q616.4495,417.915 617.4749,417.3454 Q618.5231,416.7529 619.6852,416.7529 Q620.3688,416.7529 620.984,416.9124 Q621.5993,417.0719 622.1234,417.391 Z " fill="#000000"/><text fill="#000000" font-family="sans-serif" font-size="16.0417" font-style="italic" lengthAdjust="spacing" textLength="85.613" x="647.6357" y="417.8538">&#171;dataclass&#187;</text><text fill="#000000" font-family="sans-serif" font-size="16.0417" lengthAdjust="spacing" textLength="90.0621" x="645.4111" y="438.0312">ModelConfig</text><line style="stroke:#181818;stroke-width:0.7292;" x1="550.5208" x2="790.2593" y1="448.8477" y2="448.8477"/><text fill="#000000" font-family="sans-serif" font-size="16.0417" lengthAdjust="spacing" textLength="94.0568" x="557.8125" y="471.3336">+provider: str</text><text fill="#000000" font-family="sans-serif" font-size="16.0417" lengthAdjust="spacing" textLength="79.7932" x="557.8125" y="491.511">+model: str</text><text fill="#000000" font-family="sans-serif" font-size="16.0417" lengthAdjust="spacing" textLength="135.0931" x="557.8125" y="511.6884">+temperature: float</text><text fill="#000000" font-family="sans-serif" font-size="16.0417" lengthAdjust="spacing" textLength="225.1551" x="557.8125" y="531.8658">+planner_provider: Optional[str]</text><text fill="#000000" font-family="sans-serif" font-size="16.0417" lengthAdjust="spacing" textLength="210.8915" x="557.8125" y="552.0433">+planner_model: Optional[str]</text></g><!--class EvalConfig--><g class="entity" data-qualified-name="Eval Orchestrierung.EvalConfig" data-source-line="39" id="ent0012"><rect fill="#F1F1F1" height="259.8682" rx="3.6458" ry="3.6458" style="stroke:#181818;stroke-width:0.7292;" width="297.9315" x="182.2917" y="302.7637"/><ellipse cx="285.8988" cy="330.2327" fill="#ADD1B2" rx="13.125" ry="13.125" style="stroke:#181818;stroke-width:1.4583;"/><path d="M288.1319,326.2451 Q288.2686,326.04 288.4509,325.9489 Q288.6332,325.835 288.8383,325.835 Q289.1801,325.835 289.408,326.0856 Q289.6358,326.3363 289.6358,326.9059 L289.6358,328.2731 Q289.6358,328.8428 289.408,329.0934 Q289.1801,329.3441 288.8383,329.3441 Q288.5193,329.3441 288.3142,329.1618 Q288.1091,328.9795 288.018,328.501 Q287.9724,328.1592 287.8129,327.9769 Q287.4939,327.6351 286.9014,327.43 Q286.3318,327.2021 285.7621,327.2021 Q285.033,327.2021 284.4177,327.5212 Q283.8253,327.8402 283.3468,328.5465 Q282.891,329.2529 282.891,330.21 L282.891,331.2581 Q282.891,332.4202 283.7341,333.195 Q284.5772,333.9697 286.0811,333.9697 Q286.9698,333.9697 287.585,333.7191 Q287.9496,333.5824 288.3598,333.1722 Q288.6104,332.9215 288.7472,332.8532 Q288.8839,332.762 289.0662,332.762 Q289.3852,332.762 289.6358,333.0127 Q289.8865,333.2633 289.8865,333.5824 Q289.8865,333.9014 289.5447,334.2887 Q289.0662,334.8356 288.3142,335.1546 Q287.3116,335.5648 286.0811,335.5648 Q284.6684,335.5648 283.5291,334.9951 Q282.5948,334.5166 281.934,333.514 Q281.296,332.4886 281.296,331.2809 L281.296,330.1872 Q281.296,328.9339 281.8656,327.863 Q282.4581,326.7692 283.4835,326.1995 Q284.5317,325.6071 285.6938,325.6071 Q286.3774,325.6071 286.9926,325.7666 Q287.6078,325.9261 288.1319,326.2451 Z " fill="#000000"/><text fill="#000000" font-family="sans-serif" font-size="16.0417" font-style="italic" lengthAdjust="spacing" textLength="85.613" x="308.503" y="326.708">&#171;dataclass&#187;</text><text fill="#000000" font-family="sans-serif" font-size="16.0417" lengthAdjust="spacing" textLength="77.5765" x="312.5213" y="346.8854">EvalConfig</text><line style="stroke:#181818;stroke-width:0.7292;" x1="183.75" x2="478.7649" y1="357.7018" y2="357.7018"/><text fill="#000000" font-family="sans-serif" font-size="16.0417" lengthAdjust="spacing" textLength="76.2449" x="191.0417" y="380.1878">+agent: str</text><text fill="#000000" font-family="sans-serif" font-size="16.0417" lengthAdjust="spacing" textLength="153.8371" x="191.0417" y="400.3652">+event_json_path: str</text><text fill="#000000" font-family="sans-serif" font-size="16.0417" lengthAdjust="spacing" textLength="96.7513" x="191.0417" y="420.5426">+question: str</text><text fill="#000000" font-family="sans-serif" font-size="16.0417" lengthAdjust="spacing" textLength="152.0355" x="191.0417" y="440.72">+model: ModelConfig</text><text fill="#000000" font-family="sans-serif" font-size="16.0417" lengthAdjust="spacing" textLength="188.5914" x="191.0417" y="460.8974">+kg_ttl_path, xml_path: str</text><text fill="#000000" font-family="sans-serif" font-size="16.0417" lengthAdjust="spacing" textLength="236.7634" x="191.0417" y="481.0748">+pipeline_config, api_key_file: str</text><text fill="#000000" font-family="sans-serif" font-size="16.0417" lengthAdjust="spacing" textLength="280.4315" x="191.0417" y="501.2522">+pricing, planner_pricing: Optional[Dict]</text><text fill="#000000" font-family="sans-serif" font-size="16.0417" lengthAdjust="spacing" textLength="74.4669" x="191.0417" y="521.4296">+top_k: int</text><line style="stroke:#181818;stroke-width:0.7292;" x1="183.75" x2="478.7649" y1="530.7878" y2="530.7878"/><text fill="#000000" font-family="sans-serif" font-size="16.0417" lengthAdjust="spacing" text-decoration="underline" textLength="264.3585" x="191.0417" y="553.2737">+from_json_file(path: str): EvalConfig</text></g><!--class EvalResult--><g class="entity" data-qualified-name="Eval Orchestrierung.EvalResult" data-source-line="51" id="ent0013"><rect fill="#F1F1F1" height="199.3359" rx="3.6458" ry="3.6458" style="stroke:#181818;stroke-width:0.7292;" width="396.9308" x="860.4167" y="361.8262"/><ellipse cx="1013.5235" cy="389.2952" fill="#ADD1B2" rx="13.125" ry="13.125" style="stroke:#181818;stroke-width:1.4583;"/><path d="M1015.7566,385.3076 Q1015.8933,385.1025 1016.0756,385.0114 Q1016.2579,384.8975 1016.463,384.8975 Q1016.8048,384.8975 1017.0326,385.1481 Q1017.2605,385.3988 1017.2605,385.9684 L1017.2605,387.3356 Q1017.2605,387.9053 1017.0326,388.1559 Q1016.8048,388.4066 1016.463,388.4066 Q1016.144,388.4066 1015.9389,388.2243 Q1015.7338,388.042 1015.6426,387.5635 Q1015.5971,387.2217 1015.4376,387.0394 Q1015.1186,386.6976 1014.5261,386.4925 Q1013.9565,386.2646 1013.3868,386.2646 Q1012.6576,386.2646 1012.0424,386.5837 Q1011.4499,386.9027 1010.9714,387.609 Q1010.5157,388.3154 1010.5157,389.2725 L1010.5157,390.3206 Q1010.5157,391.4827 1011.3588,392.2575 Q1012.2019,393.0322 1013.7058,393.0322 Q1014.5945,393.0322 1015.2097,392.7816 Q1015.5743,392.6449 1015.9844,392.2347 Q1016.2351,391.984 1016.3718,391.9157 Q1016.5085,391.8245 1016.6908,391.8245 Q1017.0098,391.8245 1017.2605,392.0752 Q1017.5111,392.3258 1017.5111,392.6449 Q1017.5111,392.9639 1017.1693,393.3512 Q1016.6908,393.8981 1015.9389,394.2171 Q1014.9363,394.6273 1013.7058,394.6273 Q1012.293,394.6273 1011.1537,394.0576 Q1010.2195,393.5791 1009.5587,392.5765 Q1008.9206,391.5511 1008.9206,390.3434 L1008.9206,389.2497 Q1008.9206,387.9964 1009.4903,386.9255 Q1010.0828,385.8317 1011.1081,385.262 Q1012.1563,384.6696 1013.3184,384.6696 Q1014.002,384.6696 1014.6173,384.8291 Q1015.2325,384.9886 1015.7566,385.3076 Z " fill="#000000"/><text fill="#000000" font-family="sans-serif" font-size="16.0417" font-style="italic" lengthAdjust="spacing" textLength="85.613" x="1036.1277" y="385.7705">&#171;dataclass&#187;</text><text fill="#000000" font-family="sans-serif" font-size="16.0417" lengthAdjust="spacing" textLength="76.6757" x="1040.5963" y="405.9479">EvalResult</text><line style="stroke:#181818;stroke-width:0.7292;" x1="861.875" x2="1255.8892" y1="416.7643" y2="416.7643"/><text fill="#000000" font-family="sans-serif" font-size="16.0417" lengthAdjust="spacing" textLength="195.7193" x="869.1667" y="439.2503">+agent, provider, model: str</text><text fill="#000000" font-family="sans-serif" font-size="16.0417" lengthAdjust="spacing" textLength="157.3775" x="869.1667" y="459.4277">+question, answer: str</text><text fill="#000000" font-family="sans-serif" font-size="16.0417" lengthAdjust="spacing" textLength="351.7966" x="869.1667" y="479.6051">+t_initial_analysis_s, t_question_s, t_total_s: float</text><text fill="#000000" font-family="sans-serif" font-size="16.0417" lengthAdjust="spacing" textLength="379.4308" x="869.1667" y="499.7825">+prompt_tokens, completion_tokens, total_tokens: int</text><text fill="#000000" font-family="sans-serif" font-size="16.0417" lengthAdjust="spacing" textLength="112.8086" x="869.1667" y="519.9599">+cost_usd: float</text><line style="stroke:#181818;stroke-width:0.7292;" x1="861.875" x2="1255.8892" y1="529.318" y2="529.318"/><text fill="#000000" font-family="sans-serif" font-size="16.0417" lengthAdjust="spacing" textLength="159.1556" x="869.1667" y="551.804">+save(path: str): None</text></g><!--class EvalRunnerAPI--><g class="entity" data-qualified-name="Eval Orchestrierung.EvalRunnerAPI" data-source-line="60" id="ent0014"><rect fill="#F1F1F1" height="86.7822" rx="3.6458" ry="3.6458" style="stroke:#181818;stroke-width:0.7292;" width="292.566" x="523.5417" y="270.6803"/><ellipse cx="609.5182" cy="298.1494" fill="#ADD1B2" rx="13.125" ry="13.125" style="stroke:#181818;stroke-width:1.4583;"/><path d="M611.7513,294.1618 Q611.888,293.9567 612.0703,293.8656 Q612.2526,293.7516 612.4576,293.7516 Q612.7994,293.7516 613.0273,294.0023 Q613.2552,294.2529 613.2552,294.8226 L613.2552,296.1898 Q613.2552,296.7594 613.0273,297.0101 Q612.7994,297.2607 612.4576,297.2607 Q612.1386,297.2607 611.9335,297.0785 Q611.7285,296.8962 611.6373,296.4176 Q611.5917,296.0758 611.4322,295.8936 Q611.1132,295.5518 610.5208,295.3467 Q609.9511,295.1188 609.3815,295.1188 Q608.6523,295.1188 608.0371,295.4378 Q607.4446,295.7568 606.9661,296.4632 Q606.5104,297.1696 606.5104,298.1266 L606.5104,299.1748 Q606.5104,300.3369 607.3535,301.1117 Q608.1966,301.8864 609.7005,301.8864 Q610.5891,301.8864 611.2044,301.6357 Q611.569,301.499 611.9791,301.0889 Q612.2298,300.8382 612.3665,300.7699 Q612.5032,300.6787 612.6855,300.6787 Q613.0045,300.6787 613.2552,300.9294 Q613.5058,301.18 613.5058,301.499 Q613.5058,301.818 613.164,302.2054 Q612.6855,302.7523 611.9335,303.0713 Q610.9309,303.4814 609.7005,303.4814 Q608.2877,303.4814 607.1484,302.9118 Q606.2141,302.4333 605.5533,301.4307 Q604.9153,300.4053 604.9153,299.1976 L604.9153,298.1038 Q604.9153,296.8506 605.485,295.7796 Q606.0774,294.6859 607.1028,294.1162 Q608.151,293.5238 609.3131,293.5238 Q609.9967,293.5238 610.6119,293.6833 Q611.2272,293.8428 611.7513,294.1618 Z " fill="#000000"/><text fill="#000000" font-family="sans-serif" font-size="16.0417" font-style="italic" lengthAdjust="spacing" textLength="70.4564" x="654.6485" y="294.6246">&#171;module&#187;</text><text fill="#000000" font-family="sans-serif" font-size="16.0417" lengthAdjust="spacing" textLength="109.6755" x="635.039" y="314.802">EvalRunnerAPI</text><line style="stroke:#181818;stroke-width:0.7292;" x1="525" x2="814.6494" y1="325.6185" y2="325.6185"/><text fill="#000000" font-family="sans-serif" font-size="16.0417" lengthAdjust="spacing" textLength="275.066" x="532.2917" y="348.1045">+run_eval(cfg: EvalConfig): EvalResult</text></g><!--class KgAgentAPI--><g class="entity" data-qualified-name="ExcH KG Agent .Black Box..KgAgentAPI" data-source-line="68" id="ent0017"><rect fill="#F1F1F1" height="106.9596" rx="3.6458" ry="3.6458" style="stroke:#181818;stroke-width:0.7292;" width="186.4623" x="576.7708" y="668.0762"/><ellipse cx="621.9327" cy="695.5452" fill="#ADD1B2" rx="13.125" ry="13.125" style="stroke:#181818;stroke-width:1.4583;"/><path d="M624.1658,691.5576 Q624.3025,691.3525 624.4848,691.2614 Q624.6671,691.1475 624.8722,691.1475 Q625.214,691.1475 625.4418,691.3981 Q625.6697,691.6488 625.6697,692.2184 L625.6697,693.5856 Q625.6697,694.1553 625.4418,694.4059 Q625.214,694.6566 624.8722,694.6566 Q624.5531,694.6566 624.3481,694.4743 Q624.143,694.292 624.0518,693.8135 Q624.0063,693.4717 623.8468,693.2894 Q623.5278,692.9476 622.9353,692.7425 Q622.3656,692.5146 621.796,692.5146 Q621.0668,692.5146 620.4516,692.8337 Q619.8591,693.1527 619.3806,693.859 Q618.9249,694.5654 618.9249,695.5225 L618.9249,696.5706 Q618.9249,697.7327 619.768,698.5075 Q620.6111,699.2822 622.115,699.2822 Q623.0037,699.2822 623.6189,699.0316 Q623.9835,698.8949 624.3936,698.4847 Q624.6443,698.234 624.781,698.1657 Q624.9177,698.0745 625.1,698.0745 Q625.419,698.0745 625.6697,698.3252 Q625.9203,698.5758 625.9203,698.8949 Q625.9203,699.2139 625.5785,699.6012 Q625.1,700.1481 624.3481,700.4671 Q623.3455,700.8773 622.115,700.8773 Q620.7022,700.8773 619.5629,700.3076 Q618.6287,699.8291 617.9679,698.8265 Q617.3298,697.8011 617.3298,696.5934 L617.3298,695.4997 Q617.3298,694.2464 617.8995,693.1755 Q618.4919,692.0817 619.5173,691.512 Q620.5655,690.9196 621.7276,690.9196 Q622.4112,690.9196 623.0265,691.0791 Q623.6417,691.2386 624.1658,691.5576 Z " fill="#000000"/><text fill="#000000" font-family="sans-serif" font-size="16.0417" font-style="italic" lengthAdjust="spacing" textLength="39.2504" x="669.33" y="692.0205">&#171;api&#187;</text><text fill="#000000" font-family="sans-serif" font-size="16.0417" lengthAdjust="spacing" textLength="87.3989" x="645.2557" y="712.1979">KgAgentAPI</text><line style="stroke:#181818;stroke-width:0.7292;" x1="578.2292" x2="761.7748" y1="723.0143" y2="723.0143"/><text fill="#000000" font-family="sans-serif" font-size="16.0417" lengthAdjust="spacing" textLength="168.9623" x="585.5208" y="745.5003">+run_initial_analysis(...)</text><text fill="#000000" font-family="sans-serif" font-size="16.0417" lengthAdjust="spacing" textLength="105.6651" x="585.5208" y="765.6777">+ask(question)</text></g><!--class RagAgentAPI--><g class="entity" data-qualified-name="ExcH RAG Agent .Black Box..RagAgentAPI" data-source-line="75" id="ent0019"><rect fill="#F1F1F1" height="106.9596" rx="3.6458" ry="3.6458" style="stroke:#181818;stroke-width:0.7292;" width="186.4623" x="576.7708" y="880.9928"/><ellipse cx="617.5197" cy="908.4619" fill="#ADD1B2" rx="13.125" ry="13.125" style="stroke:#181818;stroke-width:1.4583;"/><path d="M619.7528,904.4743 Q619.8895,904.2692 620.0718,904.1781 Q620.2541,904.0641 620.4591,904.0641 Q620.8009,904.0641 621.0288,904.3148 Q621.2567,904.5654 621.2567,905.1351 L621.2567,906.5023 Q621.2567,907.0719 621.0288,907.3226 Q620.8009,907.5732 620.4591,907.5732 Q620.1401,907.5732 619.935,907.391 Q619.73,907.2087 619.6388,906.7301 Q619.5932,906.3883 619.4337,906.2061 Q619.1147,905.8643 618.5223,905.6592 Q617.9526,905.4313 617.383,905.4313 Q616.6538,905.4313 616.0386,905.7503 Q615.4461,906.0693 614.9676,906.7757 Q614.5119,907.4821 614.5119,908.4391 L614.5119,909.4873 Q614.5119,910.6494 615.355,911.4242 Q616.1981,912.1989 617.702,912.1989 Q618.5906,912.1989 619.2059,911.9482 Q619.5705,911.8115 619.9806,911.4014 Q620.2313,911.1507 620.368,911.0824 Q620.5047,910.9912 620.687,910.9912 Q621.006,910.9912 621.2567,911.2419 Q621.5073,911.4925 621.5073,911.8115 Q621.5073,912.1305 621.1655,912.5179 Q620.687,913.0648 619.935,913.3838 Q618.9324,913.7939 617.702,913.7939 Q616.2892,913.7939 615.1499,913.2243 Q614.2156,912.7458 613.5548,911.7432 Q612.9168,910.7178 612.9168,909.5101 L612.9168,908.4163 Q612.9168,907.1631 613.4865,906.0921 Q614.0789,904.9984 615.1043,904.4287 Q616.1525,903.8363 617.3146,903.8363 Q617.9982,903.8363 618.6134,903.9958 Q619.2287,904.1553 619.7528,904.4743 Z " fill="#000000"/><text fill="#000000" font-family="sans-serif" font-size="16.0417" font-style="italic" lengthAdjust="spacing" textLength="39.2504" x="668.8396" y="904.9371">&#171;api&#187;</text><text fill="#000000" font-family="sans-serif" font-size="16.0417" lengthAdjust="spacing" textLength="97.2056" x="639.862" y="925.1145">RagAgentAPI</text><line style="stroke:#181818;stroke-width:0.7292;" x1="578.2292" x2="761.7748" y1="935.931" y2="935.931"/><text fill="#000000" font-family="sans-serif" font-size="16.0417" lengthAdjust="spacing" textLength="168.9623" x="585.5208" y="958.417">+run_initial_analysis(...)</text><text fill="#000000" font-family="sans-serif" font-size="16.0417" lengthAdjust="spacing" textLength="105.6651" x="585.5208" y="978.5944">+ask(question)</text></g><!--entity ConfigJson--><g class="entity" data-qualified-name="ConfigJson" data-source-line="21" id="ent0002"><rect fill="#F1F1F1" height="49.3441" rx="3.6458" ry="3.6458" style="stroke:#181818;stroke-width:0.7292;" width="122.777" x="11.6667" y="365.472"/><text fill="#000000" font-family="sans-serif" font-size="16.0417" lengthAdjust="spacing" textLength="93.6103" x="26.25" y="396.708">Config JSON</text></g><!--entity EventJson--><g class="entity" data-qualified-name="EventJson" data-source-line="22" id="ent0003"><rect fill="#F1F1F1" height="49.3441" rx="3.6458" ry="3.6458" style="stroke:#181818;stroke-width:0.7292;" width="117.4272" x="271.9792" y="66.5137"/><text fill="#000000" font-family="sans-serif" font-size="16.0417" lengthAdjust="spacing" textLength="88.2605" x="286.5625" y="97.7496">Event JSON</text></g><!--entity ApiKeyFile--><g class="entity" data-qualified-name="ApiKeyFile" data-source-line="23" id="ent0004"><rect fill="#F1F1F1" height="49.3441" rx="3.6458" ry="3.6458" style="stroke:#181818;stroke-width:0.7292;" width="129.0276" x="266.875" y="151.097"/><text fill="#000000" font-family="sans-serif" font-size="16.0417" lengthAdjust="spacing" textLength="99.8609" x="281.4583" y="182.333">API Key Datei</text></g><!--entity PricingJson--><g class="entity" data-qualified-name="PricingJson" data-source-line="24" id="ent0005"><rect fill="#F1F1F1" height="49.3441" rx="3.6458" ry="3.6458" style="stroke:#181818;stroke-width:0.7292;" width="125.4402" x="10.2083" y="450.0553"/><text fill="#000000" font-family="sans-serif" font-size="16.0417" lengthAdjust="spacing" textLength="96.2735" x="24.7917" y="481.2913">Pricing JSON</text></g><!--entity KgTtl--><g class="entity" data-qualified-name="KgTtl" data-source-line="25" id="ent0006"><rect fill="#F1F1F1" height="49.3441" rx="3.6458" ry="3.6458" style="stroke:#181818;stroke-width:0.7292;" width="85.3203" x="288.0208" y="696.5137"/><text fill="#000000" font-family="sans-serif" font-size="16.0417" lengthAdjust="spacing" textLength="56.1537" x="302.6042" y="727.7496">KG TTL</text></g><!--entity PlcXml--><g class="entity" data-qualified-name="PlcXml" data-source-line="26" id="ent0007"><rect fill="#F1F1F1" height="49.3441" rx="3.6458" ry="3.6458" style="stroke:#181818;stroke-width:0.7292;" width="137.0563" x="262.5" y="867.1387"/><text fill="#000000" font-family="sans-serif" font-size="16.0417" lengthAdjust="spacing" textLength="107.8896" x="277.0833" y="898.3746">PLCOpen XML</text></g><!--entity PipelineConfig--><g class="entity" data-qualified-name="PipelineConfig" data-source-line="27" id="ent0008"><rect fill="#F1F1F1" height="49.3441" rx="3.6458" ry="3.6458" style="stroke:#181818;stroke-width:0.7292;" width="137.0719" x="262.5" y="951.722"/><text fill="#000000" font-family="sans-serif" font-size="16.0417" lengthAdjust="spacing" textLength="107.9053" x="277.0833" y="982.958">Pipeline Config</text></g><!--entity ResultJson--><g class="entity" data-qualified-name="ResultJson" data-source-line="28" id="ent0009"><rect fill="#F1F1F1" height="49.3441" rx="3.6458" ry="3.6458" style="stroke:#181818;stroke-width:0.7292;" width="121.8762" x="1303.75" y="436.9303"/><text fill="#000000" font-family="sans-serif" font-size="16.0417" lengthAdjust="spacing" textLength="92.7096" x="1318.3333" y="468.1663">Result JSON</text></g><!--reverse link EvalConfig to ModelConfig--><g class="link" data-entity-1="ent0012" data-entity-2="ent0011" data-link-type="composition" data-source-line="64" id="lnk15"><path codeLine="64" d="M497.7583,477.7637 C520.6687,477.7637 526.5896,477.7637 548.8146,477.7637" fill="none" id="EvalConfig-backto-ModelConfig" style="stroke:#181818;stroke-width:1.4583;"/><polygon fill="#181818" points="480.2583,477.7637,489.0083,483.597,497.7583,477.7637,489.0083,471.9303,480.2583,477.7637" style="stroke:#181818;stroke-width:1.4583;"/></g><!--link ConfigJson to EvalConfig--><g class="link" data-entity-1="ent0002" data-entity-2="ent0012" data-link-type="dependency" data-source-line="81" id="lnk20"><path codeLine="81" d="M134.75,390.2637 C149.3625,390.2637 156.8292,390.2637 173.4833,390.2637" fill="none" id="ConfigJson-to-EvalConfig" style="stroke:#181818;stroke-width:1.4583;"/><polygon fill="#181818" points="182.2333,390.2637,169.1083,384.4303,174.9417,390.2637,169.1083,396.097,182.2333,390.2637" style="stroke:#181818;stroke-width:1.4583;"/><text fill="#000000" font-family="sans-serif" font-size="16.0417" lengthAdjust="spacing" textLength="110.5449" x="47.6583" y="408.3746">from_json_file()</text></g><!--link PricingJson to EvalConfig--><g class="link" data-entity-1="ent0005" data-entity-2="ent0012" data-link-type="dependency" data-source-line="82" id="lnk21"><path codeLine="82" d="M136.0625,474.847 C150.2375,474.847 157.1208,474.847 173.1771,474.847" fill="none" id="PricingJson-to-EvalConfig" style="stroke:#181818;stroke-width:1.4583;"/><polygon fill="#181818" points="181.9271,474.847,168.8021,469.0137,174.6354,474.847,168.8021,480.6803,181.9271,474.847" style="stroke:#181818;stroke-width:1.4583;"/><text fill="#000000" font-family="sans-serif" font-size="16.0417" lengthAdjust="spacing" textLength="47.2556" x="110.8625" y="492.958">pricing</text></g><!--link EvalConfig to EvalRunnerAPI--><g class="link" data-entity-1="ent0012" data-entity-2="ent0014" data-link-type="dependency" data-source-line="83" id="lnk22"><path codeLine="83" d="M480.2583,330.472 C494.4625,330.472 500.1208,330.472 514.3104,330.472" fill="none" id="EvalConfig-to-EvalRunnerAPI" style="stroke:#181818;stroke-width:1.4583;"/><polygon fill="#181818" points="523.0604,330.472,509.9354,324.6387,515.7688,330.472,509.9354,336.3053,523.0604,330.472" style="stroke:#181818;stroke-width:1.4583;"/><text fill="#000000" font-family="sans-serif" font-size="16.0417" lengthAdjust="spacing" textLength="21.3993" x="479.7771" y="348.583">cfg</text></g><!--link EventJson to EvalRunnerAPI--><g class="link" data-entity-1="ent0003" data-entity-2="ent0014" data-link-type="dependency" data-source-line="84" id="lnk23"><path codeLine="84" d="M390.2354,91.3053 C487.5792,91.3053 670.8333,91.3053 670.8333,91.3053 C670.8333,91.3053 670.8333,196.5678 670.8333,261.5949" fill="none" id="EventJson-to-EvalRunnerAPI" style="stroke:#181818;stroke-width:1.4583;"/><polygon fill="#181818" points="670.8333,270.3449,676.6667,257.2199,670.8333,263.0533,665,257.2199,670.8333,270.3449" style="stroke:#181818;stroke-width:1.4583;"/><text fill="#000000" font-family="sans-serif" font-size="16.0417" lengthAdjust="spacing" textLength="70.4408" x="548.5958" y="109.4163">Testevent</text></g><!--link ApiKeyFile to EvalRunnerAPI--><g class="link" data-entity-1="ent0004" data-entity-2="ent0014" data-link-type="dependency" data-source-line="85" id="lnk24"><path codeLine="85" d="M331.0417,201.0449 C331.0417,233.7408 331.0417,286.722 331.0417,286.722 C331.0417,286.722 422.975,286.722 514.6021,286.722" fill="none" id="ApiKeyFile-to-EvalRunnerAPI" style="stroke:#181818;stroke-width:1.4583;"/><polygon fill="#181818" points="523.3521,286.722,510.2271,280.8887,516.0604,286.722,510.2271,292.5553,523.3521,286.722" style="stroke:#181818;stroke-width:1.4583;"/><text fill="#000000" font-family="sans-serif" font-size="16.0417" lengthAdjust="spacing" textLength="105.2186" x="277.9" y="282.958">_set_api_key()</text></g><!--link EvalRunnerAPI to KgAgentAPI--><g class="link" data-entity-1="ent0014" data-entity-2="ent0017" data-link-type="dependency" data-source-line="87" id="lnk25"><path codeLine="87" d="M541.0417,358.2387 C541.0417,454.8095 541.0417,677.5553 541.0417,677.5553 C541.0417,677.5553 547.5458,677.5553 567.5542,677.5553" fill="none" id="EvalRunnerAPI-to-KgAgentAPI" style="stroke:#181818;stroke-width:1.4583;"/><polygon fill="#181818" points="576.3042,677.5553,563.1792,671.722,569.0125,677.5553,563.1792,683.3887,576.3042,677.5553" style="stroke:#181818;stroke-width:1.4583;"/><text fill="#000000" font-family="sans-serif" font-size="16.0417" lengthAdjust="spacing" textLength="108.3517" x="431.6667" y="531.7642">falls agent = kg</text></g><!--link EvalRunnerAPI to RagAgentAPI--><g class="link" data-entity-1="ent0014" data-entity-2="ent0019" data-link-type="dependency" data-source-line="88" id="lnk26"><path codeLine="88" d="M532.2917,358.6324 C532.2917,493.397 532.2917,889.9178 532.2917,889.9178 C532.2917,889.9178 543.3313,889.9178 567.9042,889.9178" fill="none" id="EvalRunnerAPI-to-RagAgentAPI" style="stroke:#181818;stroke-width:1.4583;"/><polygon fill="#181818" points="576.6542,889.9178,563.5292,884.0845,569.3625,889.9178,563.5292,895.7512,576.6542,889.9178" style="stroke:#181818;stroke-width:1.4583;"/><text fill="#000000" font-family="sans-serif" font-size="16.0417" lengthAdjust="spacing" textLength="114.5945" x="533.75" y="664.5746">falls agent = rag</text></g><!--link EvalConfig to KgAgentAPI--><g class="link" data-entity-1="ent0012" data-entity-2="ent0017" data-link-type="dependency" data-source-line="90" id="lnk27"><path codeLine="90" d="M453.5417,562.4053 C453.5417,625.1428 453.5417,687.0345 453.5417,687.0345 C453.5417,687.0345 509.1042,687.0345 567.6271,687.0345" fill="none" id="EvalConfig-to-KgAgentAPI" style="stroke:#181818;stroke-width:1.4583;"/><polygon fill="#181818" points="576.3771,687.0345,563.2521,681.2012,569.0854,687.0345,563.2521,692.8678,576.3771,687.0345" style="stroke:#181818;stroke-width:1.4583;"/><text fill="#000000" font-family="sans-serif" font-size="16.0417" lengthAdjust="spacing" textLength="200.654" x="252.2917" y="682.3663">model, question, kg_ttl_path</text></g><!--link EvalConfig to RagAgentAPI--><g class="link" data-entity-1="ent0012" data-entity-2="ent0019" data-link-type="dependency" data-source-line="91" id="lnk28"><path codeLine="91" d="M427.2917,562.4491 C427.2917,700.422 427.2917,898.8574 427.2917,898.8574 C427.2917,898.8574 499.1437,898.8574 567.4812,898.8574" fill="none" id="EvalConfig-to-RagAgentAPI" style="stroke:#181818;stroke-width:1.4583;"/><polygon fill="#181818" points="576.2312,898.8574,563.1062,893.0241,568.9396,898.8574,563.1062,904.6908,576.2312,898.8574" style="stroke:#181818;stroke-width:1.4583;"/><text fill="#000000" font-family="sans-serif" font-size="16.0417" lengthAdjust="spacing" textLength="235.4162" x="191.0417" y="823.2267">model, question, xml_path, top_k</text></g><!--link KgTtl to KgAgentAPI--><g class="link" data-entity-1="ent0006" data-entity-2="ent0017" data-link-type="dependency" data-source-line="93" id="lnk29"><path codeLine="93" d="M374.675,721.3053 C425.4688,721.3053 502.0604,721.3053 567.9917,721.3053" fill="none" id="KgTtl-to-KgAgentAPI" style="stroke:#181818;stroke-width:1.4583;"/><polygon fill="#181818" points="576.7417,721.3053,563.6167,715.472,569.45,721.3053,563.6167,727.1387,576.7417,721.3053" style="stroke:#181818;stroke-width:1.4583;"/><text fill="#000000" font-family="sans-serif" font-size="16.0417" lengthAdjust="spacing" textLength="98.0594" x="376.5417" y="739.4163">Wissensbasis</text></g><!--link PlcXml to RagAgentAPI--><g class="link" data-entity-1="ent0007" data-entity-2="ent0019" data-link-type="dependency" data-source-line="94" id="lnk30"><path codeLine="94" d="M399.6563,907.797 C450.5521,907.797 511.7729,907.797 567.7875,907.797" fill="none" id="PlcXml-to-RagAgentAPI" style="stroke:#181818;stroke-width:1.4583;"/><polygon fill="#181818" points="576.5375,907.797,563.4125,901.9637,569.2458,907.797,563.4125,913.6303,576.5375,907.797" style="stroke:#181818;stroke-width:1.4583;"/><text fill="#000000" font-family="sans-serif" font-size="16.0417" lengthAdjust="spacing" textLength="127.5031" x="359.7562" y="925.908">statischer Kontext</text></g><!--link PipelineConfig to RagAgentAPI--><g class="link" data-entity-1="ent0008" data-entity-2="ent0019" data-link-type="dependency" data-source-line="95" id="lnk31"><path codeLine="95" d="M399.6563,969.5866 C450.5521,969.5866 511.7729,969.5866 567.7875,969.5866" fill="none" id="PipelineConfig-to-RagAgentAPI" style="stroke:#181818;stroke-width:1.4583;"/><polygon fill="#181818" points="576.5375,969.5866,563.4125,963.7533,569.2458,969.5866,563.4125,975.4199,576.5375,969.5866" style="stroke:#181818;stroke-width:1.4583;"/><text fill="#000000" font-family="sans-serif" font-size="16.0417" lengthAdjust="spacing" textLength="117.712" x="489.5479" y="987.6976">XML Aufloesung</text></g><!--link KgAgentAPI to EvalResult--><g class="link" data-entity-1="ent0017" data-entity-2="ent0013" data-link-type="dependency" data-source-line="97" id="lnk32"><path codeLine="97" d="M763.5396,721.3053 C858.9292,721.3053 993.125,721.3053 993.125,721.3053 C993.125,721.3053 993.125,643.5908 993.125,570.4553" fill="none" id="KgAgentAPI-to-EvalResult" style="stroke:#181818;stroke-width:1.4583;"/><polygon fill="#181818" points="993.125,561.7053,987.2917,574.8303,993.125,568.997,998.9583,574.8303,993.125,561.7053" style="stroke:#181818;stroke-width:1.4583;"/><text fill="#000000" font-family="sans-serif" font-size="16.0417" lengthAdjust="spacing" textLength="156.0538" x="800.625" y="739.4163">answer, usage, zeiten</text></g><!--link RagAgentAPI to EvalResult--><g class="link" data-entity-1="ent0019" data-entity-2="ent0013" data-link-type="dependency" data-source-line="98" id="lnk33"><path codeLine="98" d="M763.9771,934.222 C897.3854,934.222 1125.8333,934.222 1125.8333,934.222 C1125.8333,934.222 1125.8333,709.3762 1125.8333,570.6741" fill="none" id="RagAgentAPI-to-EvalResult" style="stroke:#181818;stroke-width:1.4583;"/><polygon fill="#181818" points="1125.8333,561.9241,1120,575.0491,1125.8333,569.2158,1131.6667,575.0491,1125.8333,561.9241" style="stroke:#181818;stroke-width:1.4583;"/><text fill="#000000" font-family="sans-serif" font-size="16.0417" lengthAdjust="spacing" textLength="156.0538" x="968.3333" y="947.1121">answer, usage, zeiten</text></g><!--link EvalRunnerAPI to EvalResult--><g class="link" data-entity-1="ent0014" data-entity-2="ent0013" data-link-type="dependency" data-source-line="99" id="lnk34"><path codeLine="99" d="M805,358.4866 C805,369.322 805,377.8678 805,377.8678 C805,377.8678 819.2042,377.8678 851.3167,377.8678" fill="none" id="EvalRunnerAPI-to-EvalResult" style="stroke:#181818;stroke-width:1.4583;"/><polygon fill="#181818" points="860.0667,377.8678,846.9417,372.0345,852.775,377.8678,846.9417,383.7012,860.0667,377.8678" style="stroke:#181818;stroke-width:1.4583;"/><text fill="#000000" font-family="sans-serif" font-size="16.0417" lengthAdjust="spacing" textLength="53.5062" x="768.8771" y="374.1038">erzeugt</text></g><!--link EvalResult to ResultJson--><g class="link" data-entity-1="ent0013" data-entity-2="ent0009" data-link-type="dependency" data-source-line="100" id="lnk35"><path codeLine="100" d="M1257.4625,461.722 C1273.7375,461.722 1280.5042,461.722 1294.4312,461.722" fill="none" id="EvalResult-to-ResultJson" style="stroke:#181818;stroke-width:1.4583;"/><polygon fill="#181818" points="1303.1812,461.722,1290.0562,455.8887,1295.8896,461.722,1290.0562,467.5553,1303.1812,461.722" style="stroke:#181818;stroke-width:1.4583;"/><text fill="#000000" font-family="sans-serif" font-size="16.0417" lengthAdjust="spacing" textLength="44.5689" x="1235.1208" y="479.833">save()</text></g><?plantuml-src hLPRRzis57xdhpZeaxtPGTFroSW2k4sxjMcR8F6m0iCWqFAnp8aYDV4eiLFal--GaYrAzYuFU-JXTsxVkP0E2Omiq9KonNiiPIN9Lc2iGI6rje-5sYgJ2U5oPVnj0QcMpis9AhMi2J-arjoh9uIN4OIDvJB3UzffX0fJaYRJ607SHgxi8nk6jTGklj7A8ErA15lHnaONgrB1-UlOIoLDxh247sAXiIlqmbUl8-4LhcMjwRqr568zFpyETg58OuTuDSmuLjwe5G8M9UsWm6A9bHCQrmHaeLBPXc2bVDRA6k5IoHmKSkk3VmcFQaKR8SWxWtSFKjVImvoirqjPmnJUQ0vd-iPkfxyW6rvgbUP273Y45s-jMQiCFjxVV7a1qa5p_kZOLuHwzu26Eb0u3Z7psmzmZJkuaeGgmEQbOi5xnRMASBULIdsf3jPQmT3UzK-mM7mAYEjiGRfduzFRcn8DVFtS06vr-hNe8rI9llXjGWsgbJMY67s7ZWlQXTISGqIYBQWdGMgugT8DEkvMh6h3Phy9Q0eAdxbLT4ldnSLAaWpooyk00VY-hEm3LxgQ0UiteiBhH6VYBa2UcRh26QorbTIgQcaCLabdugRqXPRwDzRzlGzgZGuHp-8Ggi_adoBbT0r5OQ6lT_87qv6KaZRHpPyray5kZdEAw6ZaUPOGwM1W0jj23qsLRNMID2XDG9OgoN6NhBc1ObpJBXFeI0c2AEChbL9B2jaooMUWJClaDqSy8kaph2jRD2bv-wD3CEDPHCynRMsd_3rj75TRf0aCoxjdYtCpxh7N2PGeeqX9dKZEOEUKIzm4ADchD2Uon0ZNxmrEfFHNEHe6fNpI65JseaQhEKLKfDPHKhjLpvgJ3tqollZTVKn3xQdt8tznmLdM6ZiQU30IPCmeNMSncIsp3ODxar4hVZUTzhhcEPwzRVepy4QOUufX5DOQy5eRnnDudONh9Yhkddv8Gtv7PsTduxPmBX_jYHw7o8vytyt_nVcT_5-zTtiOfjFBcARPi7N78jgWn-XsF4Gat6EwAiw0YoKEU_qaOi4XXaqWkiL-4fWufAITNevEzE-zHbIfcN-pjOCmFF0ZvDa9V4pkKA6IcHWcrxCVfd02tV15csYes7TqfBbVMtwcUAy84LwcOvU_AkTus9QIAosQn-c4-R2A7Byd5LppTm2t9FfFr0aTVl5WNlF0yXJvZrJazb2APaNDsYKpWTenLnDuGaLeH6plFweS5wIdXDKJrXc9I1W2FpoYFbU_LyRYBm00?></g></svg>