<?xml version="1.0" encoding="us-ascii" standalone="no"?><svg xmlns="http://www.w3.org/2000/svg" xmlns:xlink="http://www.w3.org/1999/xlink" contentStyleType="text/css" height="726px" preserveAspectRatio="none" style="width:951px;height:726px;background:#FFFFFF;" version="1.1" viewBox="0 0 951 726" width="951px" zoomAndPan="magnify"><defs/><g><!--cluster MSR--><g id="cluster_MSR"><rect fill="none" height="470" rx="2.5" ry="2.5" style="stroke:#000000;stroke-width:1.5;" width="532" x="275" y="7"/><text fill="#000000" font-family="sans-serif" font-size="14" font-weight="bold" lengthAdjust="spacing" textLength="137" x="472.5" y="23.5332">MSRGuard Runtime</text></g><!--cluster INT--><g id="cluster_INT"><rect fill="none" height="359" rx="2.5" ry="2.5" style="stroke:#000000;stroke-width:1.5;" width="240" x="7" y="150"/><text fill="#000000" font-family="sans-serif" font-size="14" font-weight="bold" lengthAdjust="spacing" textLength="136" x="59" y="166.5332">Integrationsschicht</text><text fill="#000000" font-family="sans-serif" font-size="14" font-weight="bold" lengthAdjust="spacing" textLength="49" x="102.5" y="184.1426">Stufe 3</text></g><!--cluster PY--><g id="cluster_PY"><rect fill="none" height="219" rx="2.5" ry="2.5" style="stroke:#000000;stroke-width:1.5;" width="449.5" x="353.5" y="501"/><text fill="#000000" font-family="sans-serif" font-size="14" font-weight="bold" lengthAdjust="spacing" textLength="163" x="496.75" y="517.5332">Python-Agentenlaufzeit</text></g><!--class EventBus--><g id="elem_EventBus"><rect codeLine="14" fill="#DDEEFF" height="136.0469" id="EventBus" rx="2.5" ry="2.5" style="stroke:#181818;stroke-width:0.5;" width="148" x="643" y="43"/><ellipse cx="683.2" cy="59" fill="#ADD1B2" rx="11" ry="11" style="stroke:#181818;stroke-width:1.0;"/><path d="M685.9656,54.875 Q686.1219,54.6563 686.3094,54.5469 Q686.4969,54.4375 686.7156,54.4375 Q687.0906,54.4375 687.325,54.6953 Q687.5594,54.9531 687.5594,55.5625 L687.5594,57.0156 Q687.5594,57.625 687.325,57.8906 Q687.0906,58.1563 686.7156,58.1563 Q686.3719,58.1563 686.1688,57.9531 Q685.9656,57.7656 685.8563,57.25 Q685.8094,56.8906 685.6219,56.7031 Q685.2938,56.3281 684.6844,56.1094 Q684.075,55.8906 683.45,55.8906 Q682.6844,55.8906 682.0516,56.2188 Q681.4188,56.5469 680.9266,57.2969 Q680.4344,58.0469 680.4344,59.0781 L680.4344,60.1719 Q680.4344,61.4063 681.325,62.2266 Q682.2156,63.0469 683.8094,63.0469 Q684.7469,63.0469 685.4031,62.7969 Q685.7938,62.6406 686.2156,62.2031 Q686.4813,61.9375 686.6297,61.8594 Q686.7781,61.7813 686.9813,61.7813 Q687.3094,61.7813 687.5672,62.0391 Q687.825,62.2969 687.825,62.6406 Q687.825,62.9844 687.4813,63.3906 Q686.9813,63.9688 686.1844,64.2969 Q685.1063,64.75 683.8094,64.75 Q682.2938,64.75 681.0906,64.125 Q680.1063,63.625 679.4188,62.5547 Q678.7313,61.4844 678.7313,60.2031 L678.7313,59.0469 Q678.7313,57.7188 679.3484,56.5703 Q679.9656,55.4219 681.0594,54.8047 Q682.1531,54.1875 683.3875,54.1875 Q684.1219,54.1875 684.7703,54.3516 Q685.4188,54.5156 685.9656,54.875 Z " fill="#000000"/><text fill="#000000" font-family="sans-serif" font-size="14" lengthAdjust="spacing" textLength="60" x="702.8" y="64.7285">EventBus</text><line style="stroke:#181818;stroke-width:0.5;" x1="644" x2="790" y1="75" y2="75"/><text fill="#000000" font-family="sans-serif" font-size="14" lengthAdjust="spacing" textLength="20" x="649" y="93.5332">+...</text><line style="stroke:#181818;stroke-width:0.5;" x1="644" x2="790" y1="100.6094" y2="100.6094"/><text fill="#000000" font-family="sans-serif" font-size="14" lengthAdjust="spacing" textLength="105" x="649" y="119.1426">+subscribe(type,</text><text fill="#000000" font-family="sans-serif" font-size="14" lengthAdjust="spacing" textLength="60" x="649" y="136.752">observer,</text><text fill="#000000" font-family="sans-serif" font-size="14" lengthAdjust="spacing" textLength="4" x="709" y="136.752">&#160;</text><text fill="#000000" font-family="sans-serif" font-size="14" lengthAdjust="spacing" textLength="48" x="713" y="136.752">priority)</text><text fill="#000000" font-family="sans-serif" font-size="14" lengthAdjust="spacing" textLength="80" x="649" y="154.3613">+post(event)</text><text fill="#000000" font-family="sans-serif" font-size="14" lengthAdjust="spacing" textLength="136" x="649" y="171.9707">+process(maxEvents)</text></g><!--class ReactionManager--><g id="elem_ReactionManager"><rect codeLine="21" fill="#DDEEFF" height="136.0469" id="ReactionManager" rx="2.5" ry="2.5" style="stroke:#181818;stroke-width:0.5;" width="292" x="291" y="43"/><ellipse cx="376.75" cy="59" fill="#ADD1B2" rx="11" ry="11" style="stroke:#181818;stroke-width:1.0;"/><path d="M379.5156,54.875 Q379.6719,54.6563 379.8594,54.5469 Q380.0469,54.4375 380.2656,54.4375 Q380.6406,54.4375 380.875,54.6953 Q381.1094,54.9531 381.1094,55.5625 L381.1094,57.0156 Q381.1094,57.625 380.875,57.8906 Q380.6406,58.1563 380.2656,58.1563 Q379.9219,58.1563 379.7188,57.9531 Q379.5156,57.7656 379.4063,57.25 Q379.3594,56.8906 379.1719,56.7031 Q378.8438,56.3281 378.2344,56.1094 Q377.625,55.8906 377,55.8906 Q376.2344,55.8906 375.6016,56.2188 Q374.9688,56.5469 374.4766,57.2969 Q373.9844,58.0469 373.9844,59.0781 L373.9844,60.1719 Q373.9844,61.4063 374.875,62.2266 Q375.7656,63.0469 377.3594,63.0469 Q378.2969,63.0469 378.9531,62.7969 Q379.3438,62.6406 379.7656,62.2031 Q380.0313,61.9375 380.1797,61.8594 Q380.3281,61.7813 380.5313,61.7813 Q380.8594,61.7813 381.1172,62.0391 Q381.375,62.2969 381.375,62.6406 Q381.375,62.9844 381.0313,63.3906 Q380.5313,63.9688 379.7344,64.2969 Q378.6563,64.75 377.3594,64.75 Q375.8438,64.75 374.6406,64.125 Q373.6563,63.625 372.9688,62.5547 Q372.2813,61.4844 372.2813,60.2031 L372.2813,59.0469 Q372.2813,57.7188 372.8984,56.5703 Q373.5156,55.4219 374.6094,54.8047 Q375.7031,54.1875 376.9375,54.1875 Q377.6719,54.1875 378.3203,54.3516 Q378.9688,54.5156 379.5156,54.875 Z " fill="#000000"/><text fill="#000000" font-family="sans-serif" font-size="14" lengthAdjust="spacing" textLength="112" x="397.25" y="64.7285">ReactionManager</text><line style="stroke:#181818;stroke-width:0.5;" x1="292" x2="582" y1="75" y2="75"/><text fill="#000000" font-family="sans-serif" font-size="14" lengthAdjust="spacing" textLength="20" x="297" y="93.5332">+...</text><line style="stroke:#181818;stroke-width:0.5;" x1="292" x2="582" y1="100.6094" y2="100.6094"/><text fill="#000000" font-family="sans-serif" font-size="14" lengthAdjust="spacing" textLength="105" x="297" y="119.1426">+onEvent(event)</text><text fill="#000000" font-family="sans-serif" font-size="14" lengthAdjust="spacing" textLength="257" x="297" y="136.752">-fetchFailureModeParameters(skillName)</text><text fill="#000000" font-family="sans-serif" font-size="14" lengthAdjust="spacing" textLength="280" x="297" y="154.3613">-createCommandForceForPlanAndAck(plan,</text><text fill="#000000" font-family="sans-serif" font-size="14" lengthAdjust="spacing" textLength="17" x="297" y="171.9707">...)</text></g><!--class FailureRecorder--><g id="elem_FailureRecorder"><rect codeLine="28" fill="#DDEEFF" height="118.4375" id="FailureRecorder" rx="2.5" ry="2.5" style="stroke:#181818;stroke-width:0.5;" width="187" x="343.5" y="214"/><ellipse cx="381.9" cy="230" fill="#ADD1B2" rx="11" ry="11" style="stroke:#181818;stroke-width:1.0;"/><path d="M384.6656,225.875 Q384.8219,225.6563 385.0094,225.5469 Q385.1969,225.4375 385.4156,225.4375 Q385.7906,225.4375 386.025,225.6953 Q386.2594,225.9531 386.2594,226.5625 L386.2594,228.0156 Q386.2594,228.625 386.025,228.8906 Q385.7906,229.1563 385.4156,229.1563 Q385.0719,229.1563 384.8688,228.9531 Q384.6656,228.7656 384.5563,228.25 Q384.5094,227.8906 384.3219,227.7031 Q383.9938,227.3281 383.3844,227.1094 Q382.775,226.8906 382.15,226.8906 Q381.3844,226.8906 380.7516,227.2188 Q380.1188,227.5469 379.6266,228.2969 Q379.1344,229.0469 379.1344,230.0781 L379.1344,231.1719 Q379.1344,232.4063 380.025,233.2266 Q380.9156,234.0469 382.5094,234.0469 Q383.4469,234.0469 384.1031,233.7969 Q384.4938,233.6406 384.9156,233.2031 Q385.1813,232.9375 385.3297,232.8594 Q385.4781,232.7813 385.6813,232.7813 Q386.0094,232.7813 386.2672,233.0391 Q386.525,233.2969 386.525,233.6406 Q386.525,233.9844 386.1813,234.3906 Q385.6813,234.9688 384.8844,235.2969 Q383.8063,235.75 382.5094,235.75 Q380.9938,235.75 379.7906,235.125 Q378.8063,234.625 378.1188,233.5547 Q377.4313,232.4844 377.4313,231.2031 L377.4313,230.0469 Q377.4313,228.7188 378.0484,227.5703 Q378.6656,226.4219 379.7594,225.8047 Q380.8531,225.1875 382.0875,225.1875 Q382.8219,225.1875 383.4703,225.3516 Q384.1188,225.5156 384.6656,225.875 Z " fill="#000000"/><text fill="#000000" font-family="sans-serif" font-size="14" lengthAdjust="spacing" textLength="103" x="401.1" y="235.7285">FailureRecorder</text><line style="stroke:#181818;stroke-width:0.5;" x1="344.5" x2="529.5" y1="246" y2="246"/><text fill="#000000" font-family="sans-serif" font-size="14" lengthAdjust="spacing" textLength="20" x="349.5" y="264.5332">+...</text><line style="stroke:#181818;stroke-width:0.5;" x1="344.5" x2="529.5" y1="271.6094" y2="271.6094"/><text fill="#000000" font-family="sans-serif" font-size="14" lengthAdjust="spacing" textLength="94" x="349.5" y="290.1426">+subscribeAll()</text><text fill="#000000" font-family="sans-serif" font-size="14" lengthAdjust="spacing" textLength="105" x="349.5" y="307.752">+onEvent(event)</text><text fill="#000000" font-family="sans-serif" font-size="14" lengthAdjust="spacing" textLength="175" x="349.5" y="325.3613">-startIngestionWith(params)</text></g><!--class AgentGate--><g id="elem_AgentGate"><rect codeLine="35" fill="#F1F1F1" height="92.8281" id="AgentGate" rx="2.5" ry="2.5" style="stroke:#181818;stroke-width:0.5;" width="215" x="329.5" y="367.5"/><ellipse cx="398.75" cy="383.5" fill="#ADD1B2" rx="11" ry="11" style="stroke:#181818;stroke-width:1.0;"/><path d="M401.5156,379.375 Q401.6719,379.1563 401.8594,379.0469 Q402.0469,378.9375 402.2656,378.9375 Q402.6406,378.9375 402.875,379.1953 Q403.1094,379.4531 403.1094,380.0625 L403.1094,381.5156 Q403.1094,382.125 402.875,382.3906 Q402.6406,382.6563 402.2656,382.6563 Q401.9219,382.6563 401.7188,382.4531 Q401.5156,382.2656 401.4063,381.75 Q401.3594,381.3906 401.1719,381.2031 Q400.8438,380.8281 400.2344,380.6094 Q399.625,380.3906 399,380.3906 Q398.2344,380.3906 397.6016,380.7188 Q396.9688,381.0469 396.4766,381.7969 Q395.9844,382.5469 395.9844,383.5781 L395.9844,384.6719 Q395.9844,385.9063 396.875,386.7266 Q397.7656,387.5469 399.3594,387.5469 Q400.2969,387.5469 400.9531,387.2969 Q401.3438,387.1406 401.7656,386.7031 Q402.0313,386.4375 402.1797,386.3594 Q402.3281,386.2813 402.5313,386.2813 Q402.8594,386.2813 403.1172,386.5391 Q403.375,386.7969 403.375,387.1406 Q403.375,387.4844 403.0313,387.8906 Q402.5313,388.4688 401.7344,388.7969 Q400.6563,389.25 399.3594,389.25 Q397.8438,389.25 396.6406,388.625 Q395.6563,388.125 394.9688,387.0547 Q394.2813,385.9844 394.2813,384.7031 L394.2813,383.5469 Q394.2813,382.2188 394.8984,381.0703 Q395.5156,379.9219 396.6094,379.3047 Q397.7031,378.6875 398.9375,378.6875 Q399.6719,378.6875 400.3203,378.8516 Q400.9688,379.0156 401.5156,379.375 Z " fill="#000000"/><text fill="#000000" font-family="sans-serif" font-size="14" lengthAdjust="spacing" textLength="68" x="419.25" y="389.2285">AgentGate</text><line style="stroke:#181818;stroke-width:0.5;" x1="330.5" x2="543.5" y1="399.5" y2="399.5"/><text fill="#000000" font-family="sans-serif" font-size="14" lengthAdjust="spacing" textLength="74" x="335.5" y="418.0332">+set(active)</text><text fill="#000000" font-family="sans-serif" font-size="14" lengthAdjust="spacing" textLength="66" x="335.5" y="435.6426">+isActive()</text><text fill="#000000" font-family="sans-serif" font-size="14" lengthAdjust="spacing" textLength="203" x="335.5" y="453.252">+wait_until_inactive_for(timeout)</text></g><!--class AgentStartCoordinator--><g id="elem_AgentStartCoordinator"><rect codeLine="43" fill="#F1F1F1" height="136.0469" id="AgentStartCoordinator" rx="2.5" ry="2.5" style="stroke:#181818;stroke-width:0.5;" width="208" x="23" y="204"/><ellipse cx="53.3" cy="220" fill="#ADD1B2" rx="11" ry="11" style="stroke:#181818;stroke-width:1.0;"/><path d="M56.0656,215.875 Q56.2219,215.6563 56.4094,215.5469 Q56.5969,215.4375 56.8156,215.4375 Q57.1906,215.4375 57.425,215.6953 Q57.6594,215.9531 57.6594,216.5625 L57.6594,218.0156 Q57.6594,218.625 57.425,218.8906 Q57.1906,219.1563 56.8156,219.1563 Q56.4719,219.1563 56.2688,218.9531 Q56.0656,218.7656 55.9563,218.25 Q55.9094,217.8906 55.7219,217.7031 Q55.3938,217.3281 54.7844,217.1094 Q54.175,216.8906 53.55,216.8906 Q52.7844,216.8906 52.1516,217.2188 Q51.5188,217.5469 51.0266,218.2969 Q50.5344,219.0469 50.5344,220.0781 L50.5344,221.1719 Q50.5344,222.4063 51.425,223.2266 Q52.3156,224.0469 53.9094,224.0469 Q54.8469,224.0469 55.5031,223.7969 Q55.8938,223.6406 56.3156,223.2031 Q56.5813,222.9375 56.7297,222.8594 Q56.8781,222.7813 57.0813,222.7813 Q57.4094,222.7813 57.6672,223.0391 Q57.925,223.2969 57.925,223.6406 Q57.925,223.9844 57.5813,224.3906 Q57.0813,224.9688 56.2844,225.2969 Q55.2063,225.75 53.9094,225.75 Q52.3938,225.75 51.1906,225.125 Q50.2063,224.625 49.5188,223.5547 Q48.8313,222.4844 48.8313,221.2031 L48.8313,220.0469 Q48.8313,218.7188 49.4484,217.5703 Q50.0656,216.4219 51.1594,215.8047 Q52.2531,215.1875 53.4875,215.1875 Q54.2219,215.1875 54.8703,215.3516 Q55.5188,215.5156 56.0656,215.875 Z " fill="#000000"/><text fill="#000000" font-family="sans-serif" font-size="14" lengthAdjust="spacing" textLength="142" x="70.7" y="225.7285">AgentStartCoordinator</text><line style="stroke:#181818;stroke-width:0.5;" x1="24" x2="230" y1="236" y2="236"/><text fill="#000000" font-family="sans-serif" font-size="14" lengthAdjust="spacing" textLength="20" x="29" y="254.5332">+...</text><line style="stroke:#181818;stroke-width:0.5;" x1="24" x2="230" y1="261.6094" y2="261.6094"/><text fill="#000000" font-family="sans-serif" font-size="14" lengthAdjust="spacing" textLength="105" x="29" y="280.1426">+onEvent(event)</text><text fill="#000000" font-family="sans-serif" font-size="14" lengthAdjust="spacing" textLength="157" x="29" y="297.752">-handleUnknownFM(ack)</text><text fill="#000000" font-family="sans-serif" font-size="14" lengthAdjust="spacing" textLength="171" x="29" y="315.3613">-handleIngestionDone(ack)</text><text fill="#000000" font-family="sans-serif" font-size="14" lengthAdjust="spacing" textLength="196" x="29" y="332.9707">-tryEmitAgentStartLocked(corr)</text></g><!--class ExcHUiObserver--><g id="elem_ExcHUiObserver"><rect codeLine="51" fill="#F1F1F1" height="118.4375" id="ExcHUiObserver" rx="2.5" ry="2.5" style="stroke:#181818;stroke-width:0.5;" width="192" x="31" y="375"/><ellipse cx="72.1" cy="391" fill="#ADD1B2" rx="11" ry="11" style="stroke:#181818;stroke-width:1.0;"/><path d="M74.8656,386.875 Q75.0219,386.6563 75.2094,386.5469 Q75.3969,386.4375 75.6156,386.4375 Q75.9906,386.4375 76.225,386.6953 Q76.4594,386.9531 76.4594,387.5625 L76.4594,389.0156 Q76.4594,389.625 76.225,389.8906 Q75.9906,390.1563 75.6156,390.1563 Q75.2719,390.1563 75.0688,389.9531 Q74.8656,389.7656 74.7563,389.25 Q74.7094,388.8906 74.5219,388.7031 Q74.1938,388.3281 73.5844,388.1094 Q72.975,387.8906 72.35,387.8906 Q71.5844,387.8906 70.9516,388.2188 Q70.3188,388.5469 69.8266,389.2969 Q69.3344,390.0469 69.3344,391.0781 L69.3344,392.1719 Q69.3344,393.4063 70.225,394.2266 Q71.1156,395.0469 72.7094,395.0469 Q73.6469,395.0469 74.3031,394.7969 Q74.6938,394.6406 75.1156,394.2031 Q75.3813,393.9375 75.5297,393.8594 Q75.6781,393.7813 75.8813,393.7813 Q76.2094,393.7813 76.4672,394.0391 Q76.725,394.2969 76.725,394.6406 Q76.725,394.9844 76.3813,395.3906 Q75.8813,395.9688 75.0844,396.2969 Q74.0063,396.75 72.7094,396.75 Q71.1938,396.75 69.9906,396.125 Q69.0063,395.625 68.3188,394.5547 Q67.6313,393.4844 67.6313,392.2031 L67.6313,391.0469 Q67.6313,389.7188 68.2484,388.5703 Q68.8656,387.4219 69.9594,386.8047 Q71.0531,386.1875 72.2875,386.1875 Q73.0219,386.1875 73.6703,386.3516 Q74.3188,386.5156 74.8656,386.875 Z " fill="#000000"/><text fill="#000000" font-family="sans-serif" font-size="14" lengthAdjust="spacing" textLength="102" x="91.9" y="396.7285">ExcHUiObserver</text><line style="stroke:#181818;stroke-width:0.5;" x1="32" x2="222" y1="407" y2="407"/><text fill="#000000" font-family="sans-serif" font-size="14" lengthAdjust="spacing" textLength="20" x="37" y="425.5332">+...</text><line style="stroke:#181818;stroke-width:0.5;" x1="32" x2="222" y1="432.6094" y2="432.6094"/><text fill="#000000" font-family="sans-serif" font-size="14" lengthAdjust="spacing" textLength="105" x="37" y="451.1426">+onEvent(event)</text><text fill="#000000" font-family="sans-serif" font-size="14" lengthAdjust="spacing" textLength="140" x="37" y="468.752">+setEnabled(enabled)</text><text fill="#000000" font-family="sans-serif" font-size="14" lengthAdjust="spacing" textLength="180" x="37" y="486.3613">-launchPythonUI_async(ack)</text></g><!--class PythonAgentUI--><g id="elem_PythonAgentUI"><rect codeLine="60" fill="#F1F1F1" height="118.4375" id="PythonAgentUI" rx="2.5" ry="2.5" style="stroke:#181818;stroke-width:0.5;" width="135" x="369.5" y="537"/><ellipse cx="384.5" cy="553" fill="#ADD1B2" rx="11" ry="11" style="stroke:#181818;stroke-width:1.0;"/><path d="M387.2656,548.875 Q387.4219,548.6563 387.6094,548.5469 Q387.7969,548.4375 388.0156,548.4375 Q388.3906,548.4375 388.625,548.6953 Q388.8594,548.9531 388.8594,549.5625 L388.8594,551.0156 Q388.8594,551.625 388.625,551.8906 Q388.3906,552.1563 388.0156,552.1563 Q387.6719,552.1563 387.4688,551.9531 Q387.2656,551.7656 387.1563,551.25 Q387.1094,550.8906 386.9219,550.7031 Q386.5938,550.3281 385.9844,550.1094 Q385.375,549.8906 384.75,549.8906 Q383.9844,549.8906 383.3516,550.2188 Q382.7188,550.5469 382.2266,551.2969 Q381.7344,552.0469 381.7344,553.0781 L381.7344,554.1719 Q381.7344,555.4063 382.625,556.2266 Q383.5156,557.0469 385.1094,557.0469 Q386.0469,557.0469 386.7031,556.7969 Q387.0938,556.6406 387.5156,556.2031 Q387.7813,555.9375 387.9297,555.8594 Q388.0781,555.7813 388.2813,555.7813 Q388.6094,555.7813 388.8672,556.0391 Q389.125,556.2969 389.125,556.6406 Q389.125,556.9844 388.7813,557.3906 Q388.2813,557.9688 387.4844,558.2969 Q386.4063,558.75 385.1094,558.75 Q383.5938,558.75 382.3906,558.125 Q381.4063,557.625 380.7188,556.5547 Q380.0313,555.4844 380.0313,554.2031 L380.0313,553.0469 Q380.0313,551.7188 380.6484,550.5703 Q381.2656,549.4219 382.3594,548.8047 Q383.4531,548.1875 384.6875,548.1875 Q385.4219,548.1875 386.0703,548.3516 Q386.7188,548.5156 387.2656,548.875 Z " fill="#000000"/><text fill="#000000" font-family="sans-serif" font-size="14" lengthAdjust="spacing" textLength="103" x="398.5" y="558.7285">Python-Agent-UI</text><line style="stroke:#181818;stroke-width:0.5;" x1="370.5" x2="503.5" y1="569" y2="569"/><text fill="#000000" font-family="sans-serif" font-size="14" lengthAdjust="spacing" textLength="20" x="375.5" y="587.5332">+...</text><line style="stroke:#181818;stroke-width:0.5;" x1="370.5" x2="503.5" y1="594.6094" y2="594.6094"/><text fill="#000000" font-family="sans-serif" font-size="14" lengthAdjust="spacing" textLength="81" x="375.5" y="613.1426">+loadEvent()</text><text fill="#000000" font-family="sans-serif" font-size="14" lengthAdjust="spacing" textLength="97" x="375.5" y="630.752">+launchAgent()</text><text fill="#000000" font-family="sans-serif" font-size="14" lengthAdjust="spacing" textLength="87" x="375.5" y="648.3613">+writeResult()</text></g><!--class KGAgent--><g id="elem_KGAgent"><rect codeLine="67" fill="#F1F1F1" height="65.6094" id="KGAgent" rx="2.5" ry="2.5" style="stroke:#181818;stroke-width:0.5;" width="130" x="652" y="638"/><ellipse cx="667" cy="654" fill="#ADD1B2" rx="11" ry="11" style="stroke:#181818;stroke-width:1.0;"/><path d="M669.7656,649.875 Q669.9219,649.6563 670.1094,649.5469 Q670.2969,649.4375 670.5156,649.4375 Q670.8906,649.4375 671.125,649.6953 Q671.3594,649.9531 671.3594,650.5625 L671.3594,652.0156 Q671.3594,652.625 671.125,652.8906 Q670.8906,653.1563 670.5156,653.1563 Q670.1719,653.1563 669.9688,652.9531 Q669.7656,652.7656 669.6563,652.25 Q669.6094,651.8906 669.4219,651.7031 Q669.0938,651.3281 668.4844,651.1094 Q667.875,650.8906 667.25,650.8906 Q666.4844,650.8906 665.8516,651.2188 Q665.2188,651.5469 664.7266,652.2969 Q664.2344,653.0469 664.2344,654.0781 L664.2344,655.1719 Q664.2344,656.4063 665.125,657.2266 Q666.0156,658.0469 667.6094,658.0469 Q668.5469,658.0469 669.2031,657.7969 Q669.5938,657.6406 670.0156,657.2031 Q670.2813,656.9375 670.4297,656.8594 Q670.5781,656.7813 670.7813,656.7813 Q671.1094,656.7813 671.3672,657.0391 Q671.625,657.2969 671.625,657.6406 Q671.625,657.9844 671.2813,658.3906 Q670.7813,658.9688 669.9844,659.2969 Q668.9063,659.75 667.6094,659.75 Q666.0938,659.75 664.8906,659.125 Q663.9063,658.625 663.2188,657.5547 Q662.5313,656.4844 662.5313,655.2031 L662.5313,654.0469 Q662.5313,652.7188 663.1484,651.5703 Q663.7656,650.4219 664.8594,649.8047 Q665.9531,649.1875 667.1875,649.1875 Q667.9219,649.1875 668.5703,649.3516 Q669.2188,649.5156 669.7656,649.875 Z " fill="#000000"/><text fill="#000000" font-family="sans-serif" font-size="14" lengthAdjust="spacing" textLength="98" x="681" y="659.7285">ExcH-KG-Agent</text><line style="stroke:#181818;stroke-width:0.5;" x1="653" x2="781" y1="670" y2="670"/><text fill="#000000" font-family="sans-serif" font-size="14" lengthAdjust="spacing" textLength="20" x="658" y="688.5332">+...</text><line style="stroke:#181818;stroke-width:0.5;" x1="653" x2="781" y1="695.6094" y2="695.6094"/></g><!--class RAGAgent--><g id="elem_RAGAgent"><rect codeLine="71" fill="#F1F1F1" height="65.6094" id="RAGAgent" rx="2.5" ry="2.5" style="stroke:#181818;stroke-width:0.5;" width="140" x="647" y="537"/><ellipse cx="662" cy="553" fill="#ADD1B2" rx="11" ry="11" style="stroke:#181818;stroke-width:1.0;"/><path d="M664.7656,548.875 Q664.9219,548.6563 665.1094,548.5469 Q665.2969,548.4375 665.5156,548.4375 Q665.8906,548.4375 666.125,548.6953 Q666.3594,548.9531 666.3594,549.5625 L666.3594,551.0156 Q666.3594,551.625 666.125,551.8906 Q665.8906,552.1563 665.5156,552.1563 Q665.1719,552.1563 664.9688,551.9531 Q664.7656,551.7656 664.6563,551.25 Q664.6094,550.8906 664.4219,550.7031 Q664.0938,550.3281 663.4844,550.1094 Q662.875,549.8906 662.25,549.8906 Q661.4844,549.8906 660.8516,550.2188 Q660.2188,550.5469 659.7266,551.2969 Q659.2344,552.0469 659.2344,553.0781 L659.2344,554.1719 Q659.2344,555.4063 660.125,556.2266 Q661.0156,557.0469 662.6094,557.0469 Q663.5469,557.0469 664.2031,556.7969 Q664.5938,556.6406 665.0156,556.2031 Q665.2813,555.9375 665.4297,555.8594 Q665.5781,555.7813 665.7813,555.7813 Q666.1094,555.7813 666.3672,556.0391 Q666.625,556.2969 666.625,556.6406 Q666.625,556.9844 666.2813,557.3906 Q665.7813,557.9688 664.9844,558.2969 Q663.9063,558.75 662.6094,558.75 Q661.0938,558.75 659.8906,558.125 Q658.9063,557.625 658.2188,556.5547 Q657.5313,555.4844 657.5313,554.2031 L657.5313,553.0469 Q657.5313,551.7188 658.1484,550.5703 Q658.7656,549.4219 659.8594,548.8047 Q660.9531,548.1875 662.1875,548.1875 Q662.9219,548.1875 663.5703,548.3516 Q664.2188,548.5156 664.7656,548.875 Z " fill="#000000"/><text fill="#000000" font-family="sans-serif" font-size="14" lengthAdjust="spacing" textLength="108" x="676" y="558.7285">ExcH-RAG-Agent</text><line style="stroke:#181818;stroke-width:0.5;" x1="648" x2="786" y1="569" y2="569"/><text fill="#000000" font-family="sans-serif" font-size="14" lengthAdjust="spacing" textLength="20" x="653" y="587.5332">+...</text><line style="stroke:#181818;stroke-width:0.5;" x1="648" x2="786" y1="594.6094" y2="594.6094"/></g><!--entity KG--><g id="elem_KG"><path d="M851,441 C851,431 892.5,431 892.5,431 C892.5,431 934,431 934,441 L934,502.8281 C934,512.8281 892.5,512.8281 892.5,512.8281 C892.5,512.8281 851,512.8281 851,502.8281 L851,441 " fill="#F1F1F1" style="stroke:#181818;stroke-width:0.5;"/><path d="M851,441 C851,451 892.5,451 892.5,451 C892.5,451 934,451 934,441 " fill="none" style="stroke:#181818;stroke-width:0.5;"/><text fill="#000000" font-family="sans-serif" font-size="14" lengthAdjust="spacing" textLength="63" x="861" y="469.5332">FMEA-KG</text><text fill="#000000" font-family="sans-serif" font-size="14" lengthAdjust="spacing" textLength="8" x="861" y="487.1426">+</text><text fill="#000000" font-family="sans-serif" font-size="14" lengthAdjust="spacing" textLength="52" x="861" y="504.752">SPS-KG</text></g><!--link ReactionManager to EventBus--><g id="link_ReactionManager_EventBus"><path codeLine="78" d="M583.15,111 C603.84,111 624.34,111 642.86,111 " fill="none" id="ReactionManager-EventBus" style="stroke:#181818;stroke-width:1.0;"/></g><!--link FailureRecorder to EventBus--><g id="link_FailureRecorder_EventBus"><path codeLine="79" d="M530.63,253.33 C612.02,253.33 717,253.33 717,253.33 C717,253.33 717,215.78 717,179.25 " fill="none" id="FailureRecorder-EventBus" style="stroke:#181818;stroke-width:1.0;"/></g><!--link AgentStartCoordinator to EventBus--><g id="link_AgentStartCoordinator_EventBus"><path codeLine="80" d="M231.07,209 C391.77,209 682,209 682,209 C682,209 682,195.79 682,179.06 " fill="none" id="AgentStartCoordinator-EventBus" style="stroke:#181818;stroke-width:1.0;"/></g><!--link ExcHUiObserver to EventBus--><g id="link_ExcHUiObserver_EventBus"><path codeLine="81" d="M223.29,471.33 C398.6,471.33 752,471.33 752,471.33 C752,471.33 752,283.66 752,179.2 " fill="none" id="ExcHUiObserver-EventBus" style="stroke:#181818;stroke-width:1.0;"/></g><!--link AgentStartCoordinator to AgentGate--><g id="link_AgentStartCoordinator_AgentGate"><path codeLine="83" d="M227,340.12 C227,357.44 227,371.25 227,371.25 C227,371.25 277.67,371.25 329.23,371.25 " fill="none" id="AgentStartCoordinator-AgentGate" style="stroke:#181818;stroke-width:1.0;"/></g><!--link ExcHUiObserver to PythonAgentUI--><g id="link_ExcHUiObserver_PythonAgentUI"><path codeLine="84" d="M223.39,482.17 C314.39,482.17 437,482.17 437,482.17 C437,482.17 437,503.09 437,530.75 " fill="none" id="ExcHUiObserver-to-PythonAgentUI" style="stroke:#181818;stroke-width:1.0;"/><polygon fill="#181818" points="437,536.75,441,527.75,437,531.75,433,527.75,437,536.75" style="stroke:#181818;stroke-width:1.0;"/></g><!--link PythonAgentUI to KGAgent--><g id="link_PythonAgentUI_KGAgent"><path codeLine="86" d="M504.78,646.5 C549.45,646.5 601.63,646.5 645.77,646.5 " fill="none" id="PythonAgentUI-to-KGAgent" style="stroke:#181818;stroke-width:1.0;stroke-dasharray:7.0,7.0;"/><polygon fill="#181818" points="651.77,646.5,642.77,642.5,646.77,646.5,642.77,650.5,651.77,646.5" style="stroke:#181818;stroke-width:1.0;"/></g><!--link PythonAgentUI to RAGAgent--><g id="link_PythonAgentUI_RAGAgent"><path codeLine="87" d="M504.78,570 C547.83,570 597.43,570 640.92,570 " fill="none" id="PythonAgentUI-to-RAGAgent" style="stroke:#181818;stroke-width:1.0;stroke-dasharray:7.0,7.0;"/><polygon fill="#181818" points="646.92,570,637.92,566,641.92,570,637.92,574,646.92,570" style="stroke:#181818;stroke-width:1.0;"/></g><!--link FailureRecorder to KG--><g id="link_FailureRecorder_KG"><path codeLine="89" d="M530.65,292.67 C664.1,292.67 893,292.67 893,292.67 C893,292.67 893,371.91 893,424.86 " fill="none" id="FailureRecorder-to-KG" style="stroke:#181818;stroke-width:1.0;"/><polygon fill="#181818" points="893,430.86,897,421.86,893,425.86,889,421.86,893,430.86" style="stroke:#181818;stroke-width:1.0;"/></g><!--link KGAgent to KG--><g id="link_KGAgent_KG"><path codeLine="90" d="M782.04,671 C832.17,671 893,671 893,671 C893,671 893,577.52 893,519.23 " fill="none" id="KGAgent-to-KG" style="stroke:#181818;stroke-width:1.0;"/><polygon fill="#181818" points="893,513.23,889,522.23,893,518.23,897,522.23,893,513.23" style="stroke:#181818;stroke-width:1.0;"/></g><!--SRC=[VLHHRzem47xthpXr3qlLWZfjpvMo5XZgQ14CLPCg8UCSnCBOaNs1qgd_VOv9Gg3GbyJstVdxxhixVoL92c5C-HpXExJWAKFBIQuH-ffmKQoDXWGTT5x5hrQyG7-iGMeOZ4UzdDk4CRUKEkEMhq0exbnCPEKi9-mBeyVo3U6cuU9IdfYDr0kOS-MmOScuMF85Zcdh6LaKnFL2DHsKr4ZR3C5OIat3iB4yUvO9fV3jnmtZIfdDIhvw39RA105N6MrXBb4bZYcS4v01AnSfGI8B89yYOoKyN5I9mIZN95Tu0TmLsS8_1hiCeRFsClpC7Novl-zqkjt20d05BfyvuPF7gE1v3MRcqAxHNaDcfR6IjfUbPsOSHLXSKvzO8z2vQCLVm_MkDBJRRRzuPpNu27cWFE3QyxKL1wX861tYcxUtO8uaqYwNAhSuC0aE2-6GqBh8wwZKezzLli8Y9xmpgnNNITTOWVupL5p7Eed5CihyyXeyhtCCBqgW4GfZ4xH1mQEp3xHhxMAbeilFSd74BVNr0bqXmxEaD0fzS5QnqBKzdzCU32agL5nZXIHT7FOrz8PBcXOTeAPIxtodSsEZeYLC7iYyi_T6tpG6nZcHIf7IYoudAoZGV_pJwA50QboaScUy8Xw3ZFsyYAclXyA9NcgpqTs1ps1vQAf5kJSQcsQosyvAqXxpjn5BJ29V2tjEjMBW9_AfRE7Fc0KzEvhFbByIT_yAMV5SYtIuzHEh9_qfTrijzingrAQGE-VghV4NpDzGKf1m-BUXu85ZQzBVUOIpS3JfrwILuScETiLunoluxKlk9zGtgCjLVVQnjyCx-D3ReGR8XrvOLs1dGaPnCyRlJWRvi8GJdt7dXUWEEh67Uj5Nlf66OxyiyHWxVWHQhVfHOiUJrhITxhgcnr7PcwRpqVM4VGo_FIm9OuSLQhTlAm5FM2gPs8caYZXMQLzk_mC0]--></g></svg>