<?xml version="1.0" encoding="us-ascii" standalone="no"?><svg xmlns="http://www.w3.org/2000/svg" xmlns:xlink="http://www.w3.org/1999/xlink" contentStyleType="text/css" height="745px" preserveAspectRatio="none" style="width:608px;height:745px;background:#FFFFFF;" version="1.1" viewBox="0 0 608 745" width="608px" zoomAndPan="magnify"><defs/><g><!--cluster fmea_skill_function_builder--><g id="cluster_fmea_skill_function_builder"><path d="M13.75,6 L208.75,6 A3.75,3.75 0 0 1 211.25,8.5 L218.25,29.6094 L598.75,29.6094 A2.5,2.5 0 0 1 601.25,32.1094 L601.25,735.5 A2.5,2.5 0 0 1 598.75,738 L13.75,738 A2.5,2.5 0 0 1 11.25,735.5 L11.25,8.5 A2.5,2.5 0 0 1 13.75,6 " fill="none" style="stroke:#000000;stroke-width:1.5;"/><line style="stroke:#000000;stroke-width:1.5;" x1="11.25" x2="218.25" y1="29.6094" y2="29.6094"/><text fill="#000000" font-family="sans-serif" font-size="14" font-weight="bold" lengthAdjust="spacing" textLength="194" x="15.25" y="22.5332">fmea_skill_function_builder</text></g><!--class FMEASkillFunctionBuilder--><g id="elem_FMEASkillFunctionBuilder"><rect codeLine="8" fill="#F1F1F1" height="188.875" id="FMEASkillFunctionBuilder" rx="2.5" ry="2.5" style="stroke:#181818;stroke-width:0.5;" width="558" x="27.25" y="42"/><ellipse cx="221" cy="58" fill="#ADD1B2" rx="11" ry="11" style="stroke:#181818;stroke-width:1.0;"/><path d="M223.7656,53.875 Q223.9219,53.6563 224.1094,53.5469 Q224.2969,53.4375 224.5156,53.4375 Q224.8906,53.4375 225.125,53.6953 Q225.3594,53.9531 225.3594,54.5625 L225.3594,56.0156 Q225.3594,56.625 225.125,56.8906 Q224.8906,57.1563 224.5156,57.1563 Q224.1719,57.1563 223.9688,56.9531 Q223.7656,56.7656 223.6563,56.25 Q223.6094,55.8906 223.4219,55.7031 Q223.0938,55.3281 222.4844,55.1094 Q221.875,54.8906 221.25,54.8906 Q220.4844,54.8906 219.8516,55.2188 Q219.2188,55.5469 218.7266,56.2969 Q218.2344,57.0469 218.2344,58.0781 L218.2344,59.1719 Q218.2344,60.4063 219.125,61.2266 Q220.0156,62.0469 221.6094,62.0469 Q222.5469,62.0469 223.2031,61.7969 Q223.5938,61.6406 224.0156,61.2031 Q224.2813,60.9375 224.4297,60.8594 Q224.5781,60.7813 224.7813,60.7813 Q225.1094,60.7813 225.3672,61.0391 Q225.625,61.2969 225.625,61.6406 Q225.625,61.9844 225.2813,62.3906 Q224.7813,62.9688 223.9844,63.2969 Q222.9063,63.75 221.6094,63.75 Q220.0938,63.75 218.8906,63.125 Q217.9063,62.625 217.2188,61.5547 Q216.5313,60.4844 216.5313,59.2031 L216.5313,58.0469 Q216.5313,56.7188 217.1484,55.5703 Q217.7656,54.4219 218.8594,53.8047 Q219.9531,53.1875 221.1875,53.1875 Q221.9219,53.1875 222.5703,53.3516 Q223.2188,53.5156 223.7656,53.875 Z " fill="#000000"/><text fill="#000000" font-family="sans-serif" font-size="14" lengthAdjust="spacing" textLength="162" x="241.5" y="63.7285">FMEASkillFunctionBuilder</text><line style="stroke:#181818;stroke-width:0.5;" x1="28.25" x2="584.25" y1="74" y2="74"/><text fill="#000000" font-family="sans-serif" font-size="14" lengthAdjust="spacing" textLength="119" x="33.25" y="92.5332">-plc_kg_path: Path</text><text fill="#000000" font-family="sans-serif" font-size="14" lengthAdjust="spacing" textLength="132" x="33.25" y="110.1426">-fmea_kg_path: Path</text><text fill="#000000" font-family="sans-serif" font-size="14" lengthAdjust="spacing" textLength="116" x="33.25" y="127.752">-plc_graph: Graph</text><text fill="#000000" font-family="sans-serif" font-size="14" lengthAdjust="spacing" textLength="20" x="33.25" y="145.3613">+...</text><text fill="#000000" font-family="sans-serif" font-size="14" lengthAdjust="spacing" textLength="20" x="33.25" y="162.9707">+...</text><line style="stroke:#181818;stroke-width:0.5;" x1="28.25" x2="584.25" y1="170.0469" y2="170.0469"/><text fill="#000000" font-family="sans-serif" font-size="14" lengthAdjust="spacing" textLength="325" x="33.25" y="188.5801">+suggest_functions(): list&lt;SkillFunctionSuggestion&gt;</text><text fill="#000000" font-family="sans-serif" font-size="14" lengthAdjust="spacing" textLength="546" x="33.25" y="206.1895">+resolve_skill_hardware_io(suggestions, max_nodes): dict&lt;str, SkillHardwareIOResult&gt;</text><text fill="#000000" font-family="sans-serif" font-size="14" lengthAdjust="spacing" textLength="381" x="33.25" y="223.7988">+build_skill_io_map(suggestions, max_nodes): dict&lt;str, dict&gt;</text></g><!--class SkillFunctionSuggestion--><g id="elem_SkillFunctionSuggestion"><rect codeLine="19" fill="#F1F1F1" height="146.75" id="SkillFunctionSuggestion" rx="2.5" ry="2.5" style="stroke:#181818;stroke-width:0.5;" width="183" x="75.75" y="557.5"/><ellipse cx="90.75" cy="578.8516" fill="#ADD1B2" rx="11" ry="11" style="stroke:#181818;stroke-width:1.0;"/><path d="M93.5156,574.7266 Q93.6719,574.5078 93.8594,574.3984 Q94.0469,574.2891 94.2656,574.2891 Q94.6406,574.2891 94.875,574.5469 Q95.1094,574.8047 95.1094,575.4141 L95.1094,576.8672 Q95.1094,577.4766 94.875,577.7422 Q94.6406,578.0078 94.2656,578.0078 Q93.9219,578.0078 93.7188,577.8047 Q93.5156,577.6172 93.4063,577.1016 Q93.3594,576.7422 93.1719,576.5547 Q92.8438,576.1797 92.2344,575.9609 Q91.625,575.7422 91,575.7422 Q90.2344,575.7422 89.6016,576.0703 Q88.9688,576.3984 88.4766,577.1484 Q87.9844,577.8984 87.9844,578.9297 L87.9844,580.0234 Q87.9844,581.2578 88.875,582.0781 Q89.7656,582.8984 91.3594,582.8984 Q92.2969,582.8984 92.9531,582.6484 Q93.3438,582.4922 93.7656,582.0547 Q94.0313,581.7891 94.1797,581.7109 Q94.3281,581.6328 94.5313,581.6328 Q94.8594,581.6328 95.1172,581.8906 Q95.375,582.1484 95.375,582.4922 Q95.375,582.8359 95.0313,583.2422 Q94.5313,583.8203 93.7344,584.1484 Q92.6563,584.6016 91.3594,584.6016 Q89.8438,584.6016 88.6406,583.9766 Q87.6563,583.4766 86.9688,582.4063 Q86.2813,581.3359 86.2813,580.0547 L86.2813,578.8984 Q86.2813,577.5703 86.8984,576.4219 Q87.5156,575.2734 88.6094,574.6563 Q89.7031,574.0391 90.9375,574.0391 Q91.6719,574.0391 92.3203,574.2031 Q92.9688,574.3672 93.5156,574.7266 Z " fill="#000000"/><text fill="#000000" font-family="sans-serif" font-size="12" font-style="italic" lengthAdjust="spacing" textLength="66" x="147.25" y="574.957">&#171;dataclass&#187;</text><text fill="#000000" font-family="sans-serif" font-size="14" lengthAdjust="spacing" textLength="151" x="104.75" y="592.127">SkillFunctionSuggestion</text><line style="stroke:#181818;stroke-width:0.5;" x1="76.75" x2="257.75" y1="600.2031" y2="600.2031"/><text fill="#000000" font-family="sans-serif" font-size="14" lengthAdjust="spacing" textLength="101" x="81.75" y="618.7363">+function_id: str</text><text fill="#000000" font-family="sans-serif" font-size="14" lengthAdjust="spacing" textLength="164" x="81.75" y="636.3457">+runtime_names: set&lt;str&gt;</text><text fill="#000000" font-family="sans-serif" font-size="14" lengthAdjust="spacing" textLength="145" x="81.75" y="653.9551">+pou_iris: set&lt;URIRef&gt;</text><text fill="#000000" font-family="sans-serif" font-size="14" lengthAdjust="spacing" textLength="20" x="81.75" y="671.5645">+...</text><text fill="#000000" font-family="sans-serif" font-size="14" lengthAdjust="spacing" textLength="134" x="81.75" y="689.1738">+function_uri: URIRef</text><line style="stroke:#181818;stroke-width:0.5;" x1="76.75" x2="257.75" y1="696.25" y2="696.25"/></g><!--class SkillHardwareIOResolver--><g id="elem_SkillHardwareIOResolver"><rect codeLine="27" fill="#F1F1F1" height="188.875" id="SkillHardwareIOResolver" rx="2.5" ry="2.5" style="stroke:#181818;stroke-width:0.5;" width="463" x="74.75" y="291"/><ellipse cx="224.5" cy="307" fill="#ADD1B2" rx="11" ry="11" style="stroke:#181818;stroke-width:1.0;"/><path d="M227.2656,302.875 Q227.4219,302.6563 227.6094,302.5469 Q227.7969,302.4375 228.0156,302.4375 Q228.3906,302.4375 228.625,302.6953 Q228.8594,302.9531 228.8594,303.5625 L228.8594,305.0156 Q228.8594,305.625 228.625,305.8906 Q228.3906,306.1563 228.0156,306.1563 Q227.6719,306.1563 227.4688,305.9531 Q227.2656,305.7656 227.1563,305.25 Q227.1094,304.8906 226.9219,304.7031 Q226.5938,304.3281 225.9844,304.1094 Q225.375,303.8906 224.75,303.8906 Q223.9844,303.8906 223.3516,304.2188 Q222.7188,304.5469 222.2266,305.2969 Q221.7344,306.0469 221.7344,307.0781 L221.7344,308.1719 Q221.7344,309.4063 222.625,310.2266 Q223.5156,311.0469 225.1094,311.0469 Q226.0469,311.0469 226.7031,310.7969 Q227.0938,310.6406 227.5156,310.2031 Q227.7813,309.9375 227.9297,309.8594 Q228.0781,309.7813 228.2813,309.7813 Q228.6094,309.7813 228.8672,310.0391 Q229.125,310.2969 229.125,310.6406 Q229.125,310.9844 228.7813,311.3906 Q228.2813,311.9688 227.4844,312.2969 Q226.4063,312.75 225.1094,312.75 Q223.5938,312.75 222.3906,312.125 Q221.4063,311.625 220.7188,310.5547 Q220.0313,309.4844 220.0313,308.2031 L220.0313,307.0469 Q220.0313,305.7188 220.6484,304.5703 Q221.2656,303.4219 222.3594,302.8047 Q223.4531,302.1875 224.6875,302.1875 Q225.4219,302.1875 226.0703,302.3516 Q226.7188,302.5156 227.2656,302.875 Z " fill="#000000"/><text fill="#000000" font-family="sans-serif" font-size="14" lengthAdjust="spacing" textLength="155" x="245" y="312.7285">SkillHardwareIOResolver</text><line style="stroke:#181818;stroke-width:0.5;" x1="75.75" x2="536.75" y1="323" y2="323"/><text fill="#000000" font-family="sans-serif" font-size="14" lengthAdjust="spacing" textLength="90" x="80.75" y="341.5332">-graph: Graph</text><text fill="#000000" font-family="sans-serif" font-size="14" lengthAdjust="spacing" textLength="208" x="80.75" y="359.1426">-asrs_runtime_map: dict&lt;str, str&gt;</text><text fill="#000000" font-family="sans-serif" font-size="14" lengthAdjust="spacing" textLength="176" x="80.75" y="376.752">-skip_local_names: set&lt;str&gt;</text><text fill="#000000" font-family="sans-serif" font-size="14" lengthAdjust="spacing" textLength="20" x="80.75" y="394.3613">+...</text><text fill="#000000" font-family="sans-serif" font-size="14" lengthAdjust="spacing" textLength="20" x="80.75" y="411.9707">+...</text><line style="stroke:#181818;stroke-width:0.5;" x1="75.75" x2="536.75" y1="419.0469" y2="419.0469"/><text fill="#000000" font-family="sans-serif" font-size="14" lengthAdjust="spacing" textLength="360" x="80.75" y="437.5801">+resolve(suggestion, max_nodes): SkillHardwareIOResult</text><text fill="#000000" font-family="sans-serif" font-size="14" lengthAdjust="spacing" textLength="451" x="80.75" y="455.1895">+resolve_all(suggestions, max_nodes): dict&lt;str, SkillHardwareIOResult&gt;</text><text fill="#000000" font-family="sans-serif" font-size="14" lengthAdjust="spacing" textLength="346" x="80.75" y="472.7988">-_seed_calls_for_suggestion(suggestion): list&lt;URIRef&gt;</text></g><!--class SkillHardwareIOResult--><g id="elem_SkillHardwareIOResult"><rect codeLine="38" fill="#F1F1F1" height="181.9688" id="SkillHardwareIOResult" rx="2.5" ry="2.5" style="stroke:#181818;stroke-width:0.5;" width="243" x="317.75" y="540"/><ellipse cx="365.5" cy="561.3516" fill="#ADD1B2" rx="11" ry="11" style="stroke:#181818;stroke-width:1.0;"/><path d="M368.2656,557.2266 Q368.4219,557.0078 368.6094,556.8984 Q368.7969,556.7891 369.0156,556.7891 Q369.3906,556.7891 369.625,557.0469 Q369.8594,557.3047 369.8594,557.9141 L369.8594,559.3672 Q369.8594,559.9766 369.625,560.2422 Q369.3906,560.5078 369.0156,560.5078 Q368.6719,560.5078 368.4688,560.3047 Q368.2656,560.1172 368.1563,559.6016 Q368.1094,559.2422 367.9219,559.0547 Q367.5938,558.6797 366.9844,558.4609 Q366.375,558.2422 365.75,558.2422 Q364.9844,558.2422 364.3516,558.5703 Q363.7188,558.8984 363.2266,559.6484 Q362.7344,560.3984 362.7344,561.4297 L362.7344,562.5234 Q362.7344,563.7578 363.625,564.5781 Q364.5156,565.3984 366.1094,565.3984 Q367.0469,565.3984 367.7031,565.1484 Q368.0938,564.9922 368.5156,564.5547 Q368.7813,564.2891 368.9297,564.2109 Q369.0781,564.1328 369.2813,564.1328 Q369.6094,564.1328 369.8672,564.3906 Q370.125,564.6484 370.125,564.9922 Q370.125,565.3359 369.7813,565.7422 Q369.2813,566.3203 368.4844,566.6484 Q367.4063,567.1016 366.1094,567.1016 Q364.5938,567.1016 363.3906,566.4766 Q362.4063,565.9766 361.7188,564.9063 Q361.0313,563.8359 361.0313,562.5547 L361.0313,561.3984 Q361.0313,560.0703 361.6484,558.9219 Q362.2656,557.7734 363.3594,557.1563 Q364.4531,556.5391 365.6875,556.5391 Q366.4219,556.5391 367.0703,556.7031 Q367.7188,556.8672 368.2656,557.2266 Z " fill="#000000"/><text fill="#000000" font-family="sans-serif" font-size="12" font-style="italic" lengthAdjust="spacing" textLength="66" x="422.5" y="557.457">&#171;dataclass&#187;</text><text fill="#000000" font-family="sans-serif" font-size="14" lengthAdjust="spacing" textLength="139" x="386" y="574.627">SkillHardwareIOResult</text><line style="stroke:#181818;stroke-width:0.5;" x1="318.75" x2="559.75" y1="582.7031" y2="582.7031"/><text fill="#000000" font-family="sans-serif" font-size="14" lengthAdjust="spacing" textLength="101" x="323.75" y="601.2363">+function_id: str</text><text fill="#000000" font-family="sans-serif" font-size="14" lengthAdjust="spacing" textLength="145" x="323.75" y="618.8457">+sensors: set&lt;URIRef&gt;</text><text fill="#000000" font-family="sans-serif" font-size="14" lengthAdjust="spacing" textLength="134" x="323.75" y="636.4551">+actors: set&lt;URIRef&gt;</text><text fill="#000000" font-family="sans-serif" font-size="14" lengthAdjust="spacing" textLength="20" x="323.75" y="654.0645">+...</text><text fill="#000000" font-family="sans-serif" font-size="14" lengthAdjust="spacing" textLength="133" x="323.75" y="671.6738">+has_hardware: bool</text><text fill="#000000" font-family="sans-serif" font-size="14" lengthAdjust="spacing" textLength="156" x="323.75" y="689.2832">+debug: dict&lt;str, object&gt;</text><line style="stroke:#181818;stroke-width:0.5;" x1="318.75" x2="559.75" y1="696.3594" y2="696.3594"/><text fill="#000000" font-family="sans-serif" font-size="14" lengthAdjust="spacing" textLength="231" x="323.75" y="714.8926">+as_skill_io_entry(): dict&lt;str, object&gt;</text></g><!--reverse link FMEASkillFunctionBuilder to SkillFunctionSuggestion--><g id="link_FMEASkillFunctionBuilder_SkillFunctionSuggestion"><path codeLine="50" d="M51,243.26 C51,386.85 51,631 51,631 C51,631 61.25,631 75.65,631 " fill="none" id="FMEASkillFunctionBuilder-backto-SkillFunctionSuggestion" style="stroke:#181818;stroke-width:1.0;"/><polygon fill="none" points="51,231.26,47,237.26,51,243.26,55,237.26,51,231.26" style="stroke:#181818;stroke-width:1.0;"/><text fill="#000000" font-family="sans-serif" font-size="13" lengthAdjust="spacing" textLength="43" x="7" y="439.9551">creates</text><text fill="#000000" font-family="sans-serif" font-size="13" lengthAdjust="spacing" textLength="32" x="35.7481" y="627.9297">many</text></g><!--link FMEASkillFunctionBuilder to SkillHardwareIOResolver--><g id="link_FMEASkillFunctionBuilder_SkillHardwareIOResolver"><path codeLine="51" d="M306.25,231.35 C306.25,250.86 306.25,265.41 306.25,284.92 " fill="none" id="FMEASkillFunctionBuilder-to-SkillHardwareIOResolver" style="stroke:#181818;stroke-width:1.0;stroke-dasharray:7.0,7.0;"/><polygon fill="#181818" points="306.25,290.92,310.25,281.92,306.25,285.92,302.25,281.92,306.25,290.92" style="stroke:#181818;stroke-width:1.0;"/><text fill="#000000" font-family="sans-serif" font-size="13" lengthAdjust="spacing" textLength="133" x="172.25" y="257.6251">delegates IO resolution</text></g><!--link FMEASkillFunctionBuilder to SkillHardwareIOResult--><g id="link_FMEASkillFunctionBuilder_SkillHardwareIOResult"><path codeLine="52" d="M549.25,231.26 C549.25,320.16 549.25,446.21 549.25,533.9 " fill="none" id="FMEASkillFunctionBuilder-to-SkillHardwareIOResult" style="stroke:#181818;stroke-width:1.0;stroke-dasharray:7.0,7.0;"/><polygon fill="#181818" points="549.25,539.9,553.25,530.9,549.25,534.9,545.25,530.9,549.25,539.9" style="stroke:#181818;stroke-width:1.0;"/><text fill="#000000" font-family="sans-serif" font-size="13" lengthAdjust="spacing" textLength="40" x="550.25" y="382.0751">returns</text></g><!--link SkillHardwareIOResolver to SkillFunctionSuggestion--><g id="link_SkillHardwareIOResolver_SkillFunctionSuggestion"><path codeLine="54" d="M167.25,480.07 C167.25,505.73 167.25,527.13 167.25,551.45 " fill="none" id="SkillHardwareIOResolver-to-SkillFunctionSuggestion" style="stroke:#181818;stroke-width:1.0;stroke-dasharray:7.0,7.0;"/><polygon fill="#181818" points="167.25,557.45,171.25,548.45,167.25,552.45,163.25,548.45,167.25,557.45" style="stroke:#181818;stroke-width:1.0;"/><text fill="#000000" font-family="sans-serif" font-size="13" lengthAdjust="spacing" textLength="28" x="138.25" y="515.2551">input</text></g><!--reverse link SkillHardwareIOResolver to SkillHardwareIOResult--><g id="link_SkillHardwareIOResolver_SkillHardwareIOResult"><path codeLine="55" d="M427.75,492.07 C427.75,511.65 427.75,520.25 427.75,539.72 " fill="none" id="SkillHardwareIOResolver-backto-SkillHardwareIOResult" style="stroke:#181818;stroke-width:1.0;"/><polygon fill="none" points="427.75,480.07,423.75,486.07,427.75,492.07,431.75,486.07,427.75,480.07" style="stroke:#181818;stroke-width:1.0;"/><text fill="#000000" font-family="sans-serif" font-size="13" lengthAdjust="spacing" textLength="43" x="383.75" y="506.3851">creates</text><text fill="#000000" font-family="sans-serif" font-size="13" lengthAdjust="spacing" textLength="32" x="393.4727" y="529.0093">many</text></g><!--SRC=[fLLDRzim3BthLn2vk4NhR6SZ2D0EwvR3q2BTpePYqOuMMJ8aUMqszB-FybUSpXvMxD8w4lNu-1ufHLvwXN3tvUCDF1waKd1NwynBeu5h0P-v5K_S8cpkOOlEg1ze6NC7gIjkUGcPuixTU6_bhlQuoOn-b3yHtez2t9uByoHr0JbN3aSxIchqnmh1MBytZ5KyE_02OP6No5CNsAHvnoRTrL89j0lunQ1Dsv1kEFUKRzkO9WGWXafbwQ58A-xt2JpGtswzmP_Q20SAoojQ_HJ-DSjNo-Mo_G1N5mKwFx1o5vS9bU7ywep7Onj6N-lke6srwuhQTwgcqbou8TPTGycVKsq4Ee8LClChv-rrwqllnEQUVAYLxv4RNJfSQTAIL_y26RxMu-fUs23hJ2cmMWdkUHEpNdSQNy5Wa1G947PVSAszB37Ll4H76zWaxabNfawbbTt6j-rcY_dwjTW3Scrb0ctG1DCpOPe67Vp_myeOkBCkxScHM6DH1e8na9vLgap6rNG59vQTioFHppMVDEzLLt2b_hCFOaWTeaY9i79fRcnwmXj1zzqweVXVPQKyRxFVeNR6JlaBFFFJEoTDzzmDCvB0pXZLRGZSrSLO4hFxZaCdaxcdGK3jxV7YSZhuXL6vRFR-C74CYvBhus9s61B8B7AFRXvbkLpFTYZHGeL500XNQzC8TJZyLhZWJ4BdVMsrOz5SlZXUjsD0mTvoMd94VIvwI3LPE5tVjPyz-rgx2RQzSj5SZi2sRGsAxkyAU0UTkVHZgj80VdQoQq8wsFPSG1Y6XB586uzWPR7tOF8vgoYJvzOxoAsXzyveOa_77kw_VI0OcbIVxT4jMVIrbvNQqCb2bzI1DChuN96xhfbh5bNqr960pdETXKXwOkzkHmlXOb8i4bL2Cz2JkH4YG01fGCfHEa7fjiX5RBGwjdv0UCi8a9vgX-5vzIWQoYmAPBYASsMUmDH-22OGfFn11VOR]--></g></svg>